<svg xmlns="http://www.w3.org/2000/svg" viewBox="0 0 733.37 342.67"><defs><style>.cls-1{isolation:isolate;}.cls-2{fill:#4d2a60;}.cls-3{fill:#d3612b;}.cls-4{fill:#22152c;}.cls-5{fill:#76628b;}.cls-6{fill:#bf4b2c;}.cls-7{fill:#524648;}.cls-8{fill:#b81f65;}.cls-9{fill:#982352;}.cls-10{fill:#b81363;}.cls-11,.cls-12{fill:#97004e;}.cls-12{fill-rule:evenodd;}.cls-13{fill:#3b1f4c;}.cls-14{fill:#c04b2c;}.cls-15{fill:#d4612b;}.cls-16{fill:#d6d7d7;}.cls-17{opacity:0.62;mix-blend-mode:multiply;}.cls-18{fill:#7d728c;}.cls-19{fill:#af3b2c;}.cls-20{fill:#b6b6b6;}.cls-21{fill:#989f9f;}.cls-22{fill:#909090;}.cls-23{fill:#4d2960;}.cls-24{fill:#fff;}.cls-25{fill:#3f2151;}</style></defs><g class="cls-1"><g id="_1" data-name="1"><path class="cls-2" d="M370.53,171.23l9.93-6.69a4.83,4.83,0,0,0,1.34-6.64l-1.56-2.36-2.65,1.74,1.55,2.37a1.63,1.63,0,0,1-.45,2.25l-9.93,6.69Z" transform="translate(-14.99 -12.01)"/><path class="cls-2" d="M344.58,132.29l9.94-6.7a1.65,1.65,0,0,1,2.26.42l2.1,3,2.6-1.82-2.1-3a4.83,4.83,0,0,0-6.63-1.23l-9.95,6.7Z" transform="translate(-14.99 -12.01)"/><circle class="cls-2" cx="355.38" cy="157.57" r="2.71"/><path class="cls-2" d="M341.33,131.07a2.71,2.71,0,1,1,2.71,2.71A2.71,2.71,0,0,1,341.33,131.07Z" transform="translate(-14.99 -12.01)"/><path class="cls-2" d="M540.45,268.59c0-18.79.35-34,.79-34s.79,15.22.79,34-.35,34-.79,34S540.45,287.37,540.45,268.59Z" transform="translate(-14.99 -12.01)"/><path class="cls-2" d="M540.45,180.18c0-18.78.35-34,.79-34s.79,15.23.79,34-.35,34-.79,34S540.45,199,540.45,180.18Z" transform="translate(-14.99 -12.01)"/><path class="cls-2" d="M585.44,225.18c-18.78,0-34-.36-34-.79s15.23-.8,34-.8,34,.36,34,.8S604.23,225.18,585.44,225.18Z" transform="translate(-14.99 -12.01)"/><path class="cls-2" d="M497,225.18c-18.79,0-34-.36-34-.79s15.23-.8,34-.8,34,.36,34,.8S515.82,225.18,497,225.18Z" transform="translate(-14.99 -12.01)"/><path class="cls-2" d="M571.93,256.2c-13.28-13.28-23.79-24.3-23.48-24.61s11.32,10.21,24.61,23.49,23.8,24.3,23.49,24.61S585.22,269.49,571.93,256.2Z" transform="translate(-14.99 -12.01)"/><path class="cls-2" d="M509.42,193.69c-13.28-13.28-23.8-24.3-23.49-24.61s11.33,10.2,24.61,23.49,23.8,24.3,23.49,24.61S522.7,207,509.42,193.69Z" transform="translate(-14.99 -12.01)"/><path class="cls-2" d="M573.06,193.69c-13.29,13.28-24.3,23.8-24.61,23.49s10.2-11.33,23.48-24.61,24.31-23.8,24.62-23.49S586.34,180.41,573.06,193.69Z" transform="translate(-14.99 -12.01)"/><path class="cls-2" d="M510.54,256.2c-13.28,13.29-24.3,23.8-24.61,23.49s10.21-11.33,23.49-24.61,24.3-23.8,24.61-23.49S523.83,242.92,510.54,256.2Z" transform="translate(-14.99 -12.01)"/><path class="cls-2" d="M582.16,241.13c-17.51-6.8-31.58-12.65-31.42-13.06s14.48,4.78,32,11.58,31.58,12.64,31.42,13S599.67,247.93,582.16,241.13Z" transform="translate(-14.99 -12.01)"/><path class="cls-2" d="M499.75,209.12c-17.51-6.8-31.58-12.64-31.42-13.05s14.48,4.77,32,11.57,31.58,12.65,31.42,13.06S517.26,215.92,499.75,209.12Z" transform="translate(-14.99 -12.01)"/><path class="cls-2" d="M558,183.47c-6.8,17.51-12.64,31.57-13.05,31.42s4.77-14.49,11.57-32,12.65-31.57,13-31.42S564.78,166,558,183.47Z" transform="translate(-14.99 -12.01)"/><path class="cls-2" d="M526,265.88c-6.8,17.51-12.65,31.57-13.06,31.42s4.78-14.49,11.58-32,12.64-31.57,13-31.42S532.78,248.37,526,265.88Z" transform="translate(-14.99 -12.01)"/><path class="cls-2" d="M582,207.29c-17.19,7.57-31.27,13.39-31.45,13s13.62-6.87,30.81-14.44,31.27-13.39,31.45-13S599.2,199.72,582,207.29Z" transform="translate(-14.99 -12.01)"/><path class="cls-2" d="M501.11,242.93c-17.19,7.58-31.27,13.39-31.45,13s13.62-6.87,30.81-14.44,31.27-13.39,31.44-13S518.3,235.36,501.11,242.93Z" transform="translate(-14.99 -12.01)"/><path class="cls-2" d="M524.14,183.61c7.58,17.19,13.39,31.27,13,31.45s-6.87-13.62-14.44-30.81-13.39-31.27-13-31.44S516.57,166.42,524.14,183.61Z" transform="translate(-14.99 -12.01)"/><path class="cls-2" d="M559.79,264.52c7.57,17.19,13.38,31.27,13,31.44s-6.86-13.61-14.44-30.8-13.38-31.27-13-31.45S552.21,247.33,559.79,264.52Z" transform="translate(-14.99 -12.01)"/><path class="cls-2" d="M260.2,268.9c0-18.78.35-34,.79-34s.79,15.23.79,34-.35,34-.79,34S260.2,287.69,260.2,268.9Z" transform="translate(-14.99 -12.01)"/><path class="cls-2" d="M260.2,180.5c0-18.79.35-34,.79-34s.79,15.22.79,34-.35,34-.79,34S260.2,199.28,260.2,180.5Z" transform="translate(-14.99 -12.01)"/><path class="cls-2" d="M305.19,225.5c-18.78,0-34-.36-34-.8s15.23-.79,34-.79,34,.35,34,.79S324,225.5,305.19,225.5Z" transform="translate(-14.99 -12.01)"/><path class="cls-2" d="M216.79,225.5c-18.79,0-34-.36-34-.8s15.23-.79,34-.79,34,.35,34,.79S235.57,225.5,216.79,225.5Z" transform="translate(-14.99 -12.01)"/><path class="cls-2" d="M291.68,256.52c-13.28-13.28-23.79-24.3-23.48-24.61s11.32,10.2,24.61,23.49,23.8,24.3,23.49,24.61S305,269.8,291.68,256.52Z" transform="translate(-14.99 -12.01)"/><path class="cls-2" d="M229.17,194c-13.28-13.29-23.8-24.31-23.49-24.62S217,179.6,230.29,192.88s23.8,24.31,23.49,24.62S242.45,207.29,229.17,194Z" transform="translate(-14.99 -12.01)"/><path class="cls-2" d="M292.81,194c-13.29,13.28-24.3,23.8-24.61,23.49s10.2-11.33,23.48-24.62,24.31-23.8,24.62-23.49S306.09,180.72,292.81,194Z" transform="translate(-14.99 -12.01)"/><path class="cls-2" d="M230.29,256.52C217,269.8,206,280.32,205.68,280s10.21-11.33,23.49-24.61,24.3-23.8,24.61-23.49S243.58,243.24,230.29,256.52Z" transform="translate(-14.99 -12.01)"/><path class="cls-2" d="M301.91,241.44c-17.51-6.8-31.58-12.64-31.42-13.05s14.48,4.77,32,11.57S334.06,252.61,333.9,253,319.42,248.24,301.91,241.44Z" transform="translate(-14.99 -12.01)"/><path class="cls-2" d="M219.5,209.44c-17.51-6.8-31.58-12.64-31.42-13.05s14.48,4.77,32,11.57,31.58,12.64,31.42,13S237,216.24,219.5,209.44Z" transform="translate(-14.99 -12.01)"/><path class="cls-2" d="M277.73,183.78c-6.8,17.51-12.64,31.58-13.05,31.42s4.77-14.48,11.57-32,12.65-31.58,13.05-31.42S284.53,166.27,277.73,183.78Z" transform="translate(-14.99 -12.01)"/><path class="cls-2" d="M245.73,266.19c-6.8,17.51-12.65,31.58-13,31.42s4.77-14.48,11.57-32S256.89,234,257.3,234.2,252.53,248.68,245.73,266.19Z" transform="translate(-14.99 -12.01)"/><path class="cls-2" d="M301.76,207.61c-17.19,7.57-31.27,13.38-31.44,13s13.61-6.86,30.8-14.44,31.27-13.39,31.45-13S319,200,301.76,207.61Z" transform="translate(-14.99 -12.01)"/><path class="cls-2" d="M220.86,243.25c-17.19,7.57-31.27,13.39-31.45,13s13.62-6.87,30.81-14.44,31.27-13.39,31.44-13S238.05,235.68,220.86,243.25Z" transform="translate(-14.99 -12.01)"/><path class="cls-2" d="M243.89,183.93c7.58,17.19,13.39,31.27,13,31.45s-6.87-13.62-14.44-30.81-13.39-31.27-13-31.45S236.32,166.74,243.89,183.93Z" transform="translate(-14.99 -12.01)"/><path class="cls-2" d="M279.54,264.83c7.57,17.19,13.39,31.27,13,31.45s-6.86-13.62-14.44-30.81S264.7,234.2,265.1,234,272,247.64,279.54,264.83Z" transform="translate(-14.99 -12.01)"/><polygon class="cls-3" points="392.91 212.82 399.8 212.82 397.94 253.32 394.5 253.32 392.91 212.82"/><rect class="cls-3" x="402.35" y="260.9" width="18" height="6.75" rx="1" transform="translate(807.7 516.53) rotate(180)"/><path class="cls-2" d="M261,133.89a90.5,90.5,0,1,1-90.5,90.5A90.5,90.5,0,0,1,261,133.89Zm0,170.87a80.38,80.38,0,1,0-80.38-80.37A80.37,80.37,0,0,0,261,304.76Z" transform="translate(-14.99 -12.01)"/><path class="cls-4" d="M261,128.75a95.64,95.64,0,1,1-95.64,95.64A95.64,95.64,0,0,1,261,128.75Zm0,180.58a84.95,84.95,0,1,0-84.94-84.94A84.94,84.94,0,0,0,261,309.33Z" transform="translate(-14.99 -12.01)"/><path class="cls-5" d="M274.21,81.12h0a4.37,4.37,0,0,0-4.19-5c-26.53-.83-26.53-6.37-26.53-18.21,0-13.16-.35-23.08,53.57-23.08l1.1-8.89c-48.68,0-64.3,8.09-64.3,33.08,0,15.5,2.49,25,35.91,25.8A4.37,4.37,0,0,0,274.21,81.12Z" transform="translate(-14.99 -12.01)"/><circle class="cls-6" cx="246" cy="212.37" r="7.44"/><rect class="cls-4" x="342.87" y="125.94" width="207.96" height="6.35" transform="translate(175.95 505.51) rotate(-72.74)"/><path class="cls-2" d="M541.24,133a91.42,91.42,0,1,1-91.42,91.42A91.41,91.41,0,0,1,541.24,133Zm0,172.61a81.2,81.2,0,1,0-81.19-81.19A81.19,81.19,0,0,0,541.24,305.58Z" transform="translate(-14.99 -12.01)"/><path class="cls-4" d="M541.24,128.75a95.64,95.64,0,1,1-95.64,95.64A95.64,95.64,0,0,1,541.24,128.75Zm0,180.58a84.95,84.95,0,1,0-84.94-84.94A84.94,84.94,0,0,0,541.24,309.33Z" transform="translate(-14.99 -12.01)"/><path class="cls-2" d="M402.22,228.18h131a5.86,5.86,0,0,0,5.34-8.28L469.66,67.45H293.13Zm130.22-6.35H405.59L305.12,73.8H465.56Z" transform="translate(-14.99 -12.01)"/><path class="cls-5" d="M294.76,24.66l6.35.16c-.05,2.1-.64,19.1-2.53,42.63h-6.17C294.23,42.71,294.75,25.19,294.76,24.66Z" transform="translate(-14.99 -12.01)"/><path class="cls-6" d="M258.74,225.36c14.12-19.39,22.81-61.66,28.12-102.43h5.67c-5.95,41.93-15.84,85.42-32.06,104Z" transform="translate(-14.99 -12.01)"/><path class="cls-2" d="M292.41,67.45h6.17c-1.31,16.29-3.25,35.71-6.05,55.48h-5.67C289.43,103.15,291.2,83.73,292.41,67.45Z" transform="translate(-14.99 -12.01)"/><polygon class="cls-2" points="411.15 194.47 404.5 194.47 439.25 82.64 439.29 103.91 411.15 194.47"/><path class="cls-4" d="M411.34,192.93a29.91,29.91,0,1,1-29.9,29.91A29.91,29.91,0,0,1,411.34,192.93Zm0,53a23.15,23.15,0,1,0-23.14-23.14A23.14,23.14,0,0,0,411.34,246Z" transform="translate(-14.99 -12.01)"/><circle class="cls-4" cx="411.34" cy="222.84" r="11.2" transform="translate(85.28 560.24) rotate(-76.77)"/><polygon class="cls-4" points="399.27 240.33 527.19 219.05 527.01 205.69 398.7 180.83 398.07 183.94 523.79 208.31 523.9 216.38 398.72 237.2 399.27 240.33"/><path class="cls-2" d="M547,224.39a7.44,7.44,0,1,1-7.44-7.44A7.45,7.45,0,0,1,547,224.39Z" transform="translate(-14.99 -12.01)"/><circle class="cls-4" cx="524.59" cy="212.37" r="3.88"/><path class="cls-6" d="M285,120.58a1.9,1.9,0,0,1,1.86-1.64l6.23.26a1.92,1.92,0,0,1,1.85,2l-.37,6a2,2,0,0,1-2.32,1.94L285.47,128a1.89,1.89,0,0,1-1.36-2.26Z" transform="translate(-14.99 -12.01)"/><path class="cls-2" d="M290.11,65.49a2.1,2.1,0,0,1,2.05-1.81L299,64a2.12,2.12,0,0,1,2,2.26l-.72,10.41a2.19,2.19,0,0,1-2.55,2.13l-7.45-1.33a2.09,2.09,0,0,1-1.5-2.5Z" transform="translate(-14.99 -12.01)"/><polygon class="cls-7" points="457.36 17.02 468.67 17.02 468.67 25.16 454.18 29.72 457.36 17.02"/><path class="cls-6" d="M438.88,29.43c14.38-8.65,68.78-24.73,76.83-13.66,2.86,3.93-.62,8-5.22,11.2a37.06,37.06,0,0,1-21.27,6.47H440A2.17,2.17,0,0,1,438.88,29.43Z" transform="translate(-14.99 -12.01)"/><path class="cls-3" d="M438.88,29.43C452.89,21,504.9,5.52,515,15c-10,4.65-26,9.36-44.39,12.66a242.57,242.57,0,0,1-32.73,3.77A2.06,2.06,0,0,1,438.88,29.43Z" transform="translate(-14.99 -12.01)"/><circle class="cls-2" cx="246" cy="212.37" r="4.11"/><polygon class="cls-3" points="394.5 169.41 397.94 169.41 399.8 209.91 392.91 209.91 394.5 169.41"/><rect class="cls-3" x="402.35" y="180.1" width="18" height="6.75" rx="1" transform="translate(807.7 354.94) rotate(180)"/><path class="cls-3" d="M417.69,222.84a6.35,6.35,0,1,1-6.35-6.35A6.35,6.35,0,0,1,417.69,222.84Z" transform="translate(-14.99 -12.01)"/><path class="cls-8" d="M352.18,137.64,367.31,127l16.42,23.37c1.51,2.43.47,5.9-2.36,7.88l-4.57,3.21c-2.83,2-6.44,1.78-8.21-.46Z" transform="translate(-14.99 -12.01)"/><path class="cls-8" d="M348.79,131.37l13.78-9.66a.37.37,0,0,1,.51.08l4,5.67-14.38,10.09-4-5.67A.38.38,0,0,1,348.79,131.37Z" transform="translate(-14.99 -12.01)"/><path class="cls-9" d="M349.09,135.88l17.62-12.36a.36.36,0,0,1,.51.09l4.95,7.06a.22.22,0,0,1-.05.31L354.27,143.5a.21.21,0,0,1-.31-.05l-5-7.06A.38.38,0,0,1,349.09,135.88Z" transform="translate(-14.99 -12.01)"/><rect class="cls-10" x="391.74" y="118.09" width="341.63" height="224.57"/><rect class="cls-11" x="391.74" y="118.15" width="77.36" height="224.52"/><rect class="cls-11" x="566.52" y="118.09" width="70.4" height="17.81"/><rect class="cls-11" x="487.64" y="333.05" width="7.41" height="9.41"/><rect class="cls-11" x="498.72" y="333.05" width="3.71" height="9.41"/><rect class="cls-11" x="505.14" y="333.05" width="3.71" height="9.41"/><rect class="cls-11" x="512.9" y="333.05" width="6.46" height="9.41"/><rect class="cls-11" x="523.34" y="333.05" width="1.94" height="9.41"/><rect class="cls-11" x="529.92" y="333.05" width="3.29" height="9.41"/><rect class="cls-11" x="535.45" y="333.05" width="4.29" height="9.41"/><rect class="cls-11" x="542.25" y="333.05" width="2.14" height="9.41"/><rect class="cls-11" x="547.32" y="333.05" width="3.77" height="9.41"/><path class="cls-11" d="M567.9,226v21c0,4.84-2.5,8.19-6.55,8.27-3.44,0-5.7-2.65-5.7-6.78V226H539.9V252.9c0,9.91,6.08,16.23,15,16.23a14.74,14.74,0,0,0,13-7v6.32h15.76V226Zm0,0" transform="translate(-14.99 -12.01)"/><path class="cls-11" d="M616.65,225.37c-5.93,0-10.53,2.49-13.49,7.17V226H587.4v42.44h15.76v-21c0-4.83,2.65-8.19,6.94-8.27,3.67,0,6.08,2.66,6.08,6.87v22.39h15.76V241.51c0-9.83-6.24-16.14-15.29-16.14Zm0,0" transform="translate(-14.99 -12.01)"/><rect class="cls-11" x="620.7" y="213.98" width="15.76" height="42.43"/><path class="cls-11" d="M574.58,289.32l5.23-9.91a37.36,37.36,0,0,0-18.64-5.15c-10.69,0-18.1,5.31-18.1,14.2,0,14.51,21.69,12.17,21.69,17,0,1.33-1.41,2-3.51,2-4.68,0-10.07-1.79-15.37-5.22l-4.84,9.9a34,34,0,0,0,20,6c11.08,0,18.64-5.3,18.64-14,0-14.51-22.15-12.4-22.15-17.16,0-1.33,1.25-2,3.2-2,3.35,0,8.11,1.48,13.88,4.45Zm0,0" transform="translate(-14.99 -12.01)"/><path class="cls-11" d="M611.5,304.53a15.77,15.77,0,0,1-4.83,1.25c-2.19,0-3.59-1.33-3.59-4.06V287.21h10.45V277.15H603.16v-6.49H587.4v6.49h-5.85v10.06h5.85v16.93c0,8.81,6.09,14,15.13,14a25,25,0,0,0,11.78-2.73Zm0,0" transform="translate(-14.99 -12.01)"/><path class="cls-11" d="M638.3,274.42c-14.27,0-23.63,8.58-23.63,21.76S624,318,638.3,318s23.56-8.66,23.56-21.77-9.28-21.76-23.56-21.76Zm0,12.48c4.6,0,7.65,3.82,7.65,9.44s-3.05,9.44-7.65,9.44-7.72-3.75-7.72-9.44,3-9.44,7.72-9.44Zm0,0" transform="translate(-14.99 -12.01)"/><path class="cls-11" d="M679.83,281.67V275H664.08V317.4h15.75V297.12c0-6.16,5.23-9.6,13.34-8.58v-14.2a15.19,15.19,0,0,0-13.34,7.33Zm0,0" transform="translate(-14.99 -12.01)"/><path class="cls-12" d="M630.16,208.36,643.57,195,657,208.36l-13.41,13.41Zm0,0" transform="translate(-14.99 -12.01)"/><polygon class="cls-13" points="404.35 72.01 402.83 71.99 402.83 113.49 404.35 113.51 404.35 72.01"/><polygon class="cls-13" points="376.92 70.72 373.35 70.66 373.35 155.62 376.92 155.68 376.92 70.72"/><path class="cls-13" d="M425.17,166.69a283.23,283.23,0,0,0-70.1-1.09v4.34l70.1,1.09Z" transform="translate(-14.99 -12.01)"/><path class="cls-9" d="M437.77,89.69a5.15,5.15,0,0,0-5.58-4.34,4.74,4.74,0,0,0-3.74,5.76,5.15,5.15,0,0,0,5.64,4.36A4.75,4.75,0,0,0,437.77,89.69Z" transform="translate(-14.99 -12.01)"/><path class="cls-9" d="M429,89.52a5.21,5.21,0,0,0-5.67-4.38A4.83,4.83,0,0,0,419.51,91a5.2,5.2,0,0,0,5.73,4.4A4.84,4.84,0,0,0,429,89.52Z" transform="translate(-14.99 -12.01)"/><path class="cls-9" d="M420.11,89.36a5.27,5.27,0,0,0-5.75-4.43,4.91,4.91,0,0,0-4,5.88,5.27,5.27,0,0,0,5.82,4.44A4.91,4.91,0,0,0,420.11,89.36Z" transform="translate(-14.99 -12.01)"/><path class="cls-9" d="M411,89.19a5.33,5.33,0,0,0-5.85-4.47,5,5,0,0,0-4.08,5.93A5.34,5.34,0,0,0,407,95.14,5,5,0,0,0,411,89.19Z" transform="translate(-14.99 -12.01)"/><path class="cls-9" d="M401.74,89a5.41,5.41,0,0,0-5.95-4.52,5.07,5.07,0,0,0-4.19,6,5.39,5.39,0,0,0,6,4.54A5.09,5.09,0,0,0,401.74,89Z" transform="translate(-14.99 -12.01)"/><path class="cls-9" d="M392.26,88.84a5.47,5.47,0,0,0-6-4.57,5.17,5.17,0,0,0-4.32,6.06A5.46,5.46,0,0,0,388,94.91,5.17,5.17,0,0,0,392.26,88.84Z" transform="translate(-14.99 -12.01)"/><path class="cls-9" d="M382.59,88.66a5.53,5.53,0,0,0-6.14-4.61A5.25,5.25,0,0,0,372,90.16a5.54,5.54,0,0,0,6.21,4.64A5.27,5.27,0,0,0,382.59,88.66Z" transform="translate(-14.99 -12.01)"/><path class="cls-9" d="M372.72,88.48a5.62,5.62,0,0,0-6.25-4.67A5.36,5.36,0,0,0,361.88,90a5.62,5.62,0,0,0,6.32,4.69A5.37,5.37,0,0,0,372.72,88.48Z" transform="translate(-14.99 -12.01)"/><path class="cls-9" d="M362.63,88.29a5.69,5.69,0,0,0-6.35-4.72,5.47,5.47,0,0,0-4.73,6.25A5.68,5.68,0,0,0,358,94.55,5.47,5.47,0,0,0,362.63,88.29Z" transform="translate(-14.99 -12.01)"/><path class="cls-9" d="M352.32,88.1a5.75,5.75,0,0,0-6.46-4.77A5.58,5.58,0,0,0,341,89.64a5.77,5.77,0,0,0,6.54,4.79A5.58,5.58,0,0,0,352.32,88.1Z" transform="translate(-14.99 -12.01)"/><path class="cls-8" d="M419.59,23.19l-60.81-.94L341.86,85.86a491.2,491.2,0,0,0,94.66,1.47Z" transform="translate(-14.99 -12.01)"/><rect class="cls-10" x="191.94" y="157.79" width="238.47" height="184.83"/><rect class="cls-11" x="191.94" y="157.83" width="54" height="184.83"/><rect class="cls-11" x="313.95" y="330.03" width="49.14" height="12.43"/><rect class="cls-11" x="313.95" y="157.79" width="49.14" height="12.43"/><rect class="cls-11" x="258.88" y="307.84" width="5.17" height="21.49"/><rect class="cls-11" x="266.62" y="307.84" width="2.59" height="21.49"/><rect class="cls-11" x="271.1" y="307.84" width="2.59" height="21.49"/><rect class="cls-11" x="276.52" y="307.84" width="4.51" height="21.49"/><rect class="cls-11" x="283.81" y="307.84" width="1.35" height="21.49"/><rect class="cls-11" x="288.4" y="307.84" width="2.3" height="21.49"/><rect class="cls-11" x="292.26" y="307.84" width="2.99" height="21.49"/><rect class="cls-11" x="297.01" y="307.84" width="1.5" height="21.49"/><rect class="cls-11" x="300.54" y="307.84" width="2.63" height="21.49"/><path class="cls-11" d="M319.44,236.74v14.65c0,3.37-1.75,5.71-4.58,5.77-2.39,0-4-1.85-4-4.74V236.74h-11v18.78c0,6.92,4.25,11.33,10.45,11.33a10.29,10.29,0,0,0,9.1-4.9v4.41h11V236.74Zm0,0" transform="translate(-14.99 -12.01)"/><path class="cls-11" d="M353.47,236.3a10.57,10.57,0,0,0-9.42,5v-4.57h-11v29.62h11V251.71c0-3.37,1.85-5.72,4.84-5.77,2.56,0,4.25,1.85,4.25,4.79v15.63h11V247.57c0-6.86-4.36-11.27-10.67-11.27Zm0,0" transform="translate(-14.99 -12.01)"/><rect class="cls-11" x="351.77" y="224.73" width="11" height="29.62"/><path class="cls-11" d="M324.1,280.94l3.65-6.91a26.07,26.07,0,0,0-13-3.6c-7.46,0-12.63,3.71-12.63,9.91,0,10.13,15.13,8.5,15.13,11.87,0,.93-1,1.37-2.45,1.37a20.44,20.44,0,0,1-10.72-3.65l-3.38,6.91A23.69,23.69,0,0,0,314.63,301c7.73,0,13-3.7,13-9.8,0-10.12-15.46-8.65-15.46-12,0-.93.87-1.42,2.23-1.42,2.34,0,5.66,1,9.69,3.1Zm0,0" transform="translate(-14.99 -12.01)"/><path class="cls-11" d="M349.87,291.56a10.93,10.93,0,0,1-3.37.87c-1.53,0-2.51-.92-2.51-2.83V279.47h7.3v-7h-7.24v-4.53h-11v4.53H329v7h4.08v11.82c0,6.15,4.25,9.8,10.56,9.74a17.39,17.39,0,0,0,8.22-1.9Zm0,0" transform="translate(-14.99 -12.01)"/><path class="cls-11" d="M368.58,270.54c-10,0-16.5,6-16.5,15.19s6.54,15.2,16.5,15.2S385,294.88,385,285.73s-6.47-15.19-16.44-15.19Zm0,8.72c3.21,0,5.34,2.66,5.34,6.58s-2.13,6.59-5.34,6.59-5.39-2.61-5.39-6.59,2.12-6.58,5.39-6.58Zm0,0" transform="translate(-14.99 -12.01)"/><path class="cls-11" d="M397.57,275.61v-4.69h-11v29.63h11V286.39c0-4.3,3.65-6.7,9.31-6v-9.91a10.59,10.59,0,0,0-9.31,5.12Zm0,0" transform="translate(-14.99 -12.01)"/><path class="cls-12" d="M362.9,224.43l9.36-9.36,9.36,9.36-9.36,9.37Zm0,0" transform="translate(-14.99 -12.01)"/><rect class="cls-10" x="50.6" y="216.05" width="163.33" height="126.59"/><rect class="cls-11" x="50.6" y="216.08" width="36.98" height="126.59"/><rect class="cls-11" x="134.16" y="334.01" width="33.66" height="8.51"/><rect class="cls-11" x="134.16" y="216.05" width="33.66" height="8.51"/><rect class="cls-11" x="96.45" y="318.82" width="3.54" height="14.72"/><rect class="cls-11" x="101.75" y="318.82" width="1.77" height="14.72"/><rect class="cls-11" x="104.82" y="318.82" width="1.77" height="14.72"/><rect class="cls-11" x="108.53" y="318.82" width="3.09" height="14.72"/><rect class="cls-11" x="113.52" y="318.82" width="0.93" height="14.72"/><rect class="cls-11" x="116.66" y="318.82" width="1.57" height="14.72"/><rect class="cls-11" x="119.31" y="318.82" width="2.05" height="14.72"/><rect class="cls-11" x="122.56" y="318.82" width="1.02" height="14.72"/><rect class="cls-11" x="124.98" y="318.82" width="1.8" height="14.72"/><path class="cls-11" d="M142.65,273.9v10c0,2.32-1.2,3.92-3.14,4-1.64,0-2.72-1.27-2.72-3.25V273.9h-7.53v12.87c0,4.73,2.91,7.75,7.16,7.75a7,7,0,0,0,6.23-3.35v3h7.53V273.9Zm0,0" transform="translate(-14.99 -12.01)"/><path class="cls-11" d="M166,273.6A7.25,7.25,0,0,0,159.5,277V273.9H152v20.29h7.53v-10c0-2.31,1.27-3.92,3.32-4,1.75,0,2.91,1.27,2.91,3.29v10.7h7.53V281.32c0-4.7-3-7.72-7.31-7.72Zm0,0" transform="translate(-14.99 -12.01)"/><rect class="cls-11" x="160.07" y="261.89" width="7.53" height="20.29"/><path class="cls-11" d="M145.84,304.18l2.5-4.74a17.86,17.86,0,0,0-8.91-2.46c-5.11,0-8.65,2.54-8.65,6.79,0,6.93,10.36,5.81,10.36,8.13,0,.63-.67.93-1.67.93a14,14,0,0,1-7.35-2.5l-2.31,4.74a16.23,16.23,0,0,0,9.54,2.87c5.3,0,8.92-2.54,8.92-6.71,0-6.94-10.59-5.93-10.59-8.21,0-.63.59-1,1.53-1a16,16,0,0,1,6.63,2.13Zm0,0" transform="translate(-14.99 -12.01)"/><path class="cls-11" d="M163.49,311.45a7.65,7.65,0,0,1-2.31.6c-1,0-1.71-.64-1.71-1.94v-6.94h5v-4.81h-5v-3.1H152v3.1h-2.8v4.81H152v8.09c0,4.22,2.91,6.72,7.24,6.68a12,12,0,0,0,5.63-1.31Zm0,0" transform="translate(-14.99 -12.01)"/><path class="cls-11" d="M176.31,297.05c-6.83,0-11.3,4.11-11.3,10.41s4.47,10.4,11.3,10.4,11.26-4.14,11.26-10.4-4.44-10.41-11.26-10.41Zm0,6c2.2,0,3.65,1.83,3.65,4.51s-1.45,4.52-3.65,4.52-3.7-1.79-3.7-4.52,1.46-4.51,3.7-4.51Zm0,0" transform="translate(-14.99 -12.01)"/><path class="cls-11" d="M196.16,300.52v-3.2h-7.53V317.6h7.53v-9.69c0-3,2.5-4.59,6.38-4.11V297a7.28,7.28,0,0,0-6.38,3.5Zm0,0" transform="translate(-14.99 -12.01)"/><path class="cls-12" d="M172.41,265.47l6.41-6.41,6.41,6.42-6.41,6.41Zm0,0" transform="translate(-14.99 -12.01)"/><polygon class="cls-14" points="68.18 256.81 16.3 258.79 3.25 342.65 55.59 342.65 68.18 256.81"/><polygon class="cls-15" points="64.93 256.81 13.04 258.79 0 342.65 52.34 342.65 64.93 256.81"/><polygon class="cls-16" points="58.29 264.62 17.02 266.28 6.64 336.7 48.27 336.7 58.29 264.62"/><polygon class="cls-14" points="18.41 268.37 57.99 266.78 58.44 264.08 16.61 265.86 6.64 336.7 8.35 336.7 18.41 268.37"/><g class="cls-17"><path class="cls-18" d="M38.78,348.76h7.73c1.61-1.8,3.28-3.55,5-5.18a5.9,5.9,0,0,0,2.53-6,98.37,98.37,0,0,0-2.6-19,51.44,51.44,0,0,1-7.54-.5c-.41-.06-5.56,5.9-7.58,9.81a12.21,12.21,0,0,0-1,11A76,76,0,0,0,38.78,348.76Z" transform="translate(-14.99 -12.01)"/><path class="cls-18" d="M46.59,322c1-8.52-3.88-15.81-8.4-22.3-.23-.33-1.07,0-.81.35,4.45,6.37,9.29,13.57,8.34,22-.06.47.82.41.87,0Z" transform="translate(-14.99 -12.01)"/><path class="cls-18" d="M47.8,320.81c-.43-6.95,2.52-15.51,9.57-24.68.09-.11-1,.18-1.25.54-6.8,9-9.6,17.42-9.13,24.29,0,.14.82.05.81-.15Z" transform="translate(-14.99 -12.01)"/><path class="cls-18" d="M48.86,320.85c.41-8.22,8.67-11.72,14.28-15.45.38-.25-.48-.25-.67-.13C56.76,309.07,48.41,312.66,48,321c0,.21.86.12.88-.18Z" transform="translate(-14.99 -12.01)"/><path class="cls-18" d="M50.69,306.17c-.23-1.61-.49-3.2-.79-4.74-.06-.3-.71.08-.64.41.29,1.54.56,3.12.79,4.74.05.31.69-.05.64-.41Z" transform="translate(-14.99 -12.01)"/><path class="cls-18" d="M44.21,311.13a11.23,11.23,0,0,1-3.58-.62.57.57,0,0,0-.62.13.29.29,0,0,0,.09.47,12.39,12.39,0,0,0,4,.71c.19,0,.46-.12.49-.34s-.2-.35-.38-.35Z" transform="translate(-14.99 -12.01)"/><path class="cls-18" d="M41.66,304.82a5.91,5.91,0,0,1,.83-2.53l3.13-5.19c.55-.91.54-1.54,0-1.23s-.72,1.19-1.09,1.95c-1,2.13-2.37,3.6-2.87,4.66a3.46,3.46,0,0,0-.49,2c0,.16.15.8.26.76a1.94,1.94,0,0,0,.35-1Z" transform="translate(-14.99 -12.01)"/><path class="cls-18" d="M58,308a17.33,17.33,0,0,1,.42-3.47c.11-.51-.38-.57-.47-.16a19.57,19.57,0,0,0-.46,3.84.21.21,0,0,0,.28.23A.43.43,0,0,0,58,308Z" transform="translate(-14.99 -12.01)"/><path class="cls-18" d="M53.11,312.43a14.54,14.54,0,0,0,4.25.53c.14,0,.46-.07.51-.25s-.25-.19-.35-.19a12.9,12.9,0,0,1-3.85-.51.78.78,0,0,0-.61.13c-.14.11-.12.24,0,.29Z" transform="translate(-14.99 -12.01)"/><path class="cls-18" d="M40.8,296.56a2.33,2.33,0,0,0-2.5-.33,2.64,2.64,0,0,0-1.07-1.92,1.71,1.71,0,0,0-2,.07,1.59,1.59,0,0,0-.24,2.06,1.33,1.33,0,0,0-1.33,1.48A2.51,2.51,0,0,0,35,299.53a1.16,1.16,0,0,0,.9.22,3.55,3.55,0,0,0-1,2A1.56,1.56,0,0,0,36,303.44a1.34,1.34,0,0,0,1.21-.54,2.62,2.62,0,0,0,.48-1.34l.6-1.48a2.22,2.22,0,0,0,1.86.47,1.12,1.12,0,0,0,.93-.79.66.66,0,0,0-.39-.68,1.18,1.18,0,0,0,.78-1A1.87,1.87,0,0,0,40.8,296.56Z" transform="translate(-14.99 -12.01)"/><path class="cls-18" d="M49,297.08a3.48,3.48,0,0,0-1.4-2.21,1.94,1.94,0,0,0,.34-1.73,2.56,2.56,0,0,0-1.32-1.66.85.85,0,0,0-1.26.71c-.42-.64-1.28-.88-1.63-.45s-.17,1.2,0,1.88a1.77,1.77,0,0,0,.45.84,2.22,2.22,0,0,0-1.69,0,1.21,1.21,0,0,0-.23,1.65,1.72,1.72,0,0,0,1.06.76,1.37,1.37,0,0,0,1-.2l1.17-.14a3.31,3.31,0,0,0,.93,1.74c.31.3.72.54,1,.42s.21-.38.11-.62a.94.94,0,0,0,1,.21A1.2,1.2,0,0,0,49,297.08Z" transform="translate(-14.99 -12.01)"/><path class="cls-18" d="M61.53,294.25h-.11a2.73,2.73,0,0,0,.24-.64,2.69,2.69,0,0,0,0-1.38,1.27,1.27,0,0,0-.92-.9.82.82,0,0,0-.69.25,2.44,2.44,0,0,0-1.24-1.67,2.23,2.23,0,0,0-2.69.67,1.42,1.42,0,0,0-.28.71,6.56,6.56,0,0,0-2,.67,2.66,2.66,0,0,0-1.32,1.76,2.08,2.08,0,0,0,.76,2c-.4.08-.56.66-.37,1a1.42,1.42,0,0,0,1,.67,3.48,3.48,0,0,0,2.87-.6,1.28,1.28,0,0,0-.26,1.85,1,1,0,0,0,1.65-.4,1.76,1.76,0,0,0,0-.79,5.28,5.28,0,0,0-.39-1.26l1.06.38a2.51,2.51,0,0,0,2.54-.33,1.58,1.58,0,0,0,.64-1A.88.88,0,0,0,61.53,294.25Z" transform="translate(-14.99 -12.01)"/><path class="cls-18" d="M64.61,306.5s0,0,0-.07a1.24,1.24,0,0,0,.34-.18,1.78,1.78,0,0,0,.57-.71,1.47,1.47,0,0,0,0-1,.46.46,0,0,0-.34-.29,2.82,2.82,0,0,0,.24-1.63c-.14-.77-.67-1.33-1.22-1.29a.64.64,0,0,0-.39.2,3.46,3.46,0,0,0-1-.85,1,1,0,0,0-1.18.11,2,2,0,0,0-.53,1.48c-.17-.21-.46,0-.55.31a1.73,1.73,0,0,0,.08,1A2.22,2.22,0,0,0,61.93,305c-.35-.17-.8.24-.84.8s.39,1,.74.8a1,1,0,0,0,.32-.41,4.39,4.39,0,0,0,.37-.89l.22.85a1.74,1.74,0,0,0,1,1.37.62.62,0,0,0,.63-.13A.89.89,0,0,0,64.61,306.5Z" transform="translate(-14.99 -12.01)"/><path class="cls-18" d="M41.37,312.44a1.32,1.32,0,0,0-1.21-1.4,2.36,2.36,0,0,0,.86-1.7,1.57,1.57,0,0,0-1-1.53,1.1,1.1,0,0,0-1.13.38,1.24,1.24,0,0,0-.26-.25,1.85,1.85,0,0,0-1.82-.38,2.24,2.24,0,0,0-1,1.77,1.54,1.54,0,0,0,.09,1,.6.6,0,0,0,.22.2,1.28,1.28,0,0,0-.71.86,2.19,2.19,0,0,0,.47,1.75,1.87,1.87,0,0,0,2,.76,1,1,0,0,0,.81.33,1.38,1.38,0,0,0,.61-.23,1.91,1.91,0,0,0,.89,0A1.72,1.72,0,0,0,41.37,312.44Z" transform="translate(-14.99 -12.01)"/></g><path class="cls-13" d="M368.73,321.89c-35.44,0-64.78-29.5-65.6-66.16s27.38-66.81,63-67c22.39-.15,42.37,11.5,54.33,29.32l5.05,0a71.36,71.36,0,0,0-59.42-31.45,69.11,69.11,0,0,0-68.66,71.07c.87,38.86,32.82,70.17,71.45,70.1Z" transform="translate(-14.99 -12.01)"/><polygon class="cls-13" points="359.83 309.87 347.83 309.95 348.24 328.19 360.24 328.1 359.83 309.87"/><polygon class="cls-13" points="356.19 289.23 350.55 289.27 351.63 337.89 357.28 337.85 356.19 289.23"/><polygon class="cls-13" points="380.64 339.11 334.12 332.33 334.35 342.67 380.71 342.35 380.64 339.11"/><ellipse class="cls-15" cx="368.33" cy="257.09" rx="59.73" ry="60.72" transform="translate(-95.67 257.58) rotate(-36.51)"/><ellipse class="cls-13" cx="424" cy="218" rx="5.3" ry="5.39" transform="translate(-61.51 282.89) rotate(-36.49)"/><path class="cls-19" d="M357.72,276.19c-3.82-.48-6.69-3.47-9.46-6.08a71.16,71.16,0,0,0-13-9.7l-3.78,14.08a3.41,3.41,0,0,0,.63,3.73l8.14,11.54a12.28,12.28,0,0,1,2.51,5.12c.26,1.73-.17,3.74.92,5.09.58.73,1.54,1.16,1.88,2a12.81,12.81,0,0,1,.2,2.25c.47,2.56,4.52,3,5.09,5.57l1,.46c2.37-9.49,6.3-8.49,6.82-32.93,0-.24.11-.48,0-.7S358.1,276.23,357.72,276.19Z" transform="translate(-14.99 -12.01)"/><path class="cls-19" d="M318.43,239.32a1.83,1.83,0,0,1,.79.51,2.08,2.08,0,0,1,.27,1c.23,1.85,1.73,3.25,3,4.67a20.53,20.53,0,0,1,4.86,10.83,22.91,22.91,0,0,0,6.46,3.05l2.86-.67a2.17,2.17,0,0,1,2.23-3.12c.4.1.9.31,1.18,0s0-.78-.11-1.17a6.23,6.23,0,0,1,.2-4.1c.77-2.75,1.59-5.6,3.39-7.8a7.78,7.78,0,0,0,2-3c.1-.47.08-1,.17-1.44a7.19,7.19,0,0,1,.83-1.94c2.05-3.86,3-8.21,3.94-12.5a2,2,0,0,0,0-1c-.2-.65-.94-.91-1.58-1.12a20.15,20.15,0,0,1-10.47-7.8,2.06,2.06,0,0,0-1-.91,1.88,1.88,0,0,0-1,.12l-11.78,3.71a58,58,0,0,0-9.85,14.9c-.44,1-.85,1.94-1.24,2.93C314.91,236.4,316.34,238.39,318.43,239.32Z" transform="translate(-14.99 -12.01)"/><path class="cls-19" d="M350.24,212c2.58,2.05,4.94,4.76,8.16,5.33-.22-3.41-.43-6.82-.65-10.22a4.64,4.64,0,0,0-2.06-4.05,12.64,12.64,0,0,0-3.85-2.71c-.17-.06-.34-.1-.52-.15a58.08,58.08,0,0,0-15.26,6.93A22.92,22.92,0,0,1,350.24,212Z" transform="translate(-14.99 -12.01)"/><path class="cls-19" d="M409.64,223.25c-1.18,1.11-3.28,1.52-3.51,3.13l-.94-.44c-1.18.16-2.61-.45-3.44.39s-.25,2.19.33,3.19l3.4,5.84a.66.66,0,0,0,.24.28.61.61,0,0,0,.61-.12,4.3,4.3,0,0,0,1.93-3c.18-1.17-.1-2.49.55-3.48.37-.57,1-.93,1.32-1.54a1.18,1.18,0,0,0-.15-1.24c.75.59,1,2,1.91,2.46,2.7,1.3,3.68,4.25,4.67,2.85.06-1.13-1.76-2.93-1.7-4.06,1,.93,3,.73,4.59.91A60.32,60.32,0,0,0,409.15,215c.28.54.55,1.08.79,1.63C410.86,218.82,411.33,221.66,409.64,223.25Z" transform="translate(-14.99 -12.01)"/><path class="cls-19" d="M411.24,238.16a2.18,2.18,0,0,0,0,1.57,19.36,19.36,0,0,0,2.16,5.57c2.19,3.54,5.93,5.77,8.84,8.74a23.08,23.08,0,0,1,4.92,7.65,60,60,0,0,0-5.57-29.14,82.7,82.7,0,0,0-9.5,4.89A2.15,2.15,0,0,0,411.24,238.16Z" transform="translate(-14.99 -12.01)"/><path class="cls-19" d="M404.4,218.08a4.53,4.53,0,0,0-1.62-4c-.91-.73-2.1-1.1-2.88-2-.25-.27-.48-.6-.83-.68s-.94.38-1,.87a2.42,2.42,0,0,0,.48,1.4c1.39,2.21,3.46,4,4.72,6.22A2.44,2.44,0,0,0,404.4,218.08Z" transform="translate(-14.99 -12.01)"/><path class="cls-19" d="M377.47,199.61a8.43,8.43,0,0,0,2.25.32c2.51.39,4,3,6.28,4.24,2,1.06,4.43.83,6.71.94a21.24,21.24,0,0,1,4.12.61c-1.28-.73-2.59-1.43-3.95-2.08a59.41,59.41,0,0,0-16.2-5A1.5,1.5,0,0,0,377.47,199.61Z" transform="translate(-14.99 -12.01)"/><rect class="cls-20" x="183.23" y="102.86" width="5.1" height="26.36"/><rect class="cls-20" x="144.5" y="89.15" width="5.1" height="40.27"/><rect class="cls-20" x="157.57" y="72.52" width="5.1" height="56.18"/><path class="cls-20" d="M172.39,87.79c1.11,6.17,19.09,9.22,35,6.36,15.37-2.75,22.16-7.7,20.14-19-1.63-9.11-16.26-12.49-30.66-9.91C181.54,68,170.2,75.55,172.39,87.79Z" transform="translate(-14.99 -12.01)"/><path class="cls-20" d="M198.55,117.38c.93,5.19,16.06,7.76,29.49,5.35,12.93-2.31,18.64-6.48,16.94-16-1.38-7.66-13.68-10.51-25.8-8.34C206.25,100.73,196.71,107.07,198.55,117.38Z" transform="translate(-14.99 -12.01)"/><path class="cls-21" d="M188.11,73a.64.64,0,0,1-.05-1.27L216,69.5a.64.64,0,0,1,.1,1.28L188.16,73Z" transform="translate(-14.99 -12.01)"/><path class="cls-21" d="M188.11,77.29a.62.62,0,0,1-.63-.58.64.64,0,0,1,.58-.69L216,73.79a.62.62,0,0,1,.68.58.64.64,0,0,1-.58.69l-27.9,2.23Z" transform="translate(-14.99 -12.01)"/><path class="cls-21" d="M188.11,81.58a.64.64,0,0,1-.05-1.28L216,78.07a.64.64,0,0,1,.68.59.62.62,0,0,1-.58.68l-27.9,2.23Z" transform="translate(-14.99 -12.01)"/><path class="cls-21" d="M188.11,85.86a.64.64,0,0,1-.05-1.27L216,82.36a.63.63,0,0,1,.68.58.64.64,0,0,1-.58.69l-27.9,2.23Z" transform="translate(-14.99 -12.01)"/><path class="cls-21" d="M188.11,90.14a.62.62,0,0,1-.63-.58.64.64,0,0,1,.58-.69L216,86.64a.64.64,0,0,1,.1,1.27l-27.9,2.23Z" transform="translate(-14.99 -12.01)"/><path class="cls-20" d="M164.63,102.4c-1,5.56-17.18,8.3-31.54,5.73-13.84-2.47-20-6.93-18.13-17.1,1.47-8.19,14.63-11.23,27.6-8.91C156.39,84.59,166.6,91.38,164.63,102.4Z" transform="translate(-14.99 -12.01)"/><path class="cls-22" d="M144.25,105.28a61.18,61.18,0,0,1-10.49-.91c-6.5-1.17-10.77-2.72-13.06-4.76-1.44-1.28-2.81-3.23-2-7.9.69-3.84,7-6.52,15.47-6.52a44,44,0,0,1,7.69.69c6.35,1.14,22.22,6.88,19,15.85C160,104,154.45,105.28,144.25,105.28Z" transform="translate(-14.99 -12.01)"/><rect class="cls-15" x="119.04" y="125.11" width="85.02" height="14.45" rx="5.1"/><path d="M195.67,322.91a10.65,10.65,0,1,1,10.65-10.64A10.65,10.65,0,0,1,195.67,322.91Zm0-18.73a8.09,8.09,0,1,0,8.1,8.09A8.1,8.1,0,0,0,195.67,304.18Z" transform="translate(-14.99 -12.01)"/><path class="cls-23" d="M129.89,255c-6.27-12.88-24.91-82,21.18-96.62v8.92s-28.3,2.56-17,85.08Z" transform="translate(-14.99 -12.01)"/><path class="cls-24" d="M155.53,162.85a4.47,4.47,0,1,1-4.46-4.46A4.46,4.46,0,0,1,155.53,162.85Z" transform="translate(-14.99 -12.01)"/><path d="M151.07,168.59a5.74,5.74,0,1,1,5.74-5.74A5.74,5.74,0,0,1,151.07,168.59Zm0-8.93a3.19,3.19,0,1,0,3.19,3.19A3.19,3.19,0,0,0,151.07,159.66Z" transform="translate(-14.99 -12.01)"/><path class="cls-14" d="M140.52,248.29,129.89,255a7.65,7.65,0,0,0-3.57,6.36l-.73,51.54a7.71,7.71,0,0,0,3.77,6.71l11.16,6.56,29-14.64a12.75,12.75,0,0,0,7-11.39V268.61a12.76,12.76,0,0,0-9.08-12.21Z" transform="translate(-14.99 -12.01)"/><path class="cls-14" d="M140.52,151.57V326.18a12.75,12.75,0,0,0,12.75,12.75h46.55a12.75,12.75,0,0,0,12.75-12.75V151.57Z" transform="translate(-14.99 -12.01)"/><path class="cls-15" d="M176.54,338.93h23.28a12.75,12.75,0,0,0,12.75-12.75V151.57h-36Z" transform="translate(-14.99 -12.01)"/><rect class="cls-25" x="240.89" y="325.17" width="8.22" height="14.53"/><rect class="cls-2" x="158.99" y="232.15" width="171.6" height="94.39"/><rect class="cls-4" x="166.01" y="240.43" width="156.4" height="77.49"/><rect class="cls-2" x="218.94" y="336.75" width="52.92" height="5.92"/></g></g></svg>