<svg id="Слой_1" data-name="Слой 1" xmlns="http://www.w3.org/2000/svg" viewBox="0 0 841.78 1110.1"><defs><style>.cls-1{fill:#40194c;}.cls-2{fill:#562462;}.cls-3{fill:#7b3f89;}.cls-4{fill:#b31e52;}.cls-5{fill:#d81967;}.cls-6{fill:#2f123a;}.cls-7{fill:#210d28;}.cls-8{fill:#d80b65;}.cls-10,.cls-9{fill:#b2004e;}.cls-10{fill-rule:evenodd;}</style></defs><path class="cls-1" d="M314.56,441.88C207.07,470.88,94,405.18,61.65,294.63,29.19,183.71,90.27,69.68,198.09,39.93c67.78-18.7,137.88.38,188.67,44.67l15.3-4.21C347.11,33,270.52,12.87,196.17,33.38,78.72,65.79,11.4,187.36,45.8,304.91,80.1,422.09,202.55,491,319.67,459.35Z" transform="translate(-34.91 -25.39)"/><polygon class="cls-1" points="298.11 411.52 261.8 421.54 277.89 476.51 314.2 466.5 298.11 411.52"/><polygon class="cls-1" points="270.26 351.87 253.17 356.58 296.08 503.18 313.17 498.47 270.26 351.87"/><polygon class="cls-1" points="385.06 483.25 238.43 500.6 247.55 531.75 387.93 493.02 385.06 483.25"/><ellipse class="cls-2" cx="260.55" cy="245.65" rx="187.61" ry="190.71" transform="translate(-128.77 271.52) rotate(-51.54)"/><ellipse class="cls-1" cx="397.57" cy="81.7" rx="16.64" ry="16.92" transform="translate(51.35 316.74) rotate(-51.53)"/><path class="cls-3" d="M243.92,312.22c-12,1.66-23.11-5.07-33.64-10.73A225.09,225.09,0,0,0,163,282.64q0,22.91,0,45.81a14.65,14.65,0,0,0,.93,6.3,14,14,0,0,0,4,4.48L202,367.62c4.62,3.84,9.4,7.89,11.8,13.46,2.18,5.07,2.51,11.49,6.93,14.72,2.35,1.72,5.62,2.26,7.35,4.63,1.39,1.9,1.42,4.51,2.44,6.65,3.53,7.39,16.19,5.5,20,12.75l3.45.58c-.55-30.74,12.19-30.9-6.15-105.45-.18-.74-.05-1.57-.52-2.15C246.56,311.88,245.12,312.05,243.92,312.22Z" transform="translate(-34.91 -25.39)"/><path class="cls-3" d="M94.71,232.41a5.88,5.88,0,0,1,2.81.87,6.56,6.56,0,0,1,1.64,2.91c2.21,5.44,7.91,8.46,12.79,11.76a64.67,64.67,0,0,1,23.58,28.9,71.72,71.72,0,0,0,22.07,4l8.13-4.36c-3.82-3.55-.95-11.19,4.22-11.28,1.31,0,3,.19,3.59-1s-.48-2.42-1.29-3.46c-2.71-3.47-2.78-8.22-2.73-12.59.1-9,.26-18.29,3.93-26.45,1.57-3.49,3.81-6.93,3.62-10.77-.08-1.52-.54-3-.65-4.52a22.18,22.18,0,0,1,.94-6.55c3.08-13.39,2.43-27.38,1.77-41.16a6.2,6.2,0,0,0-.66-3c-1.11-1.79-3.59-2-5.7-2.08a63.55,63.55,0,0,1-38.12-15.16c-1.07-.92-2.24-1.93-3.64-2a5.65,5.65,0,0,0-3,1.19L95.25,158.61a182.16,182.16,0,0,0-17.74,53.21q-.84,5-1.39,9.91C81.65,226.41,87.59,231.27,94.71,232.41Z" transform="translate(-34.91 -25.39)"/><path class="cls-3" d="M168.91,123.5c9.5,4.12,18.86,10.44,29.1,9.52L187.7,102.55A19.21,19.21,0,0,0,185.14,97c-1.75-2.32-4.42-3.73-7-5.06-4.4-2.27-8.94-4.58-13.86-5.06a16.08,16.08,0,0,0-1.7,0,181.86,181.86,0,0,0-40.65,33.44A72.12,72.12,0,0,1,168.91,123.5Z" transform="translate(-34.91 -25.39)"/><path class="cls-3" d="M358.29,109.35c-2.67,4.31-8.71,7.25-8.09,12.32l-3.21-.55c-3.44,1.44-8.29.75-10.11,4s1,6.83,3.59,9.39l15.06,15a2.19,2.19,0,0,0,1,.65,2,2,0,0,0,1.77-.85,13.66,13.66,0,0,0,3.42-10.61c-.41-3.71-2.33-7.48-1.16-11,.67-2,2.3-3.67,2.76-5.76a3.8,3.8,0,0,0-1.48-3.64c2.74,1.18,4.55,5.31,7.8,5.92,9.25,1.73,14.63,9.88,16.5,4.82-.75-3.47-7.73-7.44-8.47-10.9,3.67,2,9.66-.24,14.64-1a189,189,0,0,0-42.17-32.34c1.28,1.4,2.55,2.82,3.72,4.31C358.39,94.9,362.14,103.12,358.29,109.35Z" transform="translate(-34.91 -25.39)"/><path class="cls-3" d="M375.29,153.27c-.4,1.62.41,3.29,1.23,4.76,3,5.49,6.52,10.83,11.09,15.15,9.51,9,22.69,12.65,33.93,19.31a72.06,72.06,0,0,1,21.14,19.19,188.49,188.49,0,0,0-40.62-83.86,261.83,261.83,0,0,0-24.85,22.57A6.69,6.69,0,0,0,375.29,153.27Z" transform="translate(-34.91 -25.39)"/><path class="cls-3" d="M338.19,97.91A14.22,14.22,0,0,0,330,87.11c-3.37-1.49-7.27-1.64-10.37-3.64-1-.62-1.92-1.44-3.06-1.38-1.56.07-2.53,1.91-2.24,3.45a7.41,7.41,0,0,0,2.58,3.84c6,5.56,13.73,9.18,19.4,15A7.74,7.74,0,0,0,338.19,97.91Z" transform="translate(-34.91 -25.39)"/><path class="cls-3" d="M241.43,63.82c2.38.4,4.72-.58,7.11-.84,7.93-.88,14.67,6,22.5,7.72,7,1.58,14.12-1.08,21.1-2.61a67,67,0,0,1,13-1.49c-4.49-1.17-9-2.24-13.67-3.09a186.59,186.59,0,0,0-53.24-2.07A4.64,4.64,0,0,0,241.43,63.82Z" transform="translate(-34.91 -25.39)"/><polygon class="cls-1" points="680.61 173.04 676.83 172.98 676.83 276.63 680.61 276.69 680.61 173.04"/><polygon class="cls-1" points="612.1 169.81 603.19 169.67 603.19 381.85 612.1 381.99 612.1 169.81"/><path class="cls-1" d="M730.09,404.89C670.74,397,612.31,395.54,555,402.17V413l175.07,2.72Z" transform="translate(-34.91 -25.39)"/><path class="cls-4" d="M761.55,212.58c-1.32-6.93-7.54-11.77-13.94-10.83s-10.64,7.38-9.34,14.39S745.91,228,752.36,227,762.87,219.52,761.55,212.58Z" transform="translate(-34.91 -25.39)"/><path class="cls-4" d="M739.72,212.17c-1.3-7-7.62-11.89-14.15-10.94s-10.9,7.46-9.61,14.54,7.72,12,14.31,11S741,219.18,739.72,212.17Z" transform="translate(-34.91 -25.39)"/><path class="cls-4" d="M717.46,211.76c-1.29-7.07-7.71-12-14.38-11.06s-11.16,7.53-9.89,14.68,7.8,12.14,14.53,11.09S718.75,218.84,717.46,211.76Z" transform="translate(-34.91 -25.39)"/><path class="cls-4" d="M694.74,211.33c-1.27-7.13-7.79-12.13-14.61-11.16S668.7,207.77,670,215s7.9,12.27,14.77,11.21S696,218.49,694.74,211.33Z" transform="translate(-34.91 -25.39)"/><path class="cls-4" d="M671.56,210.9c-1.25-7.2-7.88-12.25-14.84-11.28s-11.72,7.67-10.49,15,8,12.4,15,11.33A12.69,12.69,0,0,0,671.56,210.9Z" transform="translate(-34.91 -25.39)"/><path class="cls-4" d="M647.9,210.46a13.66,13.66,0,0,0-15.09-11.4A12.9,12.9,0,0,0,622,214.19a13.65,13.65,0,0,0,15.26,11.44A12.91,12.91,0,0,0,647.9,210.46Z" transform="translate(-34.91 -25.39)"/><path class="cls-4" d="M623.75,210a13.84,13.84,0,0,0-15.34-11.52,13.14,13.14,0,0,0-11.12,15.28,13.82,13.82,0,0,0,15.51,11.56A13.15,13.15,0,0,0,623.75,210Z" transform="translate(-34.91 -25.39)"/><path class="cls-4" d="M599.08,209.55a14,14,0,0,0-15.59-11.65A13.39,13.39,0,0,0,572,213.34,14,14,0,0,0,587.81,225,13.38,13.38,0,0,0,599.08,209.55Z" transform="translate(-34.91 -25.39)"/><path class="cls-4" d="M573.89,209.08A14.19,14.19,0,0,0,558,197.31a13.65,13.65,0,0,0-11.8,15.6,14.19,14.19,0,0,0,16,11.82A13.65,13.65,0,0,0,573.89,209.08Z" transform="translate(-34.91 -25.39)"/><path class="cls-4" d="M548.16,208.6A14.39,14.39,0,0,0,532,196.7a13.92,13.92,0,0,0-12.16,15.77,14.38,14.38,0,0,0,16.32,11.95A13.94,13.94,0,0,0,548.16,208.6Z" transform="translate(-34.91 -25.39)"/><path class="cls-5" d="M716.16,46.5,564.28,44.14,522,203q114,13.16,236.41,3.67Z" transform="translate(-34.91 -25.39)"/><rect class="cls-6" x="348.51" y="621.56" width="420.31" height="61.01" transform="matrix(0.99, 0.15, -0.15, 0.99, 72.5, -103.85)"/><path class="cls-1" d="M828.53,356.81c-129.35-54.33-274.88-75.3-430-76.45-21.3-3.79-69.77,324.76-52.91,338.51,20.73,16.9,390.66,73.33,427,69.2C787,686.44,842.73,359.34,828.53,356.81Z" transform="translate(-34.91 -25.39)"/><path class="cls-7" d="M792.07,367.46C678.41,332.54,555,314.85,424.33,310c-34,91.09-48.28,187.52-45.12,288.65C494,631.35,616.84,650.08,747,656.12,772.52,556.68,788.72,460.11,792.07,367.46Z" transform="translate(-34.91 -25.39)"/><rect class="cls-8" y="457.53" width="841.78" height="652.43"/><rect class="cls-9" y="457.67" width="190.6" height="652.43"/><rect class="cls-9" x="430.65" y="1065.49" width="173.46" height="43.88"/><rect class="cls-9" x="430.65" y="457.53" width="173.46" height="43.88"/><rect class="cls-9" x="236.29" y="987.17" width="18.26" height="75.86"/><rect class="cls-9" x="263.59" y="987.17" width="9.13" height="75.86"/><rect class="cls-9" x="279.42" y="987.17" width="9.13" height="75.86"/><rect class="cls-9" x="298.54" y="987.17" width="15.92" height="75.86"/><rect class="cls-9" x="324.26" y="987.17" width="4.78" height="75.86"/><rect class="cls-9" x="340.47" y="987.17" width="8.11" height="75.86"/><rect class="cls-9" x="354.1" y="987.17" width="10.56" height="75.86"/><rect class="cls-9" x="370.86" y="987.17" width="5.28" height="75.86"/><rect class="cls-9" x="383.33" y="987.17" width="9.28" height="75.86"/><path class="cls-9" d="M432,719.18v51.7c0,11.92-6.15,20.18-16.15,20.38-8.46,0-14-6.54-14-16.72V719.18H363v66.31c0,24.41,15,40,36.9,40,14,0,25-6.15,32.1-17.3v15.57h38.82V719.18Zm0,0" transform="translate(-34.91 -25.39)"/><path class="cls-9" d="M552.15,717.64c-14.6,0-25.94,6.16-33.25,17.69V719.18H480.08V823.74H518.9V772c0-11.92,6.54-20.19,17.11-20.38,9,0,15,6.54,15,16.92v55.16h38.82V757.43c0-24.22-15.37-39.79-37.67-39.79Zm0,0" transform="translate(-34.91 -25.39)"/><rect class="cls-9" x="564.15" y="693.79" width="38.82" height="104.56"/><path class="cls-9" d="M448.5,875.22l12.88-24.41a92,92,0,0,0-45.94-12.68c-26.33,0-44.59,13.06-44.59,35,0,35.75,53.43,30,53.43,41.9,0,3.27-3.46,4.81-8.64,4.81-11.54,0-24.8-4.42-37.87-12.88l-11.92,24.41c13.65,9.8,30.76,14.8,49.21,14.8,27.29,0,45.93-13.07,45.93-34.6,0-35.75-54.58-30.56-54.58-42.28,0-3.27,3.07-5,7.88-5,8.26,0,20,3.66,34.21,11Zm0,0" transform="translate(-34.91 -25.39)"/><path class="cls-9" d="M539.47,912.7c-4.62,1.73-8.85,3.07-11.92,3.07-5.38,0-8.84-3.27-8.84-10V870h25.75v-24.8H518.9v-16H480.08v16H465.66V870h14.42v41.7c0,21.73,15,34.6,37.29,34.41,10.57,0,21.71-2.5,29-6.73Zm0,0" transform="translate(-34.91 -25.39)"/><path class="cls-9" d="M605.5,838.51c-35.18,0-58.24,21.14-58.24,53.62,0,32.29,23.06,53.63,58.24,53.63s58-21.34,58-53.63c0-32.48-22.87-53.62-58-53.62Zm0,30.75c11.34,0,18.83,9.42,18.83,23.25,0,14-7.49,23.26-18.83,23.26-11.54,0-19-9.22-19-23.26,0-13.83,7.49-23.25,19-23.25Zm0,0" transform="translate(-34.91 -25.39)"/><path class="cls-9" d="M707.83,856.38V839.85H669V944.41h38.83v-50c0-15.18,12.88-23.64,32.86-21.14v-35c-14.22,0-25.56,6.53-32.86,18.06Zm0,0" transform="translate(-34.91 -25.39)"/><path class="cls-10" d="M585.43,675.74l33-33,33,33-33,33Zm0,0" transform="translate(-34.91 -25.39)"/></svg>