<svg id="OBJECTS" xmlns="http://www.w3.org/2000/svg" viewBox="0 0 492.77 277.96"><defs><style>.cls-1{fill:#b81363;}.cls-2{fill:#cd3889;}.cls-3{fill:#97004e;}.cls-4{fill:#db9022;}.cls-5{fill:#222221;}.cls-6{fill:#c6c6c6;}.cls-7{fill:#6c0044;}.cls-14,.cls-8{fill:#fff;}.cls-9{fill:#22152c;}.cls-10{fill:#c4c4c4;}.cls-11{fill:#481c3a;}.cls-12{fill:#532648;}.cls-13{fill:#21002c;}.cls-14{fill-rule:evenodd;}</style></defs><path class="cls-1" d="M13.76,132.47c0-8.13,3.61-16,9.87-19.51a16.18,16.18,0,0,1,7.84-2.1l278.45-1.21c42.26-.08,56.15,0,65.66,26.88H367c-3.78,0-6.84,3.59-6.84,8v67.08c0,6.57,4.54,11.9,10.14,11.9h14.19c.73,1.47,82.46,16.31,82.46,16.31,8.74,1.21,15.83,8.72,17.93,18.72a135.44,135.44,0,0,1,2.83,23.3v7l0,6.55v3l0,6.56v3.06l0,6.56.07,15.92a16,16,0,0,1-1.14,6,12.94,12.94,0,0,1-7.16,7.33l-16.76,6.21-2.79,1-137.14.43-36.27.3-42.37.13-222,.46c-4.71,0-8.53-4.46-8.53-10Z" transform="translate(-3.78 -109.65)"/><path class="cls-2" d="M14.58,261.33c-7.74-.38-7.78,27.11-.15,27.15C15.19,283.38,15.29,266.42,14.58,261.33Z" transform="translate(-3.78 -109.65)"/><path class="cls-3" d="M264.94,324.52a11.11,11.11,0,0,0,11.11,11.1h12.24a12,12,0,0,0,11.92-10.7c3.29-30.62,25.58-44.85,41.29-49.45a10,10,0,0,0,7.21-9.63V151a14.42,14.42,0,0,0-14.41-14.42h-54a15.34,15.34,0,0,0-15.33,15.33Z" transform="translate(-3.78 -109.65)"/><path class="cls-3" d="M55.1,334.24a56.17,56.17,0,0,0,2.75,17.3h2.64l97.6-.42,3.28-1,3-.93a53.38,53.38,0,0,0,2-13.47,11.56,11.56,0,0,0,.06-1.44,55.64,55.64,0,0,0-111.27,0Z" transform="translate(-3.78 -109.65)"/><path class="cls-3" d="M336.63,334.24a53.76,53.76,0,0,0,.59,8.06,52.64,52.64,0,0,0,2.16,9.24H342l97.59-.42,3.29-1,3-.93a53.38,53.38,0,0,0,2-13.47,11.56,11.56,0,0,0,.06-1.44,55.64,55.64,0,0,0-111.27,0Z" transform="translate(-3.78 -109.65)"/><path class="cls-4" d="M349.87,220.76a9.14,9.14,0,0,1-9.13-9.13A9.15,9.15,0,0,0,349.87,220.76Z" transform="translate(-3.78 -109.65)"/><path class="cls-3" d="M13.76,342.43l358.83-.12h4.08l90.1-6.65,19.69-1.42v2.29a13,13,0,0,1-7.16,7.33l-14.22,5.31-2.53.9-2.79,1-83.09.43h-2.24l-352.14,1c-4.71,0-8.53-4.47-8.53-10Z" transform="translate(-3.78 -109.65)"/><path class="cls-5" d="M342.75,339.8v11.74l97.59-.42,3.29-1V340a50.23,50.23,0,0,0-50.23-50.2h-.62A50,50,0,0,0,342.75,339.8Z" transform="translate(-3.78 -109.65)"/><path class="cls-3" d="M385.92,259.51c0,10,63.55,18.4,84.92,18.31,9.22,0,15.05-1.46,17.38-4,3.08-3.35.95-8.55.92-14.25s1.95-11-1-14.36c-2.33-2.58-8.07-3.77-17.42-3.73C449.31,241.57,385.87,249.47,385.92,259.51Z" transform="translate(-3.78 -109.65)"/><path class="cls-6" d="M488,245.18c7.3-.4,7.32,28.61.13,28.65C487.37,268.46,487.29,250.56,488,245.18Z" transform="translate(-3.78 -109.65)"/><path class="cls-3" d="M464,329.78a8.89,8.89,0,0,0,8.89,8.89h14.75a8.89,8.89,0,0,0,8.89-8.89h0a8.89,8.89,0,0,0-8.89-8.89H472.91a8.89,8.89,0,0,0-8.89,8.89Z" transform="translate(-3.78 -109.65)"/><path class="cls-3" d="M31.41,333.22c0,4.91-3.38,8.89-7.55,8.89H11.33c-4.17,0-7.55-4-7.55-8.89h0c0-4.91,3.38-8.89,7.55-8.89H23.86c4.17,0,7.55,4,7.55,8.89Z" transform="translate(-3.78 -109.65)"/><path class="cls-3" d="M68.08,123.43H338.45c1.26,0,2.29,1.57,2.29,3.51s-1,3.51-2.29,3.51H68.08Z" transform="translate(-3.78 -109.65)"/><path class="cls-3" d="M30.8,123.43H213.24v7H30.8c-1.32,0-2.4-1.57-2.4-3.51S29.48,123.43,30.8,123.43Z" transform="translate(-3.78 -109.65)"/><path class="cls-7" d="M278.55,239c0,1.37,6.53,2.48,14.59,2.48s14.58-1.11,14.58-2.48-6.53-2.49-14.58-2.49S278.55,237.65,278.55,239Z" transform="translate(-3.78 -109.65)"/><path class="cls-3" d="M467.4,292.13a3.3,3.3,0,0,0,3.29,3.28h17.1l0-6.57H470.69A3.31,3.31,0,0,0,467.4,292.13Z" transform="translate(-3.78 -109.65)"/><path class="cls-3" d="M467.4,301.73a3.29,3.29,0,0,0,3.29,3.26h17.15l0-6.54H470.69A3.29,3.29,0,0,0,467.4,301.73Z" transform="translate(-3.78 -109.65)"/><path class="cls-3" d="M467.4,311.31a3.29,3.29,0,0,0,3.29,3.28h17.18l0-6.54H470.69A3.29,3.29,0,0,0,467.4,311.31Z" transform="translate(-3.78 -109.65)"/><path class="cls-5" d="M60.28,339.41v13.12l40-.13,60.87-.17V339.59a50.22,50.22,0,0,0-50.26-50.22h-.6A50.07,50.07,0,0,0,60.28,339.41Z" transform="translate(-3.78 -109.65)"/><path class="cls-8" d="M129,341.8a18.25,18.25,0,1,1-18.25-18.25A18.24,18.24,0,0,1,129,341.8Z" transform="translate(-3.78 -109.65)"/><path class="cls-9" d="M64.92,341.8A45.81,45.81,0,1,0,110.73,296,45.82,45.82,0,0,0,64.92,341.8Zm14.7,0a31.12,31.12,0,1,1,31.11,31.11A31.11,31.11,0,0,1,79.62,341.8Z" transform="translate(-3.78 -109.65)"/><path class="cls-10" d="M110.73,309.61a32.19,32.19,0,1,0,32.2,32.19A32.19,32.19,0,0,0,110.73,309.61Zm9.84,47a18.08,18.08,0,0,1-6.23,2.6,17.75,17.75,0,0,1-7.21,0,17.71,17.71,0,0,1-6.22-2.6,18.12,18.12,0,0,1-5.08-5.13A18,18,0,0,1,93,341.8a19.19,19.19,0,0,1,.39-3.73,17.79,17.79,0,0,1,32.2-6.1,18.25,18.25,0,0,1,3,9.83,20,20,0,0,1-.34,3.49,18.14,18.14,0,0,1-7.61,11.32Zm1.92-31.78a20.55,20.55,0,0,0-8.15-3.36v-8.73a28.92,28.92,0,0,1,14.31,5.93Zm-15.36-3.36A20.61,20.61,0,0,0,99,324.83l-6.16-6.16a28.85,28.85,0,0,1,14.31-5.93Zm-13.27,8.44a20.81,20.81,0,0,0-3.44,8.16H81.68a29.32,29.32,0,0,1,6-14.33Zm-3.47,15.38a20.35,20.35,0,0,0,3.37,8.26l-6.16,6.17a28.88,28.88,0,0,1-5.93-14.43Zm8.45,13.38a20.49,20.49,0,0,0,8.29,3.45v8.74a29,29,0,0,1-14.45-6Zm15.5,3.45a20.45,20.45,0,0,0,8.28-3.45l6.18,6.17a29.07,29.07,0,0,1-14.46,6Zm13.36-8.57a20.37,20.37,0,0,0,3.38-8.26h8.74a29,29,0,0,1-6,14.43ZM131,338.07a20.65,20.65,0,0,0-3.43-8.16l6.16-6.17a29.13,29.13,0,0,1,6,14.33Z" transform="translate(-3.78 -109.65)"/><path class="cls-8" d="M411.44,341.8a18.25,18.25,0,1,1-18.25-18.25A18.24,18.24,0,0,1,411.44,341.8Z" transform="translate(-3.78 -109.65)"/><path class="cls-9" d="M347.38,341.8A45.81,45.81,0,1,0,393.19,296,45.81,45.81,0,0,0,347.38,341.8Zm14.69,0a31.12,31.12,0,1,1,31.12,31.11A31.11,31.11,0,0,1,362.07,341.8Z" transform="translate(-3.78 -109.65)"/><path class="cls-10" d="M393.19,309.61a32.19,32.19,0,1,0,32.19,32.19A32.19,32.19,0,0,0,393.19,309.61Zm9.84,47a18.13,18.13,0,0,1-6.24,2.6,17.7,17.7,0,0,1-13.42-2.6,18.15,18.15,0,0,1-5.09-5.13,18,18,0,0,1-2.88-9.68,18.44,18.44,0,0,1,.4-3.73,17.51,17.51,0,0,1,2.58-6.1,17.73,17.73,0,0,1,24.5-5.06A17.6,17.6,0,0,1,408,332a17.3,17.3,0,0,1,2.57,6.1,17.76,17.76,0,0,1,.41,3.73,19.12,19.12,0,0,1-.34,3.49,18.18,18.18,0,0,1-7.6,11.32Zm1.91-31.78a20.49,20.49,0,0,0-8.15-3.36v-8.73a28.92,28.92,0,0,1,14.32,5.93Zm-15.36-3.36a20.68,20.68,0,0,0-8.15,3.36l-6.16-6.16a28.92,28.92,0,0,1,14.31-5.93Zm-13.27,8.44a20.65,20.65,0,0,0-3.43,8.16h-8.74a29.13,29.13,0,0,1,6-14.33Zm-3.47,15.38a20.37,20.37,0,0,0,3.38,8.26l-6.17,6.17a29,29,0,0,1-5.93-14.43Zm8.46,13.38a20.39,20.39,0,0,0,8.28,3.45v8.74a28.93,28.93,0,0,1-14.44-6Zm15.49,3.45a20.39,20.39,0,0,0,8.28-3.45l6.19,6.17a29.15,29.15,0,0,1-14.47,6Zm13.37-8.57a20.49,20.49,0,0,0,3.37-8.26h8.74a29.09,29.09,0,0,1-5.95,14.43Zm3.33-15.48a20.65,20.65,0,0,0-3.43-8.16l6.17-6.17a29.32,29.32,0,0,1,6,14.33Z" transform="translate(-3.78 -109.65)"/><path class="cls-6" d="M370.44,220.76a9.15,9.15,0,0,1-9.13-9.13V144.55a5.23,5.23,0,0,1,5.23-5.22h8.17c2.27,27.46,5.15,50.7,7.46,80.19Z" transform="translate(-3.78 -109.65)"/><path class="cls-6" d="M366.21,139.33h8.17c.1,1.28.21,3.13.32,4.39l-8.49-.07a.9.9,0,0,0-.91.9v65.7c0,2.59,1.14,5.21,4.62,5.21l11.57-.08c.12,1.38.23,2.73.35,4.14l-11.73,1.24a9.15,9.15,0,0,1-9.13-9.13V144.55A5.23,5.23,0,0,1,366.21,139.33Z" transform="translate(-3.78 -109.65)"/><rect class="cls-6" x="270.19" y="34.08" width="66.99" height="72.64" rx="10.23"/><path class="cls-6" d="M271.82,206.14V154a12.39,12.39,0,0,1,12.38-12.38h46.54A12.39,12.39,0,0,1,343.12,154v52.19a12.39,12.39,0,0,1-12.38,12.38H284.2A12.39,12.39,0,0,1,271.82,206.14Zm12.38-60.26a8.08,8.08,0,0,0-8.07,8.07v52.19a8.09,8.09,0,0,0,8.07,8.07h46.54a8.09,8.09,0,0,0,8.07-8.07V154a8.08,8.08,0,0,0-8.07-8.07Z" transform="translate(-3.78 -109.65)"/><path class="cls-3" d="M365.2,136h10.85a4.22,4.22,0,0,1-.88,5.23h-10a2.79,2.79,0,0,0-2.84,2.71v68.32a6.86,6.86,0,0,0,7,6.68l12.47.1c-.07-.31,3.64,1.27,5.41,5.39l-17.88-.26c-6.89,0-12.5-5.34-12.5-11.91V143.9A8.15,8.15,0,0,1,365.2,136Z" transform="translate(-3.78 -109.65)"/><path class="cls-11" d="M337.59,219.71a2.84,2.84,0,0,0,2.84,2.84h9.15a2.87,2.87,0,0,0,2.87-2.87V183.82a4.31,4.31,0,0,0-4.31-4.31h-6.56a4,4,0,0,0-4,4Z" transform="translate(-3.78 -109.65)"/><path class="cls-12" d="M364.05,238.65a2.62,2.62,0,0,0,1.18-.28,2.58,2.58,0,0,0,1.1-3.47l-17.12-33.12a2.57,2.57,0,1,0-4.56,2.36l17.12,33.12A2.54,2.54,0,0,0,364.05,238.65Z" transform="translate(-3.78 -109.65)"/><path class="cls-13" d="M91.84,179.71v20c0,4.61-2.37,7.8-6.24,7.87-3.26,0-5.42-2.52-5.42-6.46V179.71h-15v25.63c0,9.43,5.79,15.44,14.26,15.44a14,14,0,0,0,12.4-6.68v6h15V179.71Zm0,0" transform="translate(-3.78 -109.65)"/><path class="cls-13" d="M138.26,179.12A14.38,14.38,0,0,0,125.42,186v-6.24h-15v40.41h15v-20c0-4.61,2.52-7.8,6.61-7.88,3.49,0,5.79,2.53,5.79,6.54v21.32h15V194.49c0-9.36-5.94-15.37-14.56-15.37Zm0,0" transform="translate(-3.78 -109.65)"/><rect class="cls-13" x="152.61" y="70.07" width="15" height="40.41"/><path class="cls-13" d="M98.21,240l5-9.43a35.44,35.44,0,0,0-17.75-4.9c-10.17,0-17.23,5-17.23,13.51,0,13.82,20.65,11.59,20.65,16.2,0,1.26-1.34,1.85-3.34,1.85-4.46,0-9.58-1.71-14.63-5l-4.61,9.43a32.3,32.3,0,0,0,19,5.72c10.55,0,17.76-5.05,17.76-13.37,0-13.82-21.1-11.81-21.1-16.34,0-1.26,1.19-1.93,3-1.93,3.19,0,7.72,1.41,13.22,4.23Zm0,0" transform="translate(-3.78 -109.65)"/><path class="cls-13" d="M133.36,254.5a15.15,15.15,0,0,1-4.6,1.18c-2.08,0-3.42-1.26-3.42-3.86V238h9.95v-9.59h-9.87v-6.18h-15v6.18h-5.57V238h5.57v16.11c0,8.4,5.8,13.37,14.41,13.3a23.89,23.89,0,0,0,11.22-2.6Zm0,0" transform="translate(-3.78 -109.65)"/><path class="cls-13" d="M158.88,225.82c-13.59,0-22.51,8.18-22.51,20.73s8.92,20.72,22.51,20.72,22.43-8.24,22.43-20.72-8.84-20.73-22.43-20.73Zm0,11.89c4.38,0,7.28,3.64,7.28,9s-2.9,9-7.28,9-7.35-3.56-7.35-9,2.89-9,7.35-9Zm0,0" transform="translate(-3.78 -109.65)"/><path class="cls-13" d="M198.43,232.73v-6.39h-15v40.41h15V247.44c0-5.87,5-9.14,12.7-8.17V225.75a14.46,14.46,0,0,0-12.7,7Zm0,0" transform="translate(-3.78 -109.65)"/><path class="cls-14" d="M151.12,162.93l12.77-12.77,12.77,12.77L163.9,175.7Zm0,0" transform="translate(-3.78 -109.65)"/></svg>