<svg xmlns="http://www.w3.org/2000/svg" viewBox="0 0 372.9 313.69"><defs><style>.cls-1{isolation:isolate;}.cls-2{fill:#b81363;}.cls-3,.cls-4{fill:#97004e;}.cls-10,.cls-4,.cls-7{fill-rule:evenodd;}.cls-5{fill:#c7c7c7;}.cls-6,.cls-7{fill:#aaa;}.cls-8{fill:#d4612b;}.cls-10,.cls-9{fill:#b94425;}.cls-11{fill:#98004e;}.cls-12{fill:#d1a98b;}.cls-13{fill:#22152c;}.cls-14{fill:#4e556c;opacity:0.55;}.cls-14,.cls-18,.cls-21{mix-blend-mode:multiply;}.cls-15{fill:#454449;}.cls-16{fill:#3f475c;}.cls-17{fill:#391d48;}.cls-18,.cls-22{fill:#bfa63b;}.cls-18,.cls-21{opacity:0.42;}.cls-19{fill:#d1a88b;}.cls-20{fill:#b91363;}.cls-23{fill:#e0bea3;}</style></defs><g class="cls-1"><g id="OBJECTS"><rect class="cls-2" x="183.88" y="126.98" width="188.78" height="146.32"/><rect class="cls-3" x="183.88" y="127.01" width="42.75" height="146.32"/><rect class="cls-3" x="280.46" y="263.32" width="38.9" height="9.84"/><rect class="cls-3" x="280.46" y="126.98" width="38.9" height="9.84"/><rect class="cls-3" x="236.87" y="245.76" width="4.1" height="17.01"/><rect class="cls-3" x="242.99" y="245.76" width="2.05" height="17.01"/><rect class="cls-3" x="246.54" y="245.76" width="2.05" height="17.01"/><rect class="cls-3" x="250.83" y="245.76" width="3.57" height="17.01"/><rect class="cls-3" x="256.6" y="245.76" width="1.07" height="17.01"/><rect class="cls-3" x="260.23" y="245.76" width="1.82" height="17.01"/><rect class="cls-3" x="263.29" y="245.76" width="2.37" height="17.01"/><rect class="cls-3" x="267.05" y="245.76" width="1.18" height="17.01"/><rect class="cls-3" x="269.85" y="245.76" width="2.08" height="17.01"/><path class="cls-3" d="M329.46,271.7v11.59c0,2.67-1.38,4.53-3.62,4.57-1.9,0-3.15-1.47-3.15-3.75V271.7H314v14.87c0,5.47,3.37,9,8.28,9a8.14,8.14,0,0,0,7.2-3.88v3.49h8.71V271.7Zm0,0" transform="translate(-56.52 -91.74)"/><path class="cls-3" d="M356.4,271.35a8.36,8.36,0,0,0-7.46,4V271.7h-8.7v23.44h8.7V283.55c0-2.67,1.47-4.53,3.84-4.57,2,0,3.36,1.47,3.36,3.79v12.37h8.71V280.27c0-5.43-3.45-8.92-8.45-8.92Zm0,0" transform="translate(-56.52 -91.74)"/><rect class="cls-3" x="310.4" y="179.96" width="8.71" height="23.45"/><path class="cls-3" d="M333.15,306.69l2.89-5.47a20.57,20.57,0,0,0-10.3-2.85c-5.91,0-10,2.93-10,7.85,0,8,12,6.72,12,9.39,0,.73-.77,1.08-1.94,1.08a16.12,16.12,0,0,1-8.49-2.89l-2.67,5.48a18.82,18.82,0,0,0,11,3.31c6.12,0,10.3-2.93,10.3-7.75,0-8-12.24-6.86-12.24-9.49,0-.73.69-1.12,1.77-1.12,1.85,0,4.48.82,7.67,2.46Zm0,0" transform="translate(-56.52 -91.74)"/><path class="cls-3" d="M353.55,315.1a8.84,8.84,0,0,1-2.67.68c-1.21,0-2-.73-2-2.24v-8h5.77V300h-5.73v-3.58h-8.7V300H337v5.57h3.24v9.35c0,4.87,3.36,7.76,8.36,7.71a13.94,13.94,0,0,0,6.51-1.5Zm0,0" transform="translate(-56.52 -91.74)"/><path class="cls-3" d="M368.36,298.46c-7.89,0-13.06,4.74-13.06,12s5.17,12,13.06,12,13-4.79,13-12-5.13-12-13-12Zm0,6.89c2.54,0,4.23,2.12,4.23,5.22s-1.69,5.21-4.23,5.21-4.27-2.06-4.27-5.21,1.69-5.22,4.27-5.22Zm0,0" transform="translate(-56.52 -91.74)"/><path class="cls-3" d="M391.31,302.47v-3.71H382.6v23.45h8.71V311c0-3.41,2.89-5.3,7.37-4.74v-7.85a8.39,8.39,0,0,0-7.37,4.06Zm0,0" transform="translate(-56.52 -91.74)"/><path class="cls-4" d="M363.86,262l7.41-7.41,7.41,7.42-7.41,7.41Zm0,0" transform="translate(-56.52 -91.74)"/><rect class="cls-5" x="293.22" y="65.61" width="79.69" height="61.76"/><rect class="cls-6" x="293.22" y="65.63" width="18.04" height="61.76"/><rect class="cls-6" x="333.99" y="123.17" width="16.42" height="4.15"/><rect class="cls-6" x="333.99" y="65.61" width="16.42" height="4.15"/><rect class="cls-6" x="315.59" y="115.75" width="1.73" height="7.18"/><rect class="cls-6" x="318.17" y="115.75" width="0.86" height="7.18"/><rect class="cls-6" x="319.67" y="115.75" width="0.86" height="7.18"/><rect class="cls-6" x="321.48" y="115.75" width="1.51" height="7.18"/><rect class="cls-6" x="323.91" y="115.75" width="0.45" height="7.18"/><rect class="cls-6" x="325.45" y="115.75" width="0.77" height="7.18"/><rect class="cls-6" x="326.74" y="115.75" width="1" height="7.18"/><rect class="cls-6" x="328.33" y="115.75" width="0.5" height="7.18"/><rect class="cls-6" x="329.51" y="115.75" width="0.88" height="7.18"/><path class="cls-6" d="M387.33,179.71v4.9c0,1.13-.58,1.91-1.53,1.93s-1.33-.62-1.33-1.59v-5.24H380.8V186c0,2.31,1.42,3.79,3.49,3.79a3.45,3.45,0,0,0,3-1.64v1.47H391v-9.9Zm0,0" transform="translate(-56.52 -91.74)"/><path class="cls-6" d="M398.7,179.57a3.55,3.55,0,0,0-3.15,1.67v-1.53h-3.67v9.9h3.67v-4.89a1.7,1.7,0,0,1,1.62-1.93,1.42,1.42,0,0,1,1.42,1.6v5.22h3.68v-6.27a3.47,3.47,0,0,0-3.57-3.77Zm0,0" transform="translate(-56.52 -91.74)"/><rect class="cls-6" x="346.62" y="87.98" width="3.68" height="9.9"/><path class="cls-6" d="M388.89,194.49l1.22-2.31a8.66,8.66,0,0,0-4.35-1.21c-2.49,0-4.22,1.24-4.22,3.32,0,3.38,5.06,2.83,5.06,4,0,.31-.33.46-.82.46a6.85,6.85,0,0,1-3.59-1.22l-1.12,2.31a7.89,7.89,0,0,0,4.65,1.4c2.59,0,4.35-1.24,4.35-3.28,0-3.38-5.17-2.89-5.17-4,0-.31.3-.47.75-.47a7.72,7.72,0,0,1,3.24,1Zm0,0" transform="translate(-56.52 -91.74)"/><path class="cls-6" d="M397.5,198a3.53,3.53,0,0,1-1.13.29c-.51,0-.83-.3-.83-.94V194H398v-2.34h-2.42v-1.52h-3.67v1.52h-1.37V194h1.37v3.95c0,2.06,1.42,3.28,3.53,3.26a5.88,5.88,0,0,0,2.75-.64Zm0,0" transform="translate(-56.52 -91.74)"/><path class="cls-6" d="M403.75,191c-3.33,0-5.51,2-5.51,5.08s2.18,5.07,5.51,5.07,5.5-2,5.5-5.07-2.17-5.08-5.5-5.08Zm0,2.91c1.07,0,1.78.89,1.78,2.2s-.71,2.2-1.78,2.2-1.8-.87-1.8-2.2.71-2.2,1.8-2.2Zm0,0" transform="translate(-56.52 -91.74)"/><path class="cls-6" d="M413.44,192.7v-1.56h-3.68V201h3.68v-4.73c0-1.44,1.22-2.24,3.11-2V191a3.54,3.54,0,0,0-3.11,1.71Zm0,0" transform="translate(-56.52 -91.74)"/><path class="cls-7" d="M401.85,175.6l3.13-3.13,3.13,3.13L405,178.73Zm0,0" transform="translate(-56.52 -91.74)"/><rect class="cls-8" x="170.7" y="31.32" width="123.93" height="96.05"/><rect class="cls-9" x="170.7" y="31.34" width="28.06" height="96.05"/><rect class="cls-9" x="234.1" y="120.82" width="25.54" height="6.46"/><rect class="cls-9" x="234.1" y="31.32" width="25.54" height="6.46"/><rect class="cls-9" x="205.48" y="109.29" width="2.69" height="11.17"/><rect class="cls-9" x="209.5" y="109.29" width="1.34" height="11.17"/><rect class="cls-9" x="211.83" y="109.29" width="1.34" height="11.17"/><rect class="cls-9" x="214.65" y="109.29" width="2.34" height="11.17"/><rect class="cls-9" x="218.43" y="109.29" width="0.7" height="11.17"/><rect class="cls-9" x="220.82" y="109.29" width="1.19" height="11.17"/><rect class="cls-9" x="222.83" y="109.29" width="1.55" height="11.17"/><rect class="cls-9" x="225.29" y="109.29" width="0.78" height="11.17"/><rect class="cls-9" x="227.13" y="109.29" width="1.37" height="11.17"/><path class="cls-9" d="M285.68,157.84v7.61c0,1.75-.91,3-2.38,3-1.24,0-2.06-1-2.06-2.47v-8.14h-5.72v9.76c0,3.59,2.21,5.88,5.43,5.88a5.35,5.35,0,0,0,4.73-2.54v2.29h5.71V157.84Zm0,0" transform="translate(-56.52 -91.74)"/><path class="cls-9" d="M303.36,157.61a5.47,5.47,0,0,0-4.89,2.6v-2.37h-5.72v15.39h5.72v-7.61c0-1.76,1-3,2.52-3a2.2,2.2,0,0,1,2.2,2.49v8.12h5.72v-9.76c0-3.57-2.26-5.86-5.55-5.86Zm0,0" transform="translate(-56.52 -91.74)"/><rect class="cls-9" x="253.75" y="66.1" width="5.72" height="15.39"/><path class="cls-9" d="M288.1,180.81l1.9-3.6a13.58,13.58,0,0,0-6.76-1.86c-3.88,0-6.57,1.92-6.57,5.15,0,5.26,7.87,4.41,7.87,6.16,0,.49-.51.71-1.27.71a10.66,10.66,0,0,1-5.58-1.89l-1.75,3.59a12.32,12.32,0,0,0,7.24,2.18c4,0,6.76-1.93,6.76-5.09,0-5.27-8-4.5-8-6.23,0-.48.45-.74,1.16-.74a12.09,12.09,0,0,1,5,1.62Zm0,0" transform="translate(-56.52 -91.74)"/><path class="cls-9" d="M301.5,186.33a5.89,5.89,0,0,1-1.76.45c-.79,0-1.3-.48-1.3-1.47V180h3.79v-3.65h-3.76V174h-5.72v2.35h-2.12V180h2.12v6.14c0,3.2,2.21,5.1,5.49,5.07a9.07,9.07,0,0,0,4.27-1Zm0,0" transform="translate(-56.52 -91.74)"/><path class="cls-9" d="M311.22,175.4c-5.18,0-8.58,3.12-8.58,7.9s3.4,7.89,8.58,7.89,8.54-3.14,8.54-7.89-3.37-7.9-8.54-7.9Zm0,4.53c1.67,0,2.77,1.39,2.77,3.42s-1.1,3.43-2.77,3.43-2.8-1.36-2.8-3.43,1.1-3.42,2.8-3.42Zm0,0" transform="translate(-56.52 -91.74)"/><path class="cls-9" d="M326.28,178V175.6h-5.71V191h5.71v-7.35c0-2.24,1.9-3.48,4.84-3.12v-5.15a5.54,5.54,0,0,0-4.84,2.66Zm0,0" transform="translate(-56.52 -91.74)"/><path class="cls-10" d="M308.26,151.44l4.87-4.86,4.86,4.86-4.86,4.87Zm0,0" transform="translate(-56.52 -91.74)"/><path class="cls-11" d="M146.3,244.15a5.93,5.93,0,0,1-5.4-3.35l-23.31-48.43a8.91,8.91,0,0,1-.88-4.28c.22-5,5.47-15,16.5-9.56a13.88,13.88,0,0,1,5.08,5.07l16.5,34.26a5.94,5.94,0,0,0,4.6,3.09l51,4-.26,18.65Z" transform="translate(-56.52 -91.74)"/><path class="cls-12" d="M212.55,224.79a13.52,13.52,0,0,0-2.13.15l-.26,18.65a13.36,13.36,0,0,0,2.12.21c6.29.09,11.45-4.1,11.52-9.35S218.84,224.88,212.55,224.79Z" transform="translate(-56.52 -91.74)"/><path class="cls-13" d="M224.5,266.05h-5.11V247.3c0-3.81-1.91-8.28-6.26-8.28h-9.87v-5.71h9.87c6.27,0,11.37,4.67,11.37,10.4Z" transform="translate(-56.52 -91.74)"/><path class="cls-13" d="M142.34,378.83V403.5h44.58v-.11a13.41,13.41,0,0,0-8.88-12.9c-6.33-2.2-14.63-6.44-20.23-14.41Z" transform="translate(-56.52 -91.74)"/><path class="cls-13" d="M70,357.18,56.52,376.84,92.22,403l.06-.09a13.41,13.41,0,0,0,.19-15.66c-3.91-5.45-8.24-13.69-8.22-23.43Z" transform="translate(-56.52 -91.74)"/><path class="cls-14" d="M70.61,357.45l-5.59,7-.63.92,22.37,11.44a35.87,35.87,0,0,1-2.51-13Z" transform="translate(-56.52 -91.74)"/><path class="cls-14" d="M157.81,376.08l-15.47,2.75.11,8.6,25.64-1.72A36,36,0,0,1,157.81,376.08Z" transform="translate(-56.52 -91.74)"/><polygon class="cls-15" points="13.64 265.78 8.63 273.08 14.22 266.06 13.64 265.78"/><polygon class="cls-16" points="7.94 273.95 8 273.99 8.63 273.08 7.94 273.95"/><polygon class="cls-17" points="43.43 180 38.32 231.36 7.94 268.64 29.09 280.93 62.55 235.97 71.87 189.21 43.43 180"/><path class="cls-18" d="M122.33,311.38,128.39,281,100,271.73,97,301.09C106.61,302.15,115.16,305,122.33,311.38Z" transform="translate(-56.52 -91.74)"/><path class="cls-17" d="M99.27,253s-20.14,25.94,6.48,35.84c20.26,7.53,36.67,37,36,40.06L139,379.22l25.49,3,6.19-57.29c1.35-5.32-24.83-50.72-29.4-65.45C141.24,259.48,102.74,255.74,99.27,253Z" transform="translate(-56.52 -91.74)"/><path class="cls-18" d="M99,253.35a42.56,42.56,0,0,0-5.67,11c15,8.06,41.35,6.87,53.69,6.84a53.67,53.67,0,0,1-5.68-11.47C135.51,259.11,104.77,255.93,99,253.35Z" transform="translate(-56.52 -91.74)"/><polygon class="cls-19" points="57.04 68.05 56.24 96.85 71.28 97.15 72.51 68.28 57.04 68.05"/><path class="cls-20" d="M142.63,193a24.58,24.58,0,0,0-14.29-17.77c-4.48,1.73-9.68,2.23-13.85-.45-.36-.24-.69-.51-1-.78a24.5,24.5,0,0,0-18.12,19.65c-5.28,30.32-3.7,60.55-3.15,68.51h53.29A240.16,240.16,0,0,0,142.63,193Z" transform="translate(-56.52 -91.74)"/><g class="cls-21"><path class="cls-22" d="M145.29,226.29,128.79,192a13.88,13.88,0,0,0-5.08-5.07c-11-5.4-16.28,4.6-16.5,9.55a9.06,9.06,0,0,0,.87,4.29l18,49.26a5.93,5.93,0,0,0,5.4,3.35l14.8-.91c.54-8.92.54-17.13.26-24.68A5.91,5.91,0,0,1,145.29,226.29Z" transform="translate(-56.52 -91.74)"/></g><path class="cls-20" d="M139.28,248.16a5.91,5.91,0,0,1-5.39-3.35l-23.32-48.43a8.81,8.81,0,0,1-.87-4.28c.21-5,5.46-15,16.5-9.56a14,14,0,0,1,5.08,5.07l16.49,34.26a6,6,0,0,0,4.6,3.09l51,4-.27,18.66Z" transform="translate(-56.52 -91.74)"/><path class="cls-23" d="M205.53,228.79a13.4,13.4,0,0,0-2.12.15l-.27,18.66a14.78,14.78,0,0,0,2.12.21c6.29.08,11.45-4.1,11.52-9.35S211.82,228.88,205.53,228.79Z" transform="translate(-56.52 -91.74)"/><path class="cls-23" d="M104.12,108.82v14.85c-.25,0-.5-.08-.75-.08a9.95,9.95,0,0,0,0,19.89c.25,0,.5-.06.75-.08v3.43a23.27,23.27,0,0,0,23.27,23.27h.47a23.27,23.27,0,0,0,23.27-23.27v-38Z" transform="translate(-56.52 -91.74)"/><path class="cls-13" d="M94.88,108.82s2.51-20.89,26.06-16.47,35.41,5,38.63,1c0,0,6.78,22.1-19.72,22.1s-25.28-3.21-27.69,2-1,13.86-1,13.86h-6s0-9.34-8.81-4.67C96.31,126.65,94.07,120.47,94.88,108.82Z" transform="translate(-56.52 -91.74)"/><path class="cls-13" d="M222.52,241.22a4.1,4.1,0,0,1-.19-1.81,20.8,20.8,0,0,0-4.77-3.84,6.46,6.46,0,0,1-.58-.38V372.66h7.52V244.82A12.68,12.68,0,0,1,222.52,241.22Z" transform="translate(-56.52 -91.74)"/><rect class="cls-17" x="167.98" y="273.08" width="204.68" height="20.83"/><circle class="cls-13" cx="199.79" cy="294.92" r="18.69"/><circle class="cls-17" cx="199.79" cy="294.92" r="10.48"/><circle class="cls-13" cx="341.65" cy="295" r="18.69"/><circle class="cls-17" cx="341.65" cy="295" r="10.48"/></g></g></svg>