<svg id="OBJECTS" xmlns="http://www.w3.org/2000/svg" viewBox="0 0 477.75 313.18"><defs><style>.cls-1{fill:#d4612b;}.cls-2,.cls-3{fill:#b94425;}.cls-3,.cls-6,.cls-9{fill-rule:evenodd;}.cls-4{fill:#b81363;}.cls-5,.cls-6{fill:#97004e;}.cls-7{fill:#c7c7c7;}.cls-8,.cls-9{fill:#aaa;}</style></defs><rect class="cls-1" x="52.91" width="208.64" height="161.71"/><rect class="cls-2" x="52.91" y="0.03" width="47.24" height="161.71"/><rect class="cls-2" x="159.65" y="150.68" width="42.99" height="10.87"/><rect class="cls-2" x="159.65" width="42.99" height="10.87"/><rect class="cls-2" x="111.48" y="131.27" width="4.53" height="18.8"/><rect class="cls-2" x="118.25" y="131.27" width="2.26" height="18.8"/><rect class="cls-2" x="122.17" y="131.27" width="2.26" height="18.8"/><rect class="cls-2" x="126.91" y="131.27" width="3.95" height="18.8"/><rect class="cls-2" x="133.28" y="131.27" width="1.19" height="18.8"/><rect class="cls-2" x="137.3" y="131.27" width="2.01" height="18.8"/><rect class="cls-2" x="140.68" y="131.27" width="2.62" height="18.8"/><rect class="cls-2" x="144.83" y="131.27" width="1.31" height="18.8"/><rect class="cls-2" x="147.92" y="131.27" width="2.3" height="18.8"/><path class="cls-2" d="M162.73,151.36v12.81c0,3-1.53,5-4,5.05-2.1,0-3.48-1.62-3.48-4.14V151.36h-9.62v16.43c0,6.05,3.71,9.91,9.14,9.91a9,9,0,0,0,8-4.29v3.86h9.62V151.36Zm0,0" transform="translate(-11.39 -92.8)"/><path class="cls-2" d="M192.5,151a9.23,9.23,0,0,0-8.24,4.38v-4h-9.62v25.91h9.62V164.46c0-3,1.62-5,4.24-5.05,2.24,0,3.72,1.62,3.72,4.19v13.67h9.62V160.84c0-6-3.81-9.86-9.34-9.86Zm0,0" transform="translate(-11.39 -92.8)"/><rect class="cls-2" x="192.74" y="58.56" width="9.62" height="25.91"/><path class="cls-2" d="M166.81,190,170,184a22.75,22.75,0,0,0-11.38-3.14c-6.53,0-11.05,3.24-11.05,8.67,0,8.86,13.24,7.43,13.24,10.38,0,.81-.86,1.19-2.14,1.19a17.81,17.81,0,0,1-9.39-3.19l-2.95,6.05a20.72,20.72,0,0,0,12.19,3.67c6.77,0,11.39-3.24,11.39-8.58,0-8.86-13.53-7.57-13.53-10.48,0-.81.76-1.23,2-1.23,2,0,5,.9,8.48,2.71Zm0,0" transform="translate(-11.39 -92.8)"/><path class="cls-2" d="M189.36,199.32a9.55,9.55,0,0,1-3,.76c-1.34,0-2.2-.81-2.2-2.47v-8.87h6.39V182.6h-6.34v-4h-9.62v4h-3.57v6.14h3.57v10.34c0,5.39,3.71,8.58,9.24,8.53a15.24,15.24,0,0,0,7.19-1.67Zm0,0" transform="translate(-11.39 -92.8)"/><path class="cls-2" d="M205.72,180.93c-8.71,0-14.43,5.24-14.43,13.29s5.72,13.29,14.43,13.29,14.39-5.28,14.39-13.29-5.67-13.29-14.39-13.29Zm0,7.62c2.82,0,4.67,2.34,4.67,5.77s-1.85,5.76-4.67,5.76S201,197.8,201,194.32s1.86-5.77,4.71-5.77Zm0,0" transform="translate(-11.39 -92.8)"/><path class="cls-2" d="M231.09,185.36v-4.09h-9.63v25.91h9.63V194.79c0-3.76,3.19-5.85,8.14-5.24v-8.66a9.26,9.26,0,0,0-8.14,4.47Zm0,0" transform="translate(-11.39 -92.8)"/><path class="cls-3" d="M200.75,140.59l8.19-8.19,8.19,8.19-8.19,8.19Zm0,0" transform="translate(-11.39 -92.8)"/><rect class="cls-4" x="169.51" y="74.23" width="308.24" height="238.91"/><rect class="cls-5" x="169.51" y="74.28" width="69.79" height="238.91"/><rect class="cls-5" x="327.21" y="296.85" width="63.52" height="16.07"/><rect class="cls-5" x="327.21" y="74.23" width="63.52" height="16.07"/><rect class="cls-5" x="256.04" y="268.17" width="6.69" height="27.78"/><rect class="cls-5" x="266.03" y="268.17" width="3.34" height="27.78"/><rect class="cls-5" x="271.83" y="268.17" width="3.34" height="27.78"/><rect class="cls-5" x="278.83" y="268.17" width="5.83" height="27.78"/><rect class="cls-5" x="288.25" y="268.17" width="1.75" height="27.78"/><rect class="cls-5" x="294.18" y="268.17" width="2.97" height="27.78"/><rect class="cls-5" x="299.18" y="268.17" width="3.87" height="27.78"/><rect class="cls-5" x="305.31" y="268.17" width="1.93" height="27.78"/><rect class="cls-5" x="309.88" y="268.17" width="3.4" height="27.78"/><path class="cls-5" d="M326.32,253.54v18.93c0,4.37-2.26,7.39-5.92,7.46-3.09,0-5.13-2.39-5.13-6.12V253.54H301.05v24.28c0,8.94,5.49,14.64,13.51,14.64a13.3,13.3,0,0,0,11.76-6.33v5.7h14.21V253.54Zm0,0" transform="translate(-11.39 -92.8)"/><path class="cls-5" d="M370.3,253a13.65,13.65,0,0,0-12.17,6.47v-5.91H343.91v38.29h14.22V272.9c0-4.37,2.39-7.4,6.26-7.46,3.31,0,5.49,2.39,5.49,6.19v20.2H384.1V267.55c0-8.87-5.63-14.57-13.8-14.57Zm0,0" transform="translate(-11.39 -92.8)"/><rect class="cls-5" x="376.09" y="160.74" width="14.22" height="38.29"/><path class="cls-5" d="M332.35,310.68l4.71-8.94a33.6,33.6,0,0,0-16.82-4.64c-9.64,0-16.32,4.78-16.32,12.8,0,13.09,19.56,11,19.56,15.35,0,1.19-1.27,1.76-3.17,1.76-4.22,0-9.07-1.62-13.86-4.72l-4.36,8.94a30.61,30.61,0,0,0,18,5.42c10,0,16.82-4.79,16.82-12.67,0-13.09-20-11.19-20-15.48,0-1.2,1.12-1.83,2.88-1.83,3,0,7.32,1.33,12.53,4Zm0,0" transform="translate(-11.39 -92.8)"/><path class="cls-5" d="M365.66,324.4a14.08,14.08,0,0,1-4.36,1.13c-2,0-3.24-1.2-3.24-3.66V308.78h9.43V299.7h-9.36v-5.86H343.91v5.86h-5.28v9.08h5.28v15.27c0,7.95,5.49,12.67,13.66,12.6a22.51,22.51,0,0,0,10.62-2.47Zm0,0" transform="translate(-11.39 -92.8)"/><path class="cls-5" d="M389.84,297.23c-12.88,0-21.33,7.75-21.33,19.64s8.45,19.64,21.33,19.64,21.25-7.82,21.25-19.64-8.37-19.64-21.25-19.64Zm0,11.27c4.15,0,6.89,3.44,6.89,8.51s-2.74,8.52-6.89,8.52-7-3.38-7-8.52,2.74-8.51,7-8.51Zm0,0" transform="translate(-11.39 -92.8)"/><path class="cls-5" d="M427.31,303.78v-6H413.09V336h14.22V317.72c0-5.56,4.71-8.66,12-7.75v-12.8a13.69,13.69,0,0,0-12,6.61Zm0,0" transform="translate(-11.39 -92.8)"/><path class="cls-6" d="M382.49,237.64l12.1-12.1,12.1,12.1-12.1,12.1Zm0,0" transform="translate(-11.39 -92.8)"/><rect class="cls-7" y="161.45" width="195.73" height="151.7"/><rect class="cls-8" y="161.48" width="44.32" height="151.7"/><rect class="cls-8" x="100.13" y="302.81" width="40.33" height="10.2"/><rect class="cls-8" x="100.13" y="161.45" width="40.33" height="10.2"/><rect class="cls-8" x="54.94" y="284.6" width="4.25" height="17.64"/><rect class="cls-8" x="61.29" y="284.6" width="2.12" height="17.64"/><rect class="cls-8" x="64.97" y="284.6" width="2.12" height="17.64"/><rect class="cls-8" x="69.42" y="284.6" width="3.7" height="17.64"/><rect class="cls-8" x="75.4" y="284.6" width="1.11" height="17.64"/><rect class="cls-8" x="79.16" y="284.6" width="1.89" height="17.64"/><rect class="cls-8" x="82.33" y="284.6" width="2.46" height="17.64"/><rect class="cls-8" x="86.23" y="284.6" width="1.23" height="17.64"/><rect class="cls-8" x="89.13" y="284.6" width="2.16" height="17.64"/><path class="cls-8" d="M103.73,309.18v12c0,2.77-1.43,4.69-3.76,4.73-2,0-3.26-1.52-3.26-3.88V309.18h-9V324.6c0,5.68,3.49,9.3,8.58,9.3a8.46,8.46,0,0,0,7.47-4v3.62h9V309.18Zm0,0" transform="translate(-11.39 -92.8)"/><path class="cls-8" d="M131.66,308.83a8.65,8.65,0,0,0-7.73,4.11v-3.76h-9V333.5h9v-12c0-2.77,1.51-4.69,4-4.73,2.1,0,3.49,1.52,3.49,3.93V333.5h9V318.08c0-5.63-3.58-9.25-8.76-9.25Zm0,0" transform="translate(-11.39 -92.8)"/><rect class="cls-8" x="131.17" y="216.39" width="9.03" height="24.31"/><path class="cls-8" d="M107.56,345.47l3-5.68a21.41,21.41,0,0,0-10.68-3c-6.12,0-10.37,3-10.37,8.13,0,8.32,12.42,7,12.42,9.75,0,.76-.8,1.11-2,1.11a16.69,16.69,0,0,1-8.8-3l-2.77,5.67A19.45,19.45,0,0,0,99.78,362c6.35,0,10.68-3,10.68-8,0-8.31-12.69-7.1-12.69-9.83,0-.76.71-1.16,1.83-1.16,1.92,0,4.65.85,8,2.55Zm0,0" transform="translate(-11.39 -92.8)"/><path class="cls-8" d="M128.71,354.18a9.21,9.21,0,0,1-2.77.72c-1.25,0-2.06-.76-2.06-2.33v-8.31h6v-5.77h-5.94v-3.72h-9v3.72h-3.35v5.77h3.35V354c0,5.05,3.48,8,8.67,8a14.26,14.26,0,0,0,6.75-1.57Zm0,0" transform="translate(-11.39 -92.8)"/><path class="cls-8" d="M144.06,336.93c-8.18,0-13.54,4.92-13.54,12.47s5.36,12.47,13.54,12.47,13.5-5,13.5-12.47-5.32-12.47-13.5-12.47Zm0,7.15c2.64,0,4.38,2.19,4.38,5.41s-1.74,5.41-4.38,5.41-4.42-2.15-4.42-5.41,1.74-5.41,4.42-5.41Zm0,0" transform="translate(-11.39 -92.8)"/><path class="cls-8" d="M167.85,341.09v-3.85h-9v24.31h9V349.93c0-3.53,3-5.49,7.65-4.91v-8.13a8.71,8.71,0,0,0-7.65,4.2Zm0,0" transform="translate(-11.39 -92.8)"/><path class="cls-9" d="M139.39,299.08l7.69-7.68,7.68,7.69-7.68,7.68Zm0,0" transform="translate(-11.39 -92.8)"/></svg>