<svg id="OBJECTS" xmlns="http://www.w3.org/2000/svg" viewBox="0 0 435.23 314.18"><defs><style>.cls-1{fill:#c7c7c7;}.cls-2{fill:#dcdcdc;}.cls-3{fill:#3e204e;}.cls-4{fill:#fff;}.cls-5{fill:#d4612b;}.cls-6{fill:#b91363;}.cls-7{fill:#21002c;}.cls-8,.cls-9{fill:#b81363;}.cls-8{fill-rule:evenodd;}</style></defs><path class="cls-1" d="M0,211.86H363.56a0,0,0,0,1,0,0v24a12.69,12.69,0,0,1-12.69,12.69H12.69A12.69,12.69,0,0,1,0,235.9v-24A0,0,0,0,1,0,211.86Z"/><rect class="cls-2" x="145.2" y="248.59" width="74.61" height="32.14"/><path class="cls-3" d="M8.88,0h345.8a8.88,8.88,0,0,1,8.88,8.88V212.46a0,0,0,0,1,0,0H0a0,0,0,0,1,0,0V8.88A8.88,8.88,0,0,1,8.88,0Z"/><rect class="cls-4" x="14.77" y="15.29" width="336.29" height="184.05"/><path class="cls-3" d="M237.13,320.38a8.21,8.21,0,1,1-8.21-8.21A8.2,8.2,0,0,1,237.13,320.38Z" transform="translate(-47.14 -91.8)"/><path class="cls-1" d="M298.87,383.29H159.06a10.76,10.76,0,0,1,10.76-10.76H288.11a10.76,10.76,0,0,1,10.76,10.76Z" transform="translate(-47.14 -91.8)"/><rect class="cls-4" x="31.66" y="234.61" width="50.96" height="30.05"/><rect class="cls-5" x="46.86" y="228.99" width="18.6" height="11.24"/><path class="cls-6" d="M328.46,320.91a15.78,15.78,0,1,0,0,31.55H482.37V345H331.07a8.33,8.33,0,1,1,0-16.65h151.3v-7.45Z" transform="translate(-47.14 -91.8)"/><path class="cls-4" d="M322.74,336.69a8.33,8.33,0,0,0,8.33,8.32h144.2V328.36H331.07A8.33,8.33,0,0,0,322.74,336.69Z" transform="translate(-47.14 -91.8)"/><path class="cls-5" d="M330.73,352.6a26.69,26.69,0,1,0,0,53.38h136.1v-9.83H332.42a16.78,16.78,0,0,1-16.78-16.78h0a16.79,16.79,0,0,1,16.78-16.79H466.83v-10Z" transform="translate(-47.14 -91.8)"/><path class="cls-4" d="M315.64,379.37h0a16.78,16.78,0,0,0,16.78,16.78H460.05V362.58H332.42A16.79,16.79,0,0,0,315.64,379.37Z" transform="translate(-47.14 -91.8)"/><polygon class="cls-6" points="292.76 281.96 307.91 281.96 307.91 298.69 300.34 294.13 292.76 298.69 292.76 281.96"/><path class="cls-7" d="M161.24,168.29v21.08c0,4.85-2.51,8.22-6.58,8.3-3.45,0-5.72-2.66-5.72-6.81V168.29H133.11v27c0,10,6.11,16.29,15,16.29a14.79,14.79,0,0,0,13.09-7.05v6.35h15.82V168.29Zm0,0" transform="translate(-47.14 -91.8)"/><path class="cls-7" d="M210.2,167.67c-6,0-10.58,2.5-13.55,7.2v-6.58H180.82v42.62h15.83V189.84c0-4.86,2.66-8.23,7-8.31,3.68,0,6.11,2.67,6.11,6.9v22.48h15.82v-27c0-9.87-6.27-16.21-15.35-16.21Zm0,0" transform="translate(-47.14 -91.8)"/><rect class="cls-7" x="182.18" y="76.49" width="15.82" height="42.62"/><path class="cls-7" d="M168,231.89l5.25-9.95a37.57,37.57,0,0,0-18.72-5.17c-10.74,0-18.18,5.33-18.18,14.26,0,14.57,21.78,12.22,21.78,17.08,0,1.33-1.41,2-3.52,2-4.71,0-10.11-1.81-15.44-5.25l-4.86,10a34.17,34.17,0,0,0,20.06,6c11.12,0,18.72-5.33,18.72-14.1,0-14.57-22.25-12.46-22.25-17.24,0-1.33,1.26-2,3.22-2,3.36,0,8.14,1.49,13.94,4.46Zm0,0" transform="translate(-47.14 -91.8)"/><path class="cls-7" d="M205,247.17a16,16,0,0,1-4.86,1.25c-2.19,0-3.6-1.33-3.6-4.07V229.78h10.49V219.67H196.65v-6.52H180.82v6.52H175v10.11h5.87v17c0,8.85,6.11,14.1,15.2,14a25.17,25.17,0,0,0,11.83-2.74Zm0,0" transform="translate(-47.14 -91.8)"/><path class="cls-7" d="M231.94,216.93c-14.34,0-23.74,8.62-23.74,21.85s9.4,21.86,23.74,21.86S255.6,252,255.6,238.78s-9.32-21.85-23.66-21.85Zm0,12.53c4.62,0,7.68,3.84,7.68,9.48s-3.06,9.48-7.68,9.48-7.76-3.76-7.76-9.48,3.06-9.48,7.76-9.48Zm0,0" transform="translate(-47.14 -91.8)"/><path class="cls-7" d="M273.65,224.22v-6.74H257.82v42.61h15.83V239.73c0-6.19,5.25-9.64,13.39-8.62V216.85a15.25,15.25,0,0,0-13.39,7.37Zm0,0" transform="translate(-47.14 -91.8)"/><path class="cls-8" d="M223.76,150.59l13.47-13.47,13.47,13.47-13.47,13.47Zm0,0" transform="translate(-47.14 -91.8)"/><g id="QCgPnu.tif"><path class="cls-9" d="M344.35,222.53a28.64,28.64,0,0,1-1.87,2.37c-3,3.07-6.09,6.11-9.14,9.16-1.81,1.81-2.94,1.81-4.73,0q-6.78-6.77-13.54-13.54a9.07,9.07,0,0,1-.68-.88c-.36.33-.6.52-.81.73q-3.16,3.17-6.32,6.32c-1.74,1.72-3.77,1.24-4.54-1.08q-7.11-21.28-14.2-42.58a2.54,2.54,0,0,1,3.43-3.38l42.53,14.16c2.37.79,2.84,2.82,1.07,4.6q-3.12,3.13-6.26,6.26l-.78.85a8.38,8.38,0,0,1,.88.63q6.6,6.59,13.17,13.19a23.85,23.85,0,0,1,1.79,2.32Z" transform="translate(-47.14 -91.8)"/><path class="cls-9" d="M290.69,148.28c1.7.55,2.22,1.77,2.19,3.48-.06,4.68,0,9.36,0,14a2.62,2.62,0,0,1-1.37,2.55,2.49,2.49,0,0,1-3.64-2.38c0-2.69,0-5.39,0-8.09,0-2,.06-4.08,0-6.12-.07-1.72.49-2.93,2.18-3.48Z" transform="translate(-47.14 -91.8)"/><path class="cls-9" d="M267.3,184c-2.49,0-5,0-7.48,0a2.49,2.49,0,0,1-2.42-1.57,2.12,2.12,0,0,1,.5-2.57,3.35,3.35,0,0,1,2-.83c5-.07,10-.05,15,0a2.5,2.5,0,1,1,0,5C272.35,184,269.83,184,267.3,184Z" transform="translate(-47.14 -91.8)"/><path class="cls-9" d="M282,170.28a2.59,2.59,0,0,1-1.35,2.57,2.42,2.42,0,0,1-2.58-.2,1,1,0,0,1-.2-.16c-3.67-3.67-7.36-7.32-11-11A2.42,2.42,0,0,1,267,158a2.46,2.46,0,0,1,3.52.1c2.86,2.83,5.7,5.69,8.56,8.54.72.72,1.49,1.4,2.14,2.18A7,7,0,0,1,282,170.28Z" transform="translate(-47.14 -91.8)"/><path class="cls-9" d="M301.5,173.14a2.59,2.59,0,0,1-2.48-1.32,2.45,2.45,0,0,1,.14-2.58,1.7,1.7,0,0,1,.27-.33c3.61-3.61,7.2-7.24,10.84-10.83a2.45,2.45,0,0,1,4.14,1.08,2.29,2.29,0,0,1-.59,2.36c-3.64,3.66-7.28,7.32-11,10.94A4.36,4.36,0,0,1,301.5,173.14Z" transform="translate(-47.14 -91.8)"/><path class="cls-9" d="M279.39,189.71a2.76,2.76,0,0,1,2.34,1.54,2.34,2.34,0,0,1-.3,2.63,15.47,15.47,0,0,1-1.12,1.17c-3.25,3.25-6.49,6.51-9.76,9.74a2.45,2.45,0,0,1-4.23-.9,2.3,2.3,0,0,1,.57-2.44c3.62-3.64,7.25-7.28,10.91-10.88A6.56,6.56,0,0,1,279.39,189.71Z" transform="translate(-47.14 -91.8)"/></g></svg>