<svg id="OBJECTS" xmlns="http://www.w3.org/2000/svg" viewBox="0 0 480.97 314.25"><defs><style>.cls-1{fill:#2e183b;}.cls-2{fill:#b81363;}.cls-3,.cls-4{fill:#97004e;}.cls-10,.cls-4,.cls-7{fill-rule:evenodd;}.cls-5{fill:#d4612b;}.cls-6,.cls-7{fill:#b94425;}.cls-8{fill:#c7c7c7;}.cls-10,.cls-9{fill:#aaa;}.cls-11{fill:#3d1e4d;}</style></defs><polygon class="cls-1" points="480.64 12.82 475.3 9.41 438.14 75.9 400.99 9.41 395.64 12.82 434.52 82.38 395.64 151.95 400.99 155.36 438.14 88.87 475.3 155.36 480.64 151.95 441.77 82.38 480.64 12.82"/><polygon class="cls-1" points="480.64 158.76 475.3 155.36 438.14 221.85 400.99 155.36 395.64 158.76 434.52 228.33 395.64 297.89 400.99 301.3 438.14 234.81 475.3 301.3 480.64 297.89 441.77 228.33 480.64 158.76"/><rect class="cls-1" x="395.32" y="3.06" width="6.09" height="311.18"/><rect class="cls-1" x="435.1" y="3.06" width="6.09" height="311.18"/><rect class="cls-1" x="474.88" y="3.06" width="6.09" height="311.18"/><rect class="cls-1" x="398.36" y="10.3" width="79.56" height="8.44"/><rect class="cls-1" x="398.36" y="151.14" width="79.56" height="8.44"/><rect class="cls-1" x="398.36" y="291.97" width="79.56" height="8.44"/><rect class="cls-2" x="321.66" y="179.63" width="105.19" height="81.53"/><rect class="cls-3" x="321.66" y="179.65" width="23.82" height="81.53"/><rect class="cls-3" x="375.48" y="255.6" width="21.68" height="5.48"/><rect class="cls-3" x="375.48" y="179.63" width="21.68" height="5.48"/><rect class="cls-3" x="351.19" y="245.82" width="2.28" height="9.48"/><rect class="cls-3" x="354.6" y="245.82" width="1.14" height="9.48"/><rect class="cls-3" x="356.58" y="245.82" width="1.14" height="9.48"/><rect class="cls-3" x="358.97" y="245.82" width="1.99" height="9.48"/><rect class="cls-3" x="362.18" y="245.82" width="0.6" height="9.48"/><rect class="cls-3" x="364.21" y="245.82" width="1.01" height="9.48"/><rect class="cls-3" x="365.91" y="245.82" width="1.32" height="9.48"/><rect class="cls-3" x="368.01" y="245.82" width="0.66" height="9.48"/><rect class="cls-3" x="369.56" y="245.82" width="1.16" height="9.48"/><path class="cls-3" d="M378,300.89v6.46c0,1.49-.77,2.52-2,2.55-1.06,0-1.76-.82-1.76-2.09v-6.92h-4.85v8.29c0,3.05,1.88,5,4.61,5a4.55,4.55,0,0,0,4-2.16V314h4.85V300.89Zm0,0" transform="translate(-6.73 -91.74)"/><path class="cls-3" d="M393,300.7a4.66,4.66,0,0,0-4.16,2.21v-2H384V314h4.85v-6.46A2.24,2.24,0,0,1,391,305a1.87,1.87,0,0,1,1.87,2.11V314h4.85v-8.28c0-3-1.92-5-4.7-5Zm0,0" transform="translate(-6.73 -91.74)"/><rect class="cls-3" x="392.16" y="209.15" width="4.85" height="13.07"/><path class="cls-3" d="M380.07,320.39l1.61-3.05a11.4,11.4,0,0,0-5.74-1.59c-3.29,0-5.57,1.64-5.57,4.37,0,4.47,6.68,3.75,6.68,5.24,0,.41-.43.6-1.08.6a9,9,0,0,1-4.73-1.61l-1.49,3a10.39,10.39,0,0,0,6.14,1.85c3.42,0,5.75-1.63,5.75-4.32,0-4.47-6.83-3.82-6.83-5.29,0-.4.39-.62,1-.62a10.31,10.31,0,0,1,4.27,1.37Zm0,0" transform="translate(-6.73 -91.74)"/><path class="cls-3" d="M391.44,325.07a4.7,4.7,0,0,1-1.49.39c-.67,0-1.1-.41-1.1-1.25v-4.47h3.22v-3.1h-3.2v-2H384v2h-1.8v3.1H384V325c0,2.72,1.87,4.32,4.66,4.3a7.72,7.72,0,0,0,3.63-.84Zm0,0" transform="translate(-6.73 -91.74)"/><path class="cls-3" d="M399.69,315.8c-4.39,0-7.27,2.64-7.27,6.7s2.88,6.7,7.27,6.7,7.26-2.66,7.26-6.7-2.86-6.7-7.26-6.7Zm0,3.84c1.42,0,2.36,1.18,2.36,2.91s-.94,2.91-2.36,2.91-2.37-1.16-2.37-2.91.93-2.91,2.37-2.91Zm0,0" transform="translate(-6.73 -91.74)"/><path class="cls-3" d="M412.48,318V316h-4.85V329h4.85v-6.24c0-1.9,1.61-3,4.11-2.64v-4.37a4.67,4.67,0,0,0-4.11,2.25Zm0,0" transform="translate(-6.73 -91.74)"/><path class="cls-4" d="M397.19,295.46l4.12-4.13,4.13,4.13-4.12,4.13Zm0,0" transform="translate(-6.73 -91.74)"/><rect class="cls-5" x="312.72" y="37.27" width="129.94" height="100.71"/><rect class="cls-6" x="312.72" y="37.29" width="29.42" height="100.71"/><rect class="cls-6" x="379.2" y="131.12" width="26.78" height="6.77"/><rect class="cls-6" x="379.2" y="37.27" width="26.78" height="6.77"/><rect class="cls-6" x="349.19" y="119.03" width="2.82" height="11.71"/><rect class="cls-6" x="353.41" y="119.03" width="1.41" height="11.71"/><rect class="cls-6" x="355.85" y="119.03" width="1.41" height="11.71"/><rect class="cls-6" x="358.8" y="119.03" width="2.46" height="11.71"/><rect class="cls-6" x="362.77" y="119.03" width="0.74" height="11.71"/><rect class="cls-6" x="365.28" y="119.03" width="1.25" height="11.71"/><rect class="cls-6" x="367.38" y="119.03" width="1.63" height="11.71"/><rect class="cls-6" x="369.97" y="119.03" width="0.82" height="11.71"/><rect class="cls-6" x="371.89" y="119.03" width="1.43" height="11.71"/><path class="cls-6" d="M380.75,165.48v8c0,1.84-.95,3.11-2.49,3.14-1.31,0-2.17-1-2.17-2.58v-8.54h-6v10.23c0,3.77,2.31,6.17,5.69,6.17a5.59,5.59,0,0,0,5-2.67v2.41h6V165.48Zm0,0" transform="translate(-6.73 -91.74)"/><path class="cls-6" d="M399.29,165.24a5.76,5.76,0,0,0-5.13,2.73v-2.49h-6v16.14h6v-8c0-1.84,1-3.12,2.64-3.15a2.32,2.32,0,0,1,2.31,2.61v8.52h6V171.38c0-3.74-2.38-6.14-5.82-6.14Zm0,0" transform="translate(-6.73 -91.74)"/><rect class="cls-6" x="399.8" y="73.74" width="5.99" height="16.14"/><path class="cls-6" d="M383.29,189.56l2-3.76a14.17,14.17,0,0,0-7.09-2c-4.07,0-6.88,2-6.88,5.4,0,5.52,8.24,4.63,8.24,6.47,0,.5-.53.74-1.33.74a11.19,11.19,0,0,1-5.85-2l-1.84,3.77a13,13,0,0,0,7.6,2.28c4.21,0,7.09-2,7.09-5.34,0-5.52-8.43-4.72-8.43-6.53,0-.5.48-.77,1.22-.77a12.79,12.79,0,0,1,5.28,1.69Zm0,0" transform="translate(-6.73 -91.74)"/><path class="cls-6" d="M397.33,195.35a5.84,5.84,0,0,1-1.84.47c-.83,0-1.36-.5-1.36-1.54v-5.52h4v-3.82h-3.94v-2.47h-6v2.47h-2.23v3.82h2.23v6.44c0,3.35,2.31,5.34,5.75,5.31a9.44,9.44,0,0,0,4.48-1Zm0,0" transform="translate(-6.73 -91.74)"/><path class="cls-6" d="M407.52,183.9c-5.42,0-9,3.26-9,8.27s3.56,8.28,9,8.28,9-3.29,9-8.28-3.53-8.27-9-8.27Zm0,4.74c1.76,0,2.91,1.46,2.91,3.59s-1.15,3.59-2.91,3.59-2.93-1.42-2.93-3.59,1.15-3.59,2.93-3.59Zm0,0" transform="translate(-6.73 -91.74)"/><path class="cls-6" d="M423.32,186.66v-2.55h-6v16.13h6v-7.71c0-2.34,2-3.65,5.07-3.26v-5.4a5.78,5.78,0,0,0-5.07,2.79Zm0,0" transform="translate(-6.73 -91.74)"/><path class="cls-7" d="M404.43,158.77l5.1-5.1,5.1,5.1-5.1,5.1Zm0,0" transform="translate(-6.73 -91.74)"/><rect class="cls-8" x="206.46" y="162.92" width="126.74" height="98.23"/><rect class="cls-9" x="206.46" y="162.95" width="28.7" height="98.23"/><rect class="cls-9" x="271.3" y="254.46" width="26.12" height="6.61"/><rect class="cls-9" x="271.3" y="162.92" width="26.12" height="6.61"/><rect class="cls-9" x="242.03" y="242.67" width="2.75" height="11.42"/><rect class="cls-9" x="246.14" y="242.67" width="1.37" height="11.42"/><rect class="cls-9" x="248.53" y="242.67" width="1.37" height="11.42"/><rect class="cls-9" x="251.41" y="242.67" width="2.4" height="11.42"/><rect class="cls-9" x="255.28" y="242.67" width="0.72" height="11.42"/><rect class="cls-9" x="257.72" y="242.67" width="1.22" height="11.42"/><rect class="cls-9" x="259.77" y="242.67" width="1.59" height="11.42"/><rect class="cls-9" x="262.29" y="242.67" width="0.8" height="11.42"/><rect class="cls-9" x="264.17" y="242.67" width="1.4" height="11.42"/><path class="cls-9" d="M273,290.23V298c0,1.79-.93,3-2.43,3.06-1.28,0-2.12-1-2.12-2.51v-8.34h-5.84v10c0,3.67,2.25,6,5.55,6a5.46,5.46,0,0,0,4.84-2.6V306h5.84V290.23Zm0,0" transform="translate(-6.73 -91.74)"/><path class="cls-9" d="M291.06,290a5.61,5.61,0,0,0-5,2.66v-2.43h-5.85V306h5.85v-7.78c0-1.79,1-3,2.57-3.07a2.27,2.27,0,0,1,2.26,2.55V306h5.84V296c0-3.65-2.31-6-5.67-6Zm0,0" transform="translate(-6.73 -91.74)"/><rect class="cls-9" x="291.4" y="198.5" width="5.85" height="15.74"/><path class="cls-9" d="M275.46,313.73l1.93-3.68a13.87,13.87,0,0,0-6.91-1.91c-4,0-6.71,2-6.71,5.27,0,5.38,8,4.51,8,6.31,0,.49-.52.72-1.3.72a10.86,10.86,0,0,1-5.7-1.94l-1.8,3.67a12.58,12.58,0,0,0,7.41,2.23c4.11,0,6.92-2,6.92-5.21,0-5.38-8.22-4.6-8.22-6.36,0-.49.46-.75,1.19-.75a12.42,12.42,0,0,1,5.15,1.65Zm0,0" transform="translate(-6.73 -91.74)"/><path class="cls-9" d="M289.15,319.37a5.81,5.81,0,0,1-1.79.46c-.81,0-1.33-.49-1.33-1.5v-5.39h3.87v-3.73h-3.84V306.8h-5.85v2.41H278v3.73h2.17v6.28c0,3.27,2.26,5.21,5.61,5.18a9.22,9.22,0,0,0,4.37-1Zm0,0" transform="translate(-6.73 -91.74)"/><path class="cls-9" d="M299.09,308.2c-5.29,0-8.76,3.18-8.76,8.07s3.47,8.08,8.76,8.08,8.74-3.22,8.74-8.08-3.44-8.07-8.74-8.07Zm0,4.63c1.71,0,2.84,1.42,2.84,3.5s-1.13,3.5-2.84,3.5-2.86-1.39-2.86-3.5,1.13-3.5,2.86-3.5Zm0,0" transform="translate(-6.73 -91.74)"/><path class="cls-9" d="M314.5,310.89V308.4h-5.84v15.74h5.84v-7.52c0-2.29,1.94-3.56,4.95-3.18v-5.27a5.63,5.63,0,0,0-4.95,2.72Zm0,0" transform="translate(-6.73 -91.74)"/><path class="cls-10" d="M296.07,283.69l5-5,5,5-5,5Zm0,0" transform="translate(-6.73 -91.74)"/><rect class="cls-2" x="104.01" y="172.25" width="114.72" height="88.91"/><rect class="cls-3" x="104.01" y="172.26" width="25.98" height="88.91"/><rect class="cls-3" x="162.7" y="255.1" width="23.64" height="5.98"/><rect class="cls-3" x="162.7" y="172.25" width="23.64" height="5.98"/><rect class="cls-3" x="136.21" y="244.42" width="2.49" height="10.34"/><rect class="cls-3" x="139.93" y="244.42" width="1.24" height="10.34"/><rect class="cls-3" x="142.09" y="244.42" width="1.24" height="10.34"/><rect class="cls-3" x="144.69" y="244.42" width="2.17" height="10.34"/><rect class="cls-3" x="148.2" y="244.42" width="0.65" height="10.34"/><rect class="cls-3" x="150.41" y="244.42" width="1.11" height="10.34"/><rect class="cls-3" x="152.27" y="244.42" width="1.44" height="10.34"/><rect class="cls-3" x="154.55" y="244.42" width="0.72" height="10.34"/><rect class="cls-3" x="156.25" y="244.42" width="1.27" height="10.34"/><path class="cls-3" d="M164.86,296.18v7c0,1.63-.84,2.75-2.2,2.78-1.16,0-1.91-.89-1.91-2.28v-7.54h-5.3v9c0,3.33,2.05,5.45,5,5.45a5,5,0,0,0,4.38-2.35v2.12h5.29V296.18Zm0,0" transform="translate(-6.73 -91.74)"/><path class="cls-3" d="M181.23,296a5.08,5.08,0,0,0-4.53,2.41v-2.2h-5.29v14.25h5.29v-7.05c0-1.62.89-2.75,2.33-2.78a2.05,2.05,0,0,1,2,2.31v7.52h5.29v-9c0-3.3-2.09-5.42-5.13-5.42Zm0,0" transform="translate(-6.73 -91.74)"/><rect class="cls-3" x="180.89" y="204.44" width="5.29" height="14.25"/><path class="cls-3" d="M167.1,317.44l1.76-3.32a12.52,12.52,0,0,0-6.26-1.73c-3.59,0-6.08,1.78-6.08,4.76,0,4.88,7.28,4.09,7.28,5.71,0,.45-.47.66-1.18.66a9.75,9.75,0,0,1-5.16-1.76l-1.62,3.33a11.37,11.37,0,0,0,6.7,2c3.72,0,6.26-1.78,6.26-4.72,0-4.87-7.43-4.16-7.43-5.76,0-.44.42-.68,1.07-.68a11.29,11.29,0,0,1,4.66,1.49Zm0,0" transform="translate(-6.73 -91.74)"/><path class="cls-3" d="M179.5,322.55a5.23,5.23,0,0,1-1.62.42c-.74,0-1.21-.45-1.21-1.36v-4.87h3.51v-3.38H176.7v-2.18h-5.29v2.18h-2v3.38h2v5.68c0,3,2,4.71,5.08,4.69a8.32,8.32,0,0,0,3.95-.92Zm0,0" transform="translate(-6.73 -91.74)"/><path class="cls-3" d="M188.5,312.44c-4.8,0-7.94,2.88-7.94,7.31s3.14,7.31,7.94,7.31,7.91-2.91,7.91-7.31-3.12-7.31-7.91-7.31Zm0,4.19c1.54,0,2.56,1.28,2.56,3.17S190,323,188.5,323s-2.6-1.26-2.6-3.17,1-3.17,2.6-3.17Zm0,0" transform="translate(-6.73 -91.74)"/><path class="cls-3" d="M202.44,314.88v-2.26h-5.29v14.25h5.29v-6.81c0-2.07,1.76-3.22,4.48-2.88v-4.77a5.09,5.09,0,0,0-4.48,2.47Zm0,0" transform="translate(-6.73 -91.74)"/><path class="cls-4" d="M185.76,290.26l4.51-4.5,4.5,4.5-4.5,4.5Zm0,0" transform="translate(-6.73 -91.74)"/><rect class="cls-5" x="33.97" y="196.81" width="83.03" height="64.35"/><rect class="cls-6" x="33.97" y="196.82" width="18.8" height="64.35"/><rect class="cls-6" x="76.45" y="256.78" width="17.11" height="4.33"/><rect class="cls-6" x="76.45" y="196.81" width="17.11" height="4.33"/><rect class="cls-6" x="57.28" y="249.05" width="1.8" height="7.48"/><rect class="cls-6" x="59.97" y="249.05" width="0.9" height="7.48"/><rect class="cls-6" x="61.53" y="249.05" width="0.9" height="7.48"/><rect class="cls-6" x="63.42" y="249.05" width="1.57" height="7.48"/><rect class="cls-6" x="65.95" y="249.05" width="0.47" height="7.48"/><rect class="cls-6" x="67.55" y="249.05" width="0.8" height="7.48"/><rect class="cls-6" x="68.9" y="249.05" width="1.04" height="7.48"/><rect class="cls-6" x="70.55" y="249.05" width="0.52" height="7.48"/><rect class="cls-6" x="71.78" y="249.05" width="0.92" height="7.48"/><path class="cls-6" d="M79.87,311.85V317c0,1.17-.61,2-1.6,2-.83,0-1.38-.65-1.38-1.65v-5.46H73.06v6.54c0,2.41,1.48,3.94,3.64,3.94a3.58,3.58,0,0,0,3.17-1.7v1.53H83.7V311.85Zm0,0" transform="translate(-6.73 -91.74)"/><path class="cls-6" d="M91.72,311.7a3.66,3.66,0,0,0-3.28,1.74v-1.59H84.61v10.31h3.83v-5.1a1.77,1.77,0,0,1,1.68-2,1.49,1.49,0,0,1,1.48,1.67v5.44h3.83v-6.54a3.61,3.61,0,0,0-3.71-3.92Zm0,0" transform="translate(-6.73 -91.74)"/><rect class="cls-6" x="89.61" y="220.11" width="3.83" height="10.31"/><path class="cls-6" d="M81.49,327.24l1.27-2.41a9.09,9.09,0,0,0-4.53-1.25c-2.6,0-4.4,1.29-4.4,3.45,0,3.53,5.27,3,5.27,4.13,0,.33-.34.48-.85.48a7.09,7.09,0,0,1-3.73-1.27l-1.18,2.41a8.3,8.3,0,0,0,4.85,1.46c2.69,0,4.53-1.29,4.53-3.42,0-3.52-5.38-3-5.38-4.17,0-.32.3-.49.78-.49a8.13,8.13,0,0,1,3.37,1.08Zm0,0" transform="translate(-6.73 -91.74)"/><path class="cls-6" d="M90.46,330.94a3.79,3.79,0,0,1-1.17.3c-.53,0-.87-.32-.87-1v-3.52H91v-2.45H88.44v-1.57H84.61v1.57H83.18v2.45h1.43v4.11c0,2.14,1.48,3.41,3.67,3.4a6.05,6.05,0,0,0,2.87-.67Zm0,0" transform="translate(-6.73 -91.74)"/><path class="cls-6" d="M97,323.62c-3.47,0-5.75,2.09-5.75,5.29s2.28,5.29,5.75,5.29,5.72-2.11,5.72-5.29-2.25-5.29-5.72-5.29Zm0,3c1.12,0,1.86.93,1.86,2.3s-.74,2.29-1.86,2.29-1.88-.91-1.88-2.29.74-2.3,1.88-2.3Zm0,0" transform="translate(-6.73 -91.74)"/><path class="cls-6" d="M107.07,325.38v-1.63h-3.83v10.32h3.83v-4.93c0-1.5,1.27-2.34,3.24-2.09V323.6a3.7,3.7,0,0,0-3.24,1.78Zm0,0" transform="translate(-6.73 -91.74)"/><path class="cls-7" d="M95,307.57l3.26-3.26,3.26,3.26-3.26,3.26Zm0,0" transform="translate(-6.73 -91.74)"/><rect class="cls-2" x="223.58" y="56.46" width="105.19" height="81.53"/><rect class="cls-3" x="223.58" y="56.47" width="23.82" height="81.53"/><rect class="cls-3" x="277.39" y="132.43" width="21.68" height="5.48"/><rect class="cls-3" x="277.39" y="56.46" width="21.68" height="5.48"/><rect class="cls-3" x="253.11" y="122.64" width="2.28" height="9.48"/><rect class="cls-3" x="256.52" y="122.64" width="1.14" height="9.48"/><rect class="cls-3" x="258.49" y="122.64" width="1.14" height="9.48"/><rect class="cls-3" x="260.88" y="122.64" width="1.99" height="9.48"/><rect class="cls-3" x="264.1" y="122.64" width="0.6" height="9.48"/><rect class="cls-3" x="266.12" y="122.64" width="1.01" height="9.48"/><rect class="cls-3" x="267.83" y="122.64" width="1.32" height="9.48"/><rect class="cls-3" x="269.92" y="122.64" width="0.66" height="9.48"/><rect class="cls-3" x="271.48" y="122.64" width="1.16" height="9.48"/><path class="cls-3" d="M279.93,177.72v6.46c0,1.49-.77,2.52-2,2.54-1.05,0-1.75-.81-1.75-2.09v-6.91h-4.85V186c0,3.05,1.87,5,4.61,5a4.54,4.54,0,0,0,4-2.16v1.94h4.85V177.72Zm0,0" transform="translate(-6.73 -91.74)"/><path class="cls-3" d="M294.94,177.52a4.65,4.65,0,0,0-4.15,2.21v-2h-4.85v13.06h4.85v-6.46c0-1.49.81-2.52,2.14-2.54a1.87,1.87,0,0,1,1.87,2.11v6.89h4.85V182.5c0-3-1.92-5-4.71-5Zm0,0" transform="translate(-6.73 -91.74)"/><rect class="cls-3" x="294.08" y="85.98" width="4.85" height="13.07"/><path class="cls-3" d="M282,197.21l1.61-3.05a11.52,11.52,0,0,0-5.74-1.58c-3.29,0-5.57,1.63-5.57,4.37,0,4.47,6.67,3.75,6.67,5.24,0,.4-.43.6-1.08.6a9.07,9.07,0,0,1-4.73-1.61l-1.49,3a10.52,10.52,0,0,0,6.15,1.85c3.41,0,5.74-1.64,5.74-4.33,0-4.46-6.82-3.81-6.82-5.28,0-.41.38-.62,1-.62a10.31,10.31,0,0,1,4.27,1.36Zm0,0" transform="translate(-6.73 -91.74)"/><path class="cls-3" d="M293.36,201.9a5.07,5.07,0,0,1-1.49.38c-.67,0-1.11-.41-1.11-1.25v-4.46H294v-3.1h-3.19v-2h-4.85v2h-1.81v3.1h1.81v5.21c0,2.71,1.87,4.32,4.66,4.3a7.65,7.65,0,0,0,3.62-.84Zm0,0" transform="translate(-6.73 -91.74)"/><path class="cls-3" d="M301.61,192.63c-4.4,0-7.28,2.64-7.28,6.7s2.88,6.7,7.28,6.7,7.25-2.67,7.25-6.7-2.86-6.7-7.25-6.7Zm0,3.84c1.42,0,2.35,1.18,2.35,2.91s-.93,2.9-2.35,2.9-2.38-1.15-2.38-2.9.94-2.91,2.38-2.91Zm0,0" transform="translate(-6.73 -91.74)"/><path class="cls-3" d="M314.4,194.86V192.8h-4.86v13.06h4.86v-6.24c0-1.9,1.61-3,4.1-2.65V192.6a4.67,4.67,0,0,0-4.1,2.26Zm0,0" transform="translate(-6.73 -91.74)"/><path class="cls-4" d="M299.1,172.29l4.13-4.13,4.13,4.13-4.13,4.13Zm0,0" transform="translate(-6.73 -91.74)"/><rect class="cls-2" x="53.61" width="178.02" height="137.98"/><rect class="cls-3" x="53.61" y="0.03" width="40.31" height="137.98"/><rect class="cls-3" x="144.69" y="128.57" width="36.68" height="9.28"/><rect class="cls-3" x="144.69" width="36.68" height="9.28"/><rect class="cls-3" x="103.58" y="112.01" width="3.86" height="16.04"/><rect class="cls-3" x="109.36" y="112.01" width="1.93" height="16.04"/><rect class="cls-3" x="112.7" y="112.01" width="1.93" height="16.04"/><rect class="cls-3" x="116.75" y="112.01" width="3.37" height="16.04"/><rect class="cls-3" x="122.19" y="112.01" width="1.01" height="16.04"/><rect class="cls-3" x="125.61" y="112.01" width="1.72" height="16.04"/><rect class="cls-3" x="128.5" y="112.01" width="2.23" height="16.04"/><rect class="cls-3" x="132.04" y="112.01" width="1.12" height="16.04"/><rect class="cls-3" x="134.68" y="112.01" width="1.96" height="16.04"/><path class="cls-3" d="M144.32,141.7v10.93c0,2.52-1.3,4.27-3.41,4.31-1.79,0-3-1.38-3-3.53V141.7h-8.21v14c0,5.16,3.17,8.46,7.8,8.46a7.67,7.67,0,0,0,6.79-3.66v3.29h8.21V141.7Zm0,0" transform="translate(-6.73 -91.74)"/><path class="cls-3" d="M169.73,141.37a7.9,7.9,0,0,0-7,3.74V141.7h-8.21v22.11h8.21V152.88c0-2.52,1.39-4.27,3.62-4.31,1.91,0,3.17,1.38,3.17,3.57v11.67h8.21v-14c0-5.12-3.25-8.42-8-8.42Zm0,0" transform="translate(-6.73 -91.74)"/><rect class="cls-3" x="172.92" y="49.96" width="8.21" height="22.11"/><path class="cls-3" d="M147.81,174.7l2.72-5.16a19.44,19.44,0,0,0-9.72-2.69c-5.56,0-9.42,2.77-9.42,7.4,0,7.56,11.29,6.34,11.29,8.86,0,.69-.73,1-1.82,1a15.21,15.21,0,0,1-8-2.73l-2.52,5.17a17.69,17.69,0,0,0,10.4,3.13c5.77,0,9.72-2.77,9.72-7.32,0-7.56-11.55-6.46-11.55-8.94,0-.69.65-1.06,1.67-1.06,1.75,0,4.23.77,7.24,2.32Zm0,0" transform="translate(-6.73 -91.74)"/><path class="cls-3" d="M167,182.62a8.06,8.06,0,0,1-2.52.65c-1.13,0-1.87-.69-1.87-2.11V173.6h5.45v-5.24h-5.41V165h-8.21v3.39h-3v5.24h3v8.82c0,4.59,3.17,7.32,7.89,7.28a13,13,0,0,0,6.14-1.43Zm0,0" transform="translate(-6.73 -91.74)"/><path class="cls-3" d="M181,166.93c-7.44,0-12.32,4.48-12.32,11.34s4.88,11.35,12.32,11.35,12.27-4.52,12.27-11.35-4.83-11.34-12.27-11.34Zm0,6.51c2.4,0,4,2,4,4.92s-1.58,4.91-4,4.91-4-2-4-4.91,1.59-4.92,4-4.92Zm0,0" transform="translate(-6.73 -91.74)"/><path class="cls-3" d="M202.65,170.71v-3.49h-8.21v22.11h8.21V178.76c0-3.21,2.72-5,6.95-4.47v-7.4a7.92,7.92,0,0,0-6.95,3.82Zm0,0" transform="translate(-6.73 -91.74)"/><path class="cls-4" d="M176.76,132.51l7-7,7,7-7,7Zm0,0" transform="translate(-6.73 -91.74)"/><rect class="cls-11" x="5.28" y="138" width="469.56" height="13.11"/><rect class="cls-11" x="5.28" y="258.94" width="469.56" height="13.11"/><polygon class="cls-1" points="85.33 12.82 79.98 9.41 42.83 75.9 5.67 9.41 0.33 12.82 39.2 82.38 0.33 151.95 5.67 155.36 42.83 88.87 79.98 155.36 85.33 151.95 46.45 82.38 85.33 12.82"/><polygon class="cls-1" points="85.33 158.76 79.98 155.36 42.83 221.85 5.67 155.36 0.33 158.76 39.2 228.33 0.33 297.89 5.67 301.3 42.83 234.81 79.98 301.3 85.33 297.89 46.45 228.33 85.33 158.76"/><rect class="cls-1" y="3.06" width="6.09" height="311.18"/><rect class="cls-1" x="39.78" y="3.06" width="6.09" height="311.18"/><rect class="cls-1" x="79.56" y="3.06" width="6.09" height="311.18"/><rect class="cls-1" x="3.04" y="10.3" width="79.56" height="8.44"/><rect class="cls-1" x="3.04" y="151.14" width="79.56" height="8.44"/><rect class="cls-1" x="3.04" y="291.97" width="79.56" height="8.44"/></svg>