<svg xmlns="http://www.w3.org/2000/svg" viewBox="0 0 488.59 314.25"><defs><style>.cls-1{isolation:isolate;}.cls-2{fill:#3b1f4c;}.cls-3{fill:#d4612b;}.cls-4{fill:#af3b2c;}.cls-5{fill:#2f163c;}.cls-6{fill:#3e204e;}.cls-7{fill:#22152c;}.cls-8{fill:#982352;}.cls-9{fill:#b81f65;}.cls-10{fill:#c04b2c;}.cls-11{fill:#d6d7d7;}.cls-12{opacity:0.62;mix-blend-mode:multiply;}.cls-13{fill:#7d728c;}</style></defs><g class="cls-1"><g id="OBJECTS"><path class="cls-2" d="M382,344.71c-66.24.08-121.06-55.12-122.59-123.63-1.54-68.74,51.16-124.83,117.7-125.28,41.83-.29,79.16,21.49,101.5,54.78l9.44-.06c-24.26-35.69-65.15-59.1-111-58.78-72.48.49-129.92,60-128.29,132.8,1.62,72.62,61.34,131.12,133.52,131Z" transform="translate(-6.64 -91.74)"/><polygon class="cls-2" points="386.73 252.97 364.32 253.12 365.08 287.19 387.49 287.04 386.73 252.97"/><polygon class="cls-2" points="379.94 214.4 369.39 214.47 371.42 305.32 381.97 305.25 379.94 214.4"/><polygon class="cls-2" points="425.62 307.6 338.7 294.94 339.13 314.25 425.76 313.66 425.62 307.6"/><ellipse class="cls-3" cx="381.25" cy="223.64" rx="111.61" ry="113.46" transform="translate(-64.88 178.98) rotate(-36.51)"/><ellipse class="cls-2" cx="485.27" cy="150.58" rx="9.9" ry="10.07" transform="matrix(0.8, -0.59, 0.59, 0.8, -1.05, 226.39)"/><path class="cls-4" d="M361.42,259.31c-7.14-.89-12.5-6.47-17.67-11.35a134,134,0,0,0-24.26-18.13Q316,243,312.42,256.15a8.53,8.53,0,0,0-.44,3.76,8.23,8.23,0,0,0,1.62,3.2l15.21,21.57c2.06,2.92,4.18,6,4.7,9.56.47,3.24-.33,7,1.71,9.52,1.09,1.36,2.88,2.17,3.51,3.79.51,1.31.12,2.82.37,4.2.89,4.79,8.46,5.66,9.51,10.41l1.9.87c4.43-17.75,11.77-15.87,12.74-61.54,0-.45.21-.91,0-1.31C363,259.53,362.13,259.4,361.42,259.31Z" transform="translate(-6.64 -91.74)"/><path class="cls-4" d="M288,190.43a3.48,3.48,0,0,1,1.48.94,3.92,3.92,0,0,1,.49,1.92c.43,3.47,3.24,6.09,5.54,8.73a38.46,38.46,0,0,1,9.08,20.25,43.36,43.36,0,0,0,12.07,5.7l5.34-1.26c-1.65-2.62,1.18-6.58,4.16-5.83.76.2,1.69.57,2.22,0s.09-1.46-.21-2.18c-1-2.42-.33-5.16.37-7.66,1.45-5.15,3-10.46,6.34-14.59,1.44-1.76,3.26-3.39,3.74-5.63.19-.88.16-1.8.33-2.69a13.15,13.15,0,0,1,1.55-3.62c3.84-7.22,5.62-15.35,7.37-23.38a3.83,3.83,0,0,0,.08-1.81c-.36-1.2-1.76-1.7-2.95-2.08a37.78,37.78,0,0,1-19.57-14.59,3.68,3.68,0,0,0-1.79-1.68,3.34,3.34,0,0,0-1.94.21l-22,6.94A107.84,107.84,0,0,0,281.3,176c-.83,1.82-1.6,3.64-2.33,5.48C281.43,185,284.09,188.68,288,190.43Z" transform="translate(-6.64 -91.74)"/><path class="cls-4" d="M347.45,139.31c4.81,3.83,9.22,8.91,15.24,10q-.6-9.56-1.22-19.1a11.4,11.4,0,0,0-.61-3.58,11.84,11.84,0,0,0-3.24-4c-2.18-2-4.44-4-7.18-5-.32-.12-.65-.19-1-.28A108.45,108.45,0,0,0,321,130.21,42.93,42.93,0,0,1,347.45,139.31Z" transform="translate(-6.64 -91.74)"/><path class="cls-4" d="M458.43,160.4c-2.2,2.07-6.12,2.83-6.55,5.84l-1.76-.82c-2.2.3-4.87-.84-6.42.73s-.47,4.08.62,5.95L450.66,183a1.27,1.27,0,0,0,.45.52,1.17,1.17,0,0,0,1.15-.21,8.19,8.19,0,0,0,3.6-5.57c.33-2.2-.19-4.66,1-6.5.69-1.07,1.89-1.76,2.47-2.89a2.23,2.23,0,0,0-.29-2.32c1.4,1.1,1.8,3.76,3.57,4.61,5.05,2.42,6.88,7.93,8.74,5.31.11-2.11-3.29-5.46-3.19-7.57,1.8,1.73,5.59,1.36,8.57,1.69A112.15,112.15,0,0,0,457.52,145c.52,1,1,2,1.47,3.05C460.72,152.12,461.61,157.42,458.43,160.4Z" transform="translate(-6.64 -91.74)"/><path class="cls-4" d="M461.43,188.26a4.1,4.1,0,0,0,0,2.93,36.24,36.24,0,0,0,4,10.41c4.08,6.62,11.09,10.77,16.52,16.33a43,43,0,0,1,9.18,14.29,112.11,112.11,0,0,0-10.4-54.45A156.56,156.56,0,0,0,463,186.9,4,4,0,0,0,461.43,188.26Z" transform="translate(-6.64 -91.74)"/><path class="cls-4" d="M448.65,150.73a8.45,8.45,0,0,0-3-7.47c-1.7-1.37-3.92-2.06-5.39-3.69-.46-.5-.89-1.12-1.55-1.26-.9-.2-1.74.7-1.82,1.63a4.47,4.47,0,0,0,.89,2.61c2.6,4.12,6.47,7.39,8.83,11.63A4.58,4.58,0,0,0,448.65,150.73Z" transform="translate(-6.64 -91.74)"/><path class="cls-4" d="M398.32,116.21c1.3.59,2.8.4,4.21.61,4.69.72,7.51,5.7,11.74,7.92,3.79,2,8.28,1.55,12.53,1.75a40.33,40.33,0,0,1,7.71,1.15c-2.4-1.36-4.85-2.68-7.38-3.88a110.89,110.89,0,0,0-30.27-9.41A2.75,2.75,0,0,0,398.32,116.21Z" transform="translate(-6.64 -91.74)"/><rect class="cls-5" x="227.74" y="278.13" width="16.97" height="30"/><rect class="cls-6" x="58.65" y="86.07" width="354.29" height="194.88"/><rect class="cls-7" x="73.13" y="103.18" width="322.89" height="159.98"/><rect class="cls-6" x="182.42" y="302.02" width="109.26" height="12.22"/><polygon class="cls-2" points="156.28 140.82 153.26 140.77 153.26 223.5 156.28 223.55 156.28 140.82"/><polygon class="cls-2" points="101.6 138.24 94.49 138.13 94.49 307.48 101.6 307.59 101.6 138.24"/><path class="cls-2" d="M174.55,397.34c-47.37-6.32-94-7.47-139.73-2.17v8.65L174.55,406Z" transform="translate(-6.64 -91.74)"/><path class="cls-8" d="M199.66,243.85c-1-5.53-6-9.4-11.13-8.65s-8.49,5.9-7.45,11.49,6.1,9.5,11.25,8.67S200.71,249.39,199.66,243.85Z" transform="translate(-6.64 -91.74)"/><path class="cls-8" d="M182.24,243.52c-1-5.58-6.09-9.49-11.3-8.73s-8.7,6-7.67,11.6,6.16,9.59,11.42,8.76S183.28,249.12,182.24,243.52Z" transform="translate(-6.64 -91.74)"/><path class="cls-8" d="M164.47,243.19c-1-5.64-6.15-9.58-11.48-8.82s-8.91,6-7.89,11.72,6.23,9.68,11.6,8.85S165.5,248.84,164.47,243.19Z" transform="translate(-6.64 -91.74)"/><path class="cls-8" d="M146.34,242.85c-1-5.69-6.22-9.68-11.66-8.91s-9.13,6.07-8.13,11.83,6.3,9.79,11.79,8.95S147.36,248.56,146.34,242.85Z" transform="translate(-6.64 -91.74)"/><path class="cls-8" d="M127.84,242.51a10.78,10.78,0,0,0-11.85-9,10.12,10.12,0,0,0-8.37,11.95,10.75,10.75,0,0,0,12,9A10.12,10.12,0,0,0,127.84,242.51Z" transform="translate(-6.64 -91.74)"/><path class="cls-8" d="M109,242.16a10.92,10.92,0,0,0-12-9.1,10.28,10.28,0,0,0-8.61,12.07,10.88,10.88,0,0,0,12.17,9.13A10.3,10.3,0,0,0,109,242.16Z" transform="translate(-6.64 -91.74)"/><path class="cls-8" d="M89.68,241.8a11.05,11.05,0,0,0-12.25-9.2,10.49,10.49,0,0,0-8.87,12.2A11,11,0,0,0,80.94,254,10.51,10.51,0,0,0,89.68,241.8Z" transform="translate(-6.64 -91.74)"/><path class="cls-8" d="M70,241.43a11.19,11.19,0,0,0-12.45-9.3,10.7,10.7,0,0,0-9.14,12.33A11.17,11.17,0,0,0,61,253.79,10.69,10.69,0,0,0,70,241.43Z" transform="translate(-6.64 -91.74)"/><path class="cls-8" d="M49.88,241.06a11.33,11.33,0,0,0-12.66-9.4,10.9,10.9,0,0,0-9.42,12.45,11.32,11.32,0,0,0,12.81,9.43A10.88,10.88,0,0,0,49.88,241.06Z" transform="translate(-6.64 -91.74)"/><path class="cls-8" d="M29.34,240.67a11.47,11.47,0,0,0-12.88-9.5,11.12,11.12,0,0,0-9.7,12.59,11.46,11.46,0,0,0,13,9.53A11.11,11.11,0,0,0,29.34,240.67Z" transform="translate(-6.64 -91.74)"/><path class="cls-9" d="M163.43,111.29,42.21,109.41,8.48,236.22q91,10.51,188.69,2.93Z" transform="translate(-6.64 -91.74)"/><polygon class="cls-10" points="117.23 199.48 47.86 202.12 30.42 314.25 100.39 314.25 117.23 199.48"/><polygon class="cls-3" points="112.88 199.48 43.51 202.12 26.07 314.25 96.05 314.25 112.88 199.48"/><polygon class="cls-11" points="104 209.93 48.83 212.14 34.96 306.29 90.61 306.29 104 209.93"/><polygon class="cls-10" points="50.69 214.94 103.6 212.81 104.2 209.2 48.28 211.58 34.96 306.29 37.23 306.29 50.69 214.94"/><g class="cls-12"><path class="cls-13" d="M64.52,398.09H74.86c2.15-2.41,4.37-4.75,6.73-6.92a10.66,10.66,0,0,0,2.87-3.47,10.47,10.47,0,0,0,.51-4.5,130.47,130.47,0,0,0-3.48-25.46,69.39,69.39,0,0,1-10.08-.67C70.87,357,64,365,61.28,370.19A20.52,20.52,0,0,0,59,376.33a20.82,20.82,0,0,0,.94,8.53A101.9,101.9,0,0,0,64.52,398.09Z" transform="translate(-6.64 -91.74)"/><path class="cls-13" d="M75,362.26c1.3-11.4-5.19-21.14-11.23-29.81-.31-.45-1.43,0-1.08.46,5.94,8.53,12.42,18.14,11.14,29.36-.07.63,1.1.54,1.17,0Z" transform="translate(-6.64 -91.74)"/><path class="cls-13" d="M76.57,360.73c-.57-9.3,3.37-20.75,12.8-33a2.82,2.82,0,0,0-1.67.72c-9.08,12-12.84,23.3-12.2,32.48,0,.18,1.09.06,1.07-.19Z" transform="translate(-6.64 -91.74)"/><path class="cls-13" d="M78,360.77c.55-11,11.6-15.67,19.09-20.65.51-.34-.63-.34-.89-.17C88.55,345,77.39,349.82,76.82,361c0,.28,1.15.16,1.17-.24Z" transform="translate(-6.64 -91.74)"/><path class="cls-13" d="M80.45,341.16c-.32-2.17-.67-4.29-1.07-6.35-.07-.4-.94.11-.86.54q.6,3.11,1.07,6.35c.06.42.92-.07.86-.54Z" transform="translate(-6.64 -91.74)"/><path class="cls-13" d="M71.78,347.78A15,15,0,0,1,67,347a.74.74,0,0,0-.82.17.39.39,0,0,0,.11.63,16.57,16.57,0,0,0,5.35,1,.66.66,0,0,0,.66-.47c0-.3-.27-.46-.51-.46Z" transform="translate(-6.64 -91.74)"/><path class="cls-13" d="M68.37,339.35a7.81,7.81,0,0,1,1.1-3.38c.93-1.55,2.24-3.7,4.2-7,.73-1.22.72-2,0-1.65s-1,1.6-1.46,2.62c-1.39,2.84-3.16,4.81-3.84,6.23a4.68,4.68,0,0,0-.65,2.61c0,.22.2,1.08.35,1a2.7,2.7,0,0,0,.47-1.38Z" transform="translate(-6.64 -91.74)"/><path class="cls-13" d="M90.24,343.57a23,23,0,0,1,.56-4.64c.15-.68-.5-.76-.63-.21a25.61,25.61,0,0,0-.61,5.13.29.29,0,0,0,.38.31.62.62,0,0,0,.3-.59Z" transform="translate(-6.64 -91.74)"/><path class="cls-13" d="M83.68,349.51a19.13,19.13,0,0,0,5.68.72c.18,0,.62-.1.68-.34s-.34-.25-.47-.25a17.18,17.18,0,0,1-5.14-.68,1,1,0,0,0-.82.17c-.19.15-.16.32.07.38Z" transform="translate(-6.64 -91.74)"/><path class="cls-13" d="M67.21,328.3a3.12,3.12,0,0,0-3.33-.44,3.58,3.58,0,0,0-1.44-2.57,2.28,2.28,0,0,0-2.72.09,2.13,2.13,0,0,0-.32,2.76,1.77,1.77,0,0,0-1.78,2,3.31,3.31,0,0,0,1.9,2.16,1.57,1.57,0,0,0,1.2.3,4.79,4.79,0,0,0-1.34,2.63,2.1,2.1,0,0,0,1.45,2.3,1.78,1.78,0,0,0,1.61-.72,3.35,3.35,0,0,0,.64-1.8l.81-2a3,3,0,0,0,2.49.64,1.51,1.51,0,0,0,1.24-1.07.87.87,0,0,0-.52-.9,1.59,1.59,0,0,0,1-1.31A2.46,2.46,0,0,0,67.21,328.3Z" transform="translate(-6.64 -91.74)"/><path class="cls-13" d="M78.2,329A4.69,4.69,0,0,0,76.32,326a2.59,2.59,0,0,0,.46-2.32,3.38,3.38,0,0,0-1.77-2.2,1.13,1.13,0,0,0-1.68.94c-.56-.86-1.72-1.18-2.18-.6s-.23,1.6,0,2.51a2.32,2.32,0,0,0,.61,1.13,3,3,0,0,0-2.26,0,1.62,1.62,0,0,0-.32,2.21,2.3,2.3,0,0,0,1.41,1,1.91,1.91,0,0,0,1.37-.26l1.57-.2a4.4,4.4,0,0,0,1.24,2.33c.41.41,1,.73,1.35.56s.29-.5.16-.82a1.25,1.25,0,0,0,1.36.28A1.62,1.62,0,0,0,78.2,329Z" transform="translate(-6.64 -91.74)"/><path class="cls-13" d="M94.94,325.21a.86.86,0,0,0-.16,0,4.25,4.25,0,0,0,.33-.86,3.59,3.59,0,0,0,0-1.84,1.66,1.66,0,0,0-1.23-1.21,1.11,1.11,0,0,0-.92.33,3.25,3.25,0,0,0-1.66-2.23,3,3,0,0,0-3.59.9,1.81,1.81,0,0,0-.38.94,9.41,9.41,0,0,0-2.63.9A3.52,3.52,0,0,0,83,324.5a2.77,2.77,0,0,0,1,2.63c-.53.1-.75.88-.49,1.39a1.91,1.91,0,0,0,1.33.9,4.65,4.65,0,0,0,3.84-.82,1.73,1.73,0,0,0-.35,2.48,1.36,1.36,0,0,0,2.21-.53,2.37,2.37,0,0,0,0-1.06A6.93,6.93,0,0,0,90,327.8l1.43.52a3.36,3.36,0,0,0,3.39-.45,2.19,2.19,0,0,0,.86-1.34A1.21,1.21,0,0,0,94.94,325.21Z" transform="translate(-6.64 -91.74)"/><path class="cls-13" d="M99.05,341.59s0-.06-.06-.09a1.94,1.94,0,0,0,.47-.25,2.32,2.32,0,0,0,.75-.94,1.94,1.94,0,0,0,.05-1.38.6.6,0,0,0-.45-.39,3.65,3.65,0,0,0,.32-2.17c-.19-1-.9-1.79-1.63-1.73a.79.79,0,0,0-.51.26,5.45,5.45,0,0,0-1.29-1.14,1.36,1.36,0,0,0-1.58.15,2.65,2.65,0,0,0-.7,2c-.23-.28-.62,0-.74.41a2.23,2.23,0,0,0,.11,1.28,2.93,2.93,0,0,0,1.68,1.92c-.48-.22-1.08.33-1.13,1.08s.52,1.39,1,1.07a1.51,1.51,0,0,0,.43-.55,6.44,6.44,0,0,0,.5-1.2l.29,1.14a2.34,2.34,0,0,0,1.38,1.84.83.83,0,0,0,.84-.18A1.2,1.2,0,0,0,99.05,341.59Z" transform="translate(-6.64 -91.74)"/><path class="cls-13" d="M68,349.54a1.78,1.78,0,0,0-1.62-1.88,3.19,3.19,0,0,0,1.15-2.28,2.07,2.07,0,0,0-1.32-2,1.48,1.48,0,0,0-1.52.52,1.22,1.22,0,0,0-.34-.34,2.47,2.47,0,0,0-2.44-.51,3,3,0,0,0-1.34,2.37,2,2,0,0,0,.12,1.34A.73.73,0,0,0,61,347a1.7,1.7,0,0,0-1,1.15,2.87,2.87,0,0,0,.64,2.33,2.5,2.5,0,0,0,2.62,1,1.28,1.28,0,0,0,1.09.43,1.94,1.94,0,0,0,.82-.3,2.62,2.62,0,0,0,1.18,0A2.31,2.31,0,0,0,68,349.54Z" transform="translate(-6.64 -91.74)"/></g></g></g></svg>