<svg id="Слой_1" data-name="Слой 1" xmlns="http://www.w3.org/2000/svg" viewBox="0 0 1252.51 1171.81"><defs><style>.cls-1{opacity:0.5;}.cls-2{fill:#d6d6d6;}.cls-3{fill:#562562;}.cls-4{fill:#f26122;}.cls-5{fill:#210d28;}.cls-6{fill:#7e628f;}.cls-7{fill:#dd4a26;}.cls-8{fill:#554446;}.cls-9{fill:#d81967;}.cls-10{fill:#b31e52;}.cls-11{fill:#d80b65;}.cls-12,.cls-13{fill:#b2004e;}.cls-13,.cls-15{fill-rule:evenodd;}.cls-14,.cls-15{fill:#d5421e;}.cls-16{fill:#fbccaa;}.cls-17{fill:#210029;}.cls-18{fill:#49384d;}.cls-19{fill:#3d2a42;}.cls-20{fill:#efb991;}.cls-21{fill:#562462;}.cls-22{fill:#163560;}.cls-23{fill:silver;}.cls-24{fill:#e5e5e5;}</style></defs><g class="cls-1"><path class="cls-2" d="M1188.28,1066.53H169.19V185.91a70.6,70.6,0,0,1,70.52-70.51h889.38a59.25,59.25,0,0,1,59.19,59.18Zm-1003.06-16h987V174.58a43.2,43.2,0,0,0-43.16-43.15H239.71a54.54,54.54,0,0,0-54.49,54.48Z" transform="translate(-37.39 -30.71)"/><rect class="cls-2" x="139.82" y="269.32" width="1003.05" height="17.83"/><rect class="cls-2" x="139.82" y="412.86" width="1003.05" height="17.83"/><rect class="cls-2" x="139.82" y="556.39" width="1003.05" height="17.83"/><rect class="cls-2" x="139.82" y="700.45" width="1003.05" height="17.83"/><rect class="cls-2" x="396" y="637.95" width="25.05" height="93.21" transform="translate(779.65 1338.4) rotate(180)"/><rect class="cls-2" x="368.44" y="629.85" width="21.71" height="101.31" transform="translate(721.21 1330.3) rotate(180)"/><rect class="cls-2" x="340.67" y="629.85" width="21.71" height="101.31" transform="translate(580.42 1367.95) rotate(-173.03)"/><rect class="cls-2" x="1095.87" y="637.95" width="25.05" height="93.21" transform="translate(2179.39 1338.4) rotate(180)"/><rect class="cls-2" x="1068.32" y="629.85" width="21.71" height="101.31" transform="translate(2120.95 1330.3) rotate(180)"/><rect class="cls-2" x="1040.54" y="629.85" width="21.71" height="101.31" transform="translate(1974.98 1452.94) rotate(-173.03)"/><rect class="cls-2" x="212.5" y="712.93" width="102.42" height="18.23" transform="translate(490.03 1413.39) rotate(180)"/><rect class="cls-2" x="199.98" y="700.4" width="102.42" height="12.54" transform="translate(464.98 1382.62) rotate(180)"/><rect class="cls-2" x="210.05" y="687.86" width="98.19" height="12.54" transform="translate(480.9 1357.55) rotate(180)"/><rect class="cls-2" x="207.67" y="678.29" width="88.68" height="9.57" transform="translate(466.63 1335.44) rotate(180)"/><rect class="cls-2" x="704.1" y="712.93" width="102.42" height="18.23" transform="translate(1473.24 1413.39) rotate(180)"/><rect class="cls-2" x="691.58" y="700.4" width="102.42" height="12.54" transform="translate(1448.19 1382.62) rotate(180)"/><rect class="cls-2" x="701.65" y="687.86" width="98.19" height="12.54" transform="translate(1464.11 1357.55) rotate(180)"/><rect class="cls-2" x="699.27" y="678.29" width="88.68" height="9.57" transform="translate(1449.84 1335.44) rotate(180)"/><rect class="cls-2" x="688.21" y="665.75" width="102.42" height="12.54" transform="translate(1441.45 1313.33) rotate(180)"/><rect class="cls-2" x="698.28" y="653.22" width="98.19" height="12.54" transform="translate(1457.36 1288.26) rotate(180)"/><rect class="cls-2" x="695.9" y="643.64" width="88.68" height="9.57" transform="translate(1443.09 1266.15) rotate(180)"/><rect class="cls-2" x="627.33" y="629.85" width="17.46" height="100.91" transform="translate(1234.73 1329.9) rotate(180)"/><rect class="cls-2" x="842.02" y="625.23" width="17.46" height="105.53" transform="translate(1664.11 1325.28) rotate(180)"/><rect class="cls-2" x="894.91" y="629.85" width="17.46" height="100.91" transform="translate(1769.89 1329.9) rotate(180)"/><rect class="cls-2" x="605.26" y="621.53" width="22.07" height="109.23" transform="translate(1195.2 1321.58) rotate(180)"/><rect class="cls-2" x="916.01" y="621.53" width="22.06" height="109.23" transform="translate(1816.69 1321.58) rotate(180)"/><rect class="cls-2" x="583.2" y="626.74" width="22.06" height="104.02" transform="translate(1151.07 1326.79) rotate(180)"/><rect class="cls-2" x="799.4" y="611.7" width="22.07" height="118.04" transform="translate(1686.75 1161.37) rotate(170.1)"/><rect class="cls-2" x="561.13" y="642.69" width="22.06" height="88.07" transform="translate(1106.94 1342.74) rotate(180)"/><rect class="cls-2" x="944.88" y="642.69" width="22.06" height="88.07" transform="translate(1874.43 1342.74) rotate(180)"/><rect class="cls-2" x="539.07" y="637.95" width="22.07" height="92.81" transform="translate(1062.81 1338) rotate(180)"/><rect class="cls-2" x="513.48" y="637.95" width="22.06" height="92.81" transform="translate(1011.63 1338) rotate(180)"/><rect class="cls-2" x="970.01" y="637.95" width="22.06" height="92.81" transform="translate(1924.69 1338) rotate(180)"/><rect class="cls-2" x="487.29" y="629.85" width="22.06" height="100.91" transform="translate(959.25 1329.9) rotate(180)"/><rect class="cls-2" x="870.6" y="629.85" width="22.07" height="100.91" transform="translate(1725.88 1329.9) rotate(180)"/><rect class="cls-2" x="862.46" y="176.51" width="25.05" height="93.21"/><rect class="cls-2" x="893.35" y="168.41" width="21.7" height="101.31"/><rect class="cls-2" x="958.52" y="199.12" width="21.71" height="101.31" transform="translate(-60.55 88.85) rotate(-6.97)"/><rect class="cls-2" x="459.37" y="319.66" width="25.05" height="93.21"/><rect class="cls-2" x="490.26" y="311.56" width="21.71" height="101.31"/><rect class="cls-2" x="555.43" y="342.27" width="21.71" height="101.31" transform="translate(-80.92 40.97) rotate(-6.98)"/><rect class="cls-2" x="162.59" y="176.51" width="25.05" height="93.21"/><rect class="cls-2" x="193.48" y="168.41" width="21.71" height="101.31"/><rect class="cls-2" x="258.65" y="199.12" width="21.71" height="101.31" transform="translate(-65.72 3.86) rotate(-6.97)"/><rect class="cls-2" x="968.58" y="251.49" width="102.42" height="18.23"/><rect class="cls-2" x="981.11" y="238.96" width="102.42" height="12.54"/><rect class="cls-2" x="975.26" y="226.42" width="98.19" height="12.54"/><rect class="cls-2" x="987.15" y="216.85" width="88.68" height="9.57"/><rect class="cls-2" x="476.98" y="251.49" width="102.42" height="18.23"/><rect class="cls-2" x="489.5" y="238.96" width="102.42" height="12.54"/><rect class="cls-2" x="483.66" y="226.42" width="98.19" height="12.54"/><rect class="cls-2" x="495.55" y="216.85" width="88.68" height="9.57"/><rect class="cls-2" x="492.87" y="204.31" width="102.42" height="12.54"/><rect class="cls-2" x="487.03" y="191.78" width="98.19" height="12.54"/><rect class="cls-2" x="498.92" y="182.2" width="88.68" height="9.57"/><rect class="cls-2" x="638.71" y="168.41" width="17.46" height="100.91"/><rect class="cls-2" x="424.02" y="163.79" width="17.46" height="105.53"/><rect class="cls-2" x="371.13" y="168.41" width="17.46" height="100.91"/><rect class="cls-2" x="656.17" y="160.09" width="22.07" height="109.23"/><rect class="cls-2" x="345.43" y="160.09" width="22.06" height="109.23"/><rect class="cls-2" x="678.24" y="165.3" width="22.06" height="104.02"/><rect class="cls-2" x="499.42" y="180.97" width="22.06" height="118.05" transform="translate(11.49 -114.92) rotate(9.9)"/><rect class="cls-2" x="797.55" y="394.63" width="102.42" height="18.23"/><rect class="cls-2" x="810.08" y="382.09" width="102.42" height="12.54"/><rect class="cls-2" x="804.23" y="369.56" width="98.19" height="12.54"/><rect class="cls-2" x="816.12" y="359.98" width="88.68" height="9.57"/><rect class="cls-2" x="813.45" y="347.45" width="102.42" height="12.54"/><rect class="cls-2" x="807.6" y="334.91" width="98.19" height="12.54"/><rect class="cls-2" x="819.5" y="325.34" width="88.68" height="9.57"/><rect class="cls-2" x="820" y="324.1" width="22.07" height="118.05" transform="translate(40.88 -167.91) rotate(9.9)"/><rect class="cls-2" x="700.3" y="181.25" width="22.07" height="88.07"/><rect class="cls-2" x="316.56" y="181.25" width="22.06" height="88.07"/><rect class="cls-2" x="722.37" y="176.51" width="22.06" height="92.81"/><rect class="cls-2" x="747.96" y="176.51" width="22.07" height="92.81"/><rect class="cls-2" x="291.43" y="176.51" width="22.06" height="92.81"/><rect class="cls-2" x="715.38" y="303.63" width="22.06" height="109.23"/><rect class="cls-2" x="686.51" y="324.79" width="22.07" height="88.07"/><rect class="cls-2" x="661.38" y="320.05" width="22.07" height="92.81"/><rect class="cls-2" x="587.64" y="320.05" width="22.07" height="92.81"/><rect class="cls-2" x="556.84" y="320.05" width="22.07" height="92.81"/><rect class="cls-2" x="209.45" y="303.63" width="22.07" height="109.23"/><rect class="cls-2" x="275.49" y="334.34" width="22.07" height="109.23" transform="translate(-82.51 6.97) rotate(-6.98)"/><rect class="cls-2" x="180.58" y="324.79" width="22.07" height="88.07"/><rect class="cls-2" x="155.45" y="320.05" width="22.07" height="92.81"/><rect class="cls-2" x="774.15" y="168.41" width="22.07" height="100.91"/><rect class="cls-2" x="538.96" y="455.48" width="17.46" height="100.91"/><rect class="cls-2" x="556.42" y="447.16" width="22.07" height="109.23"/><rect class="cls-2" x="578.49" y="452.37" width="22.06" height="104.02"/><rect class="cls-2" x="600.55" y="468.32" width="22.06" height="88.07"/><rect class="cls-2" x="622.62" y="463.58" width="22.07" height="92.81"/><rect class="cls-2" x="648.21" y="463.58" width="22.06" height="92.81"/><rect class="cls-2" x="674.4" y="455.48" width="22.06" height="100.91"/><rect class="cls-2" x="938.49" y="311.95" width="22.06" height="100.91"/><rect class="cls-2" x="962.52" y="311.95" width="22.06" height="100.91"/><rect class="cls-2" x="390.84" y="168.41" width="22.07" height="100.91"/><rect class="cls-2" x="910.64" y="538.61" width="102.42" height="18.23"/><rect class="cls-2" x="923.17" y="526.07" width="102.42" height="12.54"/><rect class="cls-2" x="917.32" y="513.54" width="98.19" height="12.54"/><rect class="cls-2" x="929.21" y="503.96" width="88.68" height="9.57"/><rect class="cls-2" x="926.54" y="491.43" width="102.42" height="12.54"/><rect class="cls-2" x="920.69" y="478.89" width="98.19" height="12.54"/><rect class="cls-2" x="932.59" y="469.32" width="88.68" height="9.57"/><rect class="cls-2" x="857.69" y="450.9" width="17.46" height="105.53"/><rect class="cls-2" x="804.8" y="455.53" width="17.46" height="100.91"/><rect class="cls-2" x="779.1" y="447.21" width="22.07" height="109.23"/><rect class="cls-2" x="933.09" y="468.09" width="22.07" height="118.05" transform="translate(67.32 -185.21) rotate(9.9)"/><rect class="cls-2" x="750.23" y="468.37" width="22.07" height="88.07"/><rect class="cls-2" x="725.09" y="463.63" width="22.07" height="92.81"/><rect class="cls-2" x="492.95" y="447.21" width="22.06" height="109.23"/><rect class="cls-2" x="464.08" y="468.37" width="22.06" height="88.07"/><rect class="cls-2" x="438.94" y="463.63" width="22.06" height="92.81"/><rect class="cls-2" x="404.56" y="447.21" width="22.06" height="109.23"/><rect class="cls-2" x="375.69" y="468.37" width="22.06" height="88.07"/><rect class="cls-2" x="350.56" y="463.63" width="22.06" height="92.81"/><rect class="cls-2" x="824.5" y="455.53" width="22.06" height="100.91"/></g><path class="cls-3" d="M614.17,737.86l21.92-14.77A10.67,10.67,0,0,0,639,708.44l-3.44-5.22-5.85,3.85,3.43,5.22a3.63,3.63,0,0,1-1,5L610.25,732Z" transform="translate(-37.39 -30.71)"/><path class="cls-3" d="M556.86,651.9l22-14.8a3.64,3.64,0,0,1,5,.92l4.63,6.62,5.75-4L589.54,634a10.67,10.67,0,0,0-14.64-2.73l-22,14.8Z" transform="translate(-37.39 -30.71)"/><circle class="cls-3" cx="576.43" cy="703.5" r="5.99"/><path class="cls-3" d="M549.69,649.19a6,6,0,1,1,6,6A6,6,0,0,1,549.69,649.19Z" transform="translate(-37.39 -30.71)"/><path class="cls-3" d="M989.27,952.79c0-41.47.79-75.09,1.75-75.09s1.76,33.62,1.76,75.09-.79,75.09-1.76,75.09S989.27,994.26,989.27,952.79Z" transform="translate(-37.39 -30.71)"/><path class="cls-3" d="M989.27,757.62c0-41.47.79-75.09,1.75-75.09s1.76,33.62,1.76,75.09S992,832.71,991,832.71,989.27,799.09,989.27,757.62Z" transform="translate(-37.39 -30.71)"/><path class="cls-3" d="M1088.61,857c-41.47,0-75.09-.79-75.09-1.75s33.62-1.76,75.09-1.76,75.09.79,75.09,1.76S1130.08,857,1088.61,857Z" transform="translate(-37.39 -30.71)"/><path class="cls-3" d="M893.44,857c-41.47,0-75.09-.79-75.09-1.75s33.62-1.76,75.09-1.76,75.09.79,75.09,1.76S934.91,857,893.44,857Z" transform="translate(-37.39 -30.71)"/><path class="cls-3" d="M1058.79,925.45c-29.33-29.33-52.54-53.65-51.86-54.34s25,22.54,54.34,51.86,52.54,53.65,51.85,54.33S1088.11,954.77,1058.79,925.45Z" transform="translate(-37.39 -30.71)"/><path class="cls-3" d="M920.78,787.44c-29.32-29.32-52.54-53.65-51.85-54.33s25,22.53,54.33,51.85,52.54,53.65,51.86,54.34S950.11,816.77,920.78,787.44Z" transform="translate(-37.39 -30.71)"/><path class="cls-3" d="M1061.27,787.44c-29.33,29.33-53.65,52.54-54.34,51.86s22.53-25,51.86-54.34,53.65-52.54,54.33-51.85S1090.59,758.12,1061.27,787.44Z" transform="translate(-37.39 -30.71)"/><path class="cls-3" d="M923.26,925.45c-29.32,29.32-53.65,52.54-54.33,51.85s22.53-25,51.85-54.33,53.65-52.54,54.34-51.86S952.58,896.13,923.26,925.45Z" transform="translate(-37.39 -30.71)"/><path class="cls-3" d="M1081.36,892.17c-38.66-15-69.71-27.92-69.36-28.82s32,10.54,70.63,25.55,69.71,27.91,69.36,28.81S1120,907.18,1081.36,892.17Z" transform="translate(-37.39 -30.71)"/><path class="cls-3" d="M899.42,821.51c-38.65-15-69.71-27.91-69.36-28.81s32,10.53,70.63,25.55,69.71,27.91,69.36,28.81S938.08,836.53,899.42,821.51Z" transform="translate(-37.39 -30.71)"/><path class="cls-3" d="M1028,764.87c-15,38.66-27.92,69.71-28.82,69.36s10.53-32,25.55-70.63,27.91-69.71,28.81-69.36S1043,726.22,1028,764.87Z" transform="translate(-37.39 -30.71)"/><path class="cls-3" d="M957.33,946.81c-15,38.65-27.91,69.71-28.81,69.36s10.53-32,25.54-70.63,27.92-69.71,28.82-69.36S972.34,908.15,957.33,946.81Z" transform="translate(-37.39 -30.71)"/><path class="cls-3" d="M1081,817.47c-38,16.72-69,29.55-69.42,28.67s30.06-15.16,68-31.88,69-29.56,69.42-28.67S1119,800.75,1081,817.47Z" transform="translate(-37.39 -30.71)"/><path class="cls-3" d="M902.43,896.15c-37.95,16.72-69,29.56-69.42,28.67s30-15.15,68-31.87,69-29.56,69.43-28.67S940.38,879.43,902.43,896.15Z" transform="translate(-37.39 -30.71)"/><path class="cls-3" d="M953.28,765.2c16.72,37.95,29.56,69,28.67,69.42s-15.15-30.06-31.87-68-29.56-69-28.67-69.42S936.57,727.25,953.28,765.2Z" transform="translate(-37.39 -30.71)"/><path class="cls-3" d="M1032,943.8c16.72,38,29.56,69,28.67,69.42s-15.16-30.05-31.88-68-29.55-69-28.67-69.43S1015.25,905.85,1032,943.8Z" transform="translate(-37.39 -30.71)"/><path class="cls-3" d="M370.58,953.49c0-41.47.78-75.09,1.75-75.09s1.75,33.62,1.75,75.09-.78,75.09-1.75,75.09S370.58,995,370.58,953.49Z" transform="translate(-37.39 -30.71)"/><path class="cls-3" d="M370.58,758.32c0-41.47.78-75.09,1.75-75.09s1.75,33.62,1.75,75.09-.78,75.09-1.75,75.09S370.58,799.79,370.58,758.32Z" transform="translate(-37.39 -30.71)"/><path class="cls-3" d="M469.92,857.66c-41.47,0-75.09-.79-75.09-1.76s33.62-1.75,75.09-1.75,75.08.79,75.08,1.75S511.39,857.66,469.92,857.66Z" transform="translate(-37.39 -30.71)"/><path class="cls-3" d="M274.74,857.66c-41.47,0-75.08-.79-75.08-1.76s33.61-1.75,75.08-1.75,75.09.79,75.09,1.75S316.21,857.66,274.74,857.66Z" transform="translate(-37.39 -30.71)"/><path class="cls-3" d="M440.09,926.15c-29.32-29.33-52.54-53.65-51.85-54.34s25,22.53,54.33,51.86,52.54,53.65,51.86,54.33S469.42,955.47,440.09,926.15Z" transform="translate(-37.39 -30.71)"/><path class="cls-3" d="M302.09,788.14c-29.33-29.32-52.54-53.65-51.86-54.34s25,22.54,54.34,51.86,52.54,53.65,51.85,54.33S331.41,817.46,302.09,788.14Z" transform="translate(-37.39 -30.71)"/><path class="cls-3" d="M442.57,788.14c-29.32,29.32-53.65,52.54-54.33,51.86s22.53-25,51.85-54.34,53.65-52.54,54.34-51.86S471.9,758.82,442.57,788.14Z" transform="translate(-37.39 -30.71)"/><path class="cls-3" d="M304.57,926.15c-29.33,29.32-53.65,52.54-54.34,51.85s22.53-25,51.86-54.33,53.65-52.54,54.33-51.86S333.89,896.82,304.57,926.15Z" transform="translate(-37.39 -30.71)"/><path class="cls-3" d="M462.66,892.86C424,877.85,393,865,393.3,864.05s32,10.53,70.63,25.55,69.71,27.91,69.36,28.81S501.32,907.88,462.66,892.86Z" transform="translate(-37.39 -30.71)"/><path class="cls-3" d="M280.73,822.21c-38.66-15-69.71-27.91-69.36-28.82s32,10.54,70.63,25.55,69.71,27.92,69.36,28.82S319.39,837.22,280.73,822.21Z" transform="translate(-37.39 -30.71)"/><path class="cls-3" d="M409.29,765.57c-15,38.66-27.91,69.71-28.82,69.36S391,803,406,764.3s27.92-69.71,28.82-69.36S424.3,726.91,409.29,765.57Z" transform="translate(-37.39 -30.71)"/><path class="cls-3" d="M338.64,947.5c-15,38.66-27.92,69.72-28.82,69.37s10.54-32,25.55-70.63,27.91-69.72,28.82-69.37S353.65,908.85,338.64,947.5Z" transform="translate(-37.39 -30.71)"/><path class="cls-3" d="M462.34,818.16c-37.95,16.72-69,29.56-69.42,28.67s30.06-15.16,68-31.88,69-29.55,69.42-28.66S500.29,801.44,462.34,818.16Z" transform="translate(-37.39 -30.71)"/><path class="cls-3" d="M283.73,896.85c-38,16.72-69,29.56-69.42,28.67s30.06-15.16,68-31.88,69-29.55,69.42-28.67S321.68,880.13,283.73,896.85Z" transform="translate(-37.39 -30.71)"/><path class="cls-3" d="M334.59,765.89c16.72,38,29.56,69,28.67,69.43s-15.16-30.06-31.88-68-29.55-69-28.67-69.43S317.87,727.94,334.59,765.89Z" transform="translate(-37.39 -30.71)"/><path class="cls-3" d="M413.28,944.5c16.72,38,29.55,69,28.67,69.42s-15.16-30.06-31.88-68-29.56-69-28.67-69.42S396.56,906.55,413.28,944.5Z" transform="translate(-37.39 -30.71)"/><polygon class="cls-4" points="659.28 825.48 674.47 825.48 670.38 914.89 662.78 914.89 659.28 825.48"/><rect class="cls-4" x="684.39" y="935.81" width="39.74" height="14.9" rx="1" transform="translate(1371.14 1855.81) rotate(180)"/><path class="cls-3" d="M372.33,655.41c110.34,0,199.79,89.45,199.79,199.8S482.67,1055,372.33,1055,172.54,965.55,172.54,855.21,262,655.41,372.33,655.41Zm0,377.25A177.45,177.45,0,1,0,194.88,855.21,177.45,177.45,0,0,0,372.33,1032.66Z" transform="translate(-37.39 -30.71)"/><path class="cls-5" d="M372.33,644.07c116.61,0,211.14,94.53,211.14,211.14s-94.53,211.13-211.14,211.13S161.19,971.81,161.19,855.21,255.72,644.07,372.33,644.07Zm0,398.66c103.57,0,187.52-84,187.52-187.52s-84-187.53-187.52-187.53-187.52,84-187.52,187.53S268.76,1042.73,372.33,1042.73Z" transform="translate(-37.39 -30.71)"/><path class="cls-6" d="M401.52,538.92h0a9.64,9.64,0,0,0-9.26-11.11c-58.55-1.85-58.55-14.07-58.55-40.2,0-29.06-.78-51,118.24-51L454.39,417c-107.46,0-141.95,17.86-141.95,73,0,34.22,5.49,55.25,79.27,57A9.67,9.67,0,0,0,401.52,538.92Z" transform="translate(-37.39 -30.71)"/><circle class="cls-7" cx="334.94" cy="824.49" r="16.43"/><rect class="cls-5" x="553.1" y="637.88" width="459.1" height="14.03" transform="translate(-102.83 1170.2) rotate(-72.74)"/><path class="cls-3" d="M991,653.39c111.46,0,201.82,90.36,201.82,201.82S1102.48,1057,991,1057,789.21,966.67,789.21,855.21,879.57,653.39,991,653.39Zm0,381.06A179.25,179.25,0,1,0,811.78,855.21,179.24,179.24,0,0,0,991,1034.45Z" transform="translate(-37.39 -30.71)"/><path class="cls-5" d="M991,644.07c116.61,0,211.14,94.53,211.14,211.14S1107.63,1066.34,991,1066.34,779.89,971.81,779.89,855.21,874.42,644.07,991,644.07Zm0,398.66c103.57,0,187.53-84,187.53-187.52s-84-187.53-187.53-187.53-187.52,84-187.52,187.53S887.46,1042.73,991,1042.73Z" transform="translate(-37.39 -30.71)"/><path class="cls-3" d="M684.12,863.59H973.27a12.94,12.94,0,0,0,11.8-18.28L833,508.74H443.28Zm287.49-14H691.55L469.74,522.76H824Z" transform="translate(-37.39 -30.71)"/><path class="cls-6" d="M446.89,414.28l14,.35c-.11,4.64-1.42,42.18-5.59,94.11H441.69C445.72,454.13,446.86,415.46,446.89,414.28Z" transform="translate(-37.39 -30.71)"/><path class="cls-7" d="M367.37,857.36c31.17-42.81,50.36-136.12,62.06-226.14H442c-13.14,92.57-34.95,188.6-70.77,229.49Z" transform="translate(-37.39 -30.71)"/><path class="cls-3" d="M441.69,508.74h13.63c-2.89,36-7.17,78.84-13.37,122.48H429.43C435.11,587.57,439,544.69,441.69,508.74Z" transform="translate(-37.39 -30.71)"/><polygon class="cls-3" points="699.53 784.96 684.85 784.96 761.56 538.09 761.66 585.03 699.53 784.96"/><path class="cls-5" d="M704.26,785.76a66,66,0,1,1-66,66A66,66,0,0,1,704.26,785.76Zm0,117.12a51.1,51.1,0,1,0-51.09-51.1A51.1,51.1,0,0,0,704.26,902.88Z" transform="translate(-37.39 -30.71)"/><circle class="cls-5" cx="704.26" cy="851.78" r="24.72" transform="translate(-323.5 1311.66) rotate(-76.77)"/><polygon class="cls-5" points="673.31 886.21 955.72 839.24 955.33 809.75 672.06 754.85 670.65 761.72 948.22 815.51 948.46 833.34 672.1 879.29 673.31 886.21"/><path class="cls-3" d="M1003.78,855.21a16.43,16.43,0,1,1-16.42-16.43A16.42,16.42,0,0,1,1003.78,855.21Z" transform="translate(-37.39 -30.71)"/><circle class="cls-5" cx="949.97" cy="824.49" r="8.56"/><path class="cls-7" d="M425.26,626a4.21,4.21,0,0,1,4.11-3.62l13.75.57a4.26,4.26,0,0,1,4.1,4.53l-.83,13.27a4.39,4.39,0,0,1-5.1,4.28l-14.91-2.67c-2.08-.37-3.4-2.63-3-5Z" transform="translate(-37.39 -30.71)"/><path class="cls-3" d="M436.61,504.42a4.67,4.67,0,0,1,4.54-4l15.16.64a4.69,4.69,0,0,1,4.51,5l-1.6,23a4.84,4.84,0,0,1-5.63,4.71l-16.43-2.94c-2.3-.41-3.75-2.9-3.32-5.52Z" transform="translate(-37.39 -30.71)"/><polygon class="cls-8" points="801.55 393.21 826.53 393.21 826.53 411.18 794.54 421.26 801.55 393.21"/><path class="cls-7" d="M765.05,424.82c31.74-19.1,151.85-54.61,169.61-30.17,6.32,8.69-1.35,17.61-11.51,24.72-13.71,9.59-30.25,14.29-47,14.29H767.59A4.78,4.78,0,0,1,765.05,424.82Z" transform="translate(-37.39 -30.71)"/><path class="cls-4" d="M765.05,424.82c30.94-18.61,145.76-52.79,168-31.89-22.14,10.26-57.45,20.66-98,27.95a534.43,534.43,0,0,1-72.26,8.31A4.51,4.51,0,0,1,765.05,424.82Z" transform="translate(-37.39 -30.71)"/><circle class="cls-3" cx="334.94" cy="824.49" r="9.07"/><polygon class="cls-4" points="662.78 729.65 670.38 729.65 674.47 819.06 659.28 819.06 662.78 729.65"/><rect class="cls-4" x="684.39" y="757.44" width="39.74" height="14.9" rx="1" transform="translate(1371.14 1499.07) rotate(180)"/><path class="cls-4" d="M718.28,851.78a14,14,0,1,1-14-14A14,14,0,0,1,718.28,851.78Z" transform="translate(-37.39 -30.71)"/><path class="cls-9" d="M573.65,663.69l33.4-23.43,36.24,51.59c3.33,5.35,1,13-5.21,17.4L628,716.32c-6.25,4.39-14.24,3.94-18.14-1Z" transform="translate(-37.39 -30.71)"/><path class="cls-9" d="M566.17,649.87l30.41-21.35a.82.82,0,0,1,1.13.2l8.78,12.51L574.75,663.5,566,651A.8.8,0,0,1,566.17,649.87Z" transform="translate(-37.39 -30.71)"/><path class="cls-10" d="M566.83,659.81l38.88-27.29a.8.8,0,0,1,1.13.2l10.95,15.59a.51.51,0,0,1-.12.69l-39.41,27.65a.5.5,0,0,1-.69-.12l-10.94-15.59A.81.81,0,0,1,566.83,659.81Z" transform="translate(-37.39 -30.71)"/><rect class="cls-11" x="460.89" y="557.9" width="791.62" height="613.56"/><rect class="cls-12" x="460.89" y="558.03" width="179.25" height="613.56"/><rect class="cls-12" x="865.88" y="1129.63" width="163.12" height="41.26"/><rect class="cls-12" x="865.88" y="557.9" width="163.12" height="41.26"/><rect class="cls-12" x="683.1" y="1055.99" width="17.17" height="71.34"/><rect class="cls-12" x="708.78" y="1055.99" width="8.59" height="71.34"/><rect class="cls-12" x="723.66" y="1055.99" width="8.59" height="71.34"/><rect class="cls-12" x="741.64" y="1055.99" width="14.97" height="71.34"/><rect class="cls-12" x="765.83" y="1055.99" width="4.5" height="71.34"/><rect class="cls-12" x="781.07" y="1055.99" width="7.63" height="71.34"/><rect class="cls-12" x="793.89" y="1055.99" width="9.93" height="71.34"/><rect class="cls-12" x="809.66" y="1055.99" width="4.97" height="71.34"/><rect class="cls-12" x="821.38" y="1055.99" width="8.73" height="71.34"/><path class="cls-12" d="M871.73,810.79v48.62c0,11.21-5.78,19-15.18,19.16-7.95,0-13.19-6.14-13.19-15.72V810.79H806.85v62.36c0,23,14.09,37.6,34.7,37.6,13.19,0,23.49-5.79,30.18-16.27v14.64h36.51V810.79Zm0,0" transform="translate(-37.39 -30.71)"/><path class="cls-12" d="M984.7,809.35c-13.74,0-24.4,5.78-31.27,16.63V810.79H916.92v98.33h36.51V860.5c0-11.21,6.15-19,16.09-19.16,8.49,0,14.1,6.15,14.1,15.9v51.88h36.51V846.76c0-22.77-14.46-37.41-35.43-37.41Zm0,0" transform="translate(-37.39 -30.71)"/><rect class="cls-12" x="991.43" y="780.08" width="36.51" height="98.33"/><path class="cls-12" d="M887.22,957.53l12.11-22.95a86.45,86.45,0,0,0-43.2-11.93c-24.76,0-41.93,12.29-41.93,32.9,0,33.61,50.25,28.19,50.25,39.4,0,3.07-3.26,4.52-8.13,4.52-10.85,0-23.32-4.16-35.61-12.11l-11.21,22.95c12.84,9.22,28.92,13.92,46.27,13.92,25.67,0,43.2-12.29,43.2-32.54,0-33.62-51.33-28.74-51.33-39.76,0-3.07,2.89-4.7,7.41-4.7,7.77,0,18.8,3.44,32.17,10.3Zm0,0" transform="translate(-37.39 -30.71)"/><path class="cls-12" d="M972.77,992.78c-4.34,1.63-8.31,2.89-11.2,2.89-5.06,0-8.32-3.07-8.32-9.4V952.65h24.22V929.33h-24v-15H916.92v15H903.36v23.32h13.56v39.22c0,20.43,14.1,32.54,35.07,32.36,9.94,0,20.42-2.35,27.29-6.33Zm0,0" transform="translate(-37.39 -30.71)"/><path class="cls-12" d="M1034.87,923c-33.08,0-54.77,19.88-54.77,50.43,0,30.36,21.69,50.43,54.77,50.43s54.58-20.07,54.58-50.43c0-30.55-21.51-50.43-54.58-50.43Zm0,28.92c10.66,0,17.71,8.86,17.71,21.87,0,13.2-7,21.87-17.71,21.87-10.85,0-17.9-8.67-17.9-21.87,0-13,7-21.87,17.9-21.87Zm0,0" transform="translate(-37.39 -30.71)"/><path class="cls-12" d="M1131.1,939.82V924.27h-36.51v98.33h36.51v-47c0-14.28,12.11-22.23,30.91-19.88v-32.9c-13.37,0-24,6.15-30.91,17Zm0,0" transform="translate(-37.39 -30.71)"/><path class="cls-13" d="M1016,769.94l31.08-31.07L1078.15,770,1047.07,801Zm0,0" transform="translate(-37.39 -30.71)"/><rect class="cls-4" y="751.87" width="541.7" height="419.86"/><rect class="cls-14" y="751.96" width="122.66" height="419.86"/><rect class="cls-14" x="277.14" y="1143.1" width="111.63" height="28.24"/><rect class="cls-14" x="277.14" y="751.87" width="111.63" height="28.24"/><rect class="cls-14" x="152.06" y="1092.71" width="11.75" height="48.82"/><rect class="cls-14" x="169.63" y="1092.71" width="5.88" height="48.82"/><rect class="cls-14" x="179.81" y="1092.71" width="5.88" height="48.82"/><rect class="cls-14" x="192.12" y="1092.71" width="10.24" height="48.82"/><rect class="cls-14" x="208.67" y="1092.71" width="3.08" height="48.82"/><rect class="cls-14" x="219.1" y="1092.71" width="5.22" height="48.82"/><rect class="cls-14" x="227.87" y="1092.71" width="6.8" height="48.82"/><rect class="cls-14" x="238.66" y="1092.71" width="3.4" height="48.82"/><rect class="cls-14" x="246.69" y="1092.71" width="5.97" height="48.82"/><path class="cls-14" d="M292.94,934.62v33.27c0,7.67-4,13-10.39,13.11-5.44,0-9-4.2-9-10.76V934.62h-25v42.67c0,15.71,9.65,25.73,23.75,25.73,9,0,16.08-4,20.65-11.13v10h25V934.62Zm0,0" transform="translate(-37.39 -30.71)"/><path class="cls-14" d="M370.24,933.63c-9.39,0-16.69,4-21.39,11.38V934.62h-25v67.29h25V968.63c0-7.66,4.2-13,11-13.11,5.81,0,9.64,4.21,9.64,10.89v35.5h25V959.23c0-15.58-9.9-25.6-24.25-25.6Zm0,0" transform="translate(-37.39 -30.71)"/><rect class="cls-14" x="363.05" y="903.91" width="24.98" height="67.29"/><path class="cls-14" d="M303.54,1035l8.29-15.7a59.15,59.15,0,0,0-29.56-8.17c-16.95,0-28.7,8.41-28.7,22.51,0,23,34.39,19.3,34.39,27,0,2.1-2.23,3.09-5.57,3.09-7.42,0-15.95-2.85-24.36-8.29l-7.67,15.71c8.78,6.31,19.79,9.52,31.66,9.52,17.56,0,29.56-8.41,29.56-22.26,0-23-35.13-19.67-35.13-27.21,0-2.1,2-3.22,5.08-3.22,5.32,0,12.86,2.35,22,7Zm0,0" transform="translate(-37.39 -30.71)"/><path class="cls-14" d="M362.08,1059.15c-3,1.11-5.69,2-7.67,2-3.46,0-5.69-2.1-5.69-6.43v-23H365.3v-16H348.85v-10.3h-25v10.3h-9.27v16h9.27v26.84c0,14,9.65,22.27,24,22.14,6.8,0,14-1.61,18.67-4.33Zm0,0" transform="translate(-37.39 -30.71)"/><path class="cls-14" d="M404.57,1011.41c-22.63,0-37.47,13.61-37.47,34.51s14.84,34.51,37.47,34.51,37.36-13.73,37.36-34.51-14.72-34.51-37.36-34.51Zm0,19.79c7.3,0,12.13,6.06,12.13,15s-4.83,15-12.13,15-12.24-5.94-12.24-15,4.82-15,12.24-15Zm0,0" transform="translate(-37.39 -30.71)"/><path class="cls-14" d="M470.43,1022.91v-10.64h-25v67.29h25V1047.4c0-9.77,8.29-15.21,21.15-13.6v-22.51a24.07,24.07,0,0,0-21.15,11.62Zm0,0" transform="translate(-37.39 -30.71)"/><path class="cls-15" d="M391.66,906.67l21.26-21.27,21.27,21.27-21.26,21.26Zm0,0" transform="translate(-37.39 -30.71)"/><path class="cls-16" d="M870.87,226.06s18.9,28,29.67,86.76c9.44,51.49,17.72,70.5,31.36,81.06s89.59,41.73,89.59,41.73l-5.68,13.31S904.47,433.75,892,415.15,831.79,286.6,835.49,261.28,870.87,226.06,870.87,226.06Z" transform="translate(-37.39 -30.71)"/><path class="cls-16" d="M1143.49,840.22c-1,10.86,14.12,13.5,31.62,14.37s12.22,4.46,36.21,8.81,33.61-2.22,35.35-5.47c1.55-2.87-9.61-7.37-21.5-12.45l-4.49-2c-13.38-5.88-20.89-17.88-31.32-29-9.88-10.54-19.26-44.28-19.26-44.28l-32.6-7s9.15,30.36,12.33,43.33c1.87,7.62-.89,16.15-3.34,22.63A42.79,42.79,0,0,0,1143.49,840.22Z" transform="translate(-37.39 -30.71)"/><path class="cls-17" d="M1175.11,854.59c17.51.88,12.22,4.46,36.21,8.81s33.61-2.22,35.35-5.47c1.55-2.87-9.61-7.37-21.5-12.45l-.18.2a68.27,68.27,0,0,1-36.34.43c-15.88-4.31-31.22-13.79-42.16-16.86a42.79,42.79,0,0,0-3,11C1142.49,851.08,1157.61,853.72,1175.11,854.59Z" transform="translate(-37.39 -30.71)"/><path class="cls-18" d="M818.81,453.59s216.66-16.31,257.45,9.44,106.21,325.58,106.21,325.58-4,3.24-13.06,4.21c-8.38.91-26.86-4-26.86-4s-94-134.16-100.63-168-5-64-20.08-64.76-203.05,22.85-231.49-27.24-4.92-99.68-4.92-99.68Z" transform="translate(-37.39 -30.71)"/><path class="cls-16" d="M1060.59,875c-1,10.86,14.11,13.5,31.62,14.37s12.22,4.46,36.21,8.81,33.61-2.22,35.35-5.47c1.54-2.87-9.61-7.37-21.5-12.45-1.5-.64-3-1.29-4.49-1.95-13.38-5.88-20.89-17.88-31.32-29-9.88-10.53-19.26-44.27-19.26-44.27l-32.61-7s9.16,30.37,12.34,43.34c1.87,7.62-.89,16.14-3.34,22.63A42.79,42.79,0,0,0,1060.59,875Z" transform="translate(-37.39 -30.71)"/><path class="cls-17" d="M1092.21,889.39c17.51.88,12.22,4.46,36.21,8.81s33.61-2.22,35.35-5.47c1.54-2.87-9.61-7.37-21.5-12.45l-.19.2a68.27,68.27,0,0,1-36.34.43c-15.87-4.31-31.22-13.79-42.15-16.86a42.79,42.79,0,0,0-3,11C1059.59,885.88,1074.7,888.52,1092.21,889.39Z" transform="translate(-37.39 -30.71)"/><path class="cls-19" d="M776.38,467s192.47,9.11,232.22,36.42,93.45,329.47,93.45,329.47-4.16,3.08-13.21,3.7c-8.41.58-26.67-5.07-26.67-5.07s-88.72-137.71-94-171.74-2.51-64.11-17.54-65.5-203.79,14.93-230.25-36.23S776.38,467,776.38,467Z" transform="translate(-37.39 -30.71)"/><path class="cls-17" d="M862.55,53.75C855.19,46.64,845,43.46,837.67,42c2.35-1.44,6.19-1.2,6.19-1.2-4.31-1.81-15.45.06-15.45.06-56.15-40-89.47,49.25-93.63,70.9S723,164.4,696.53,191.24c-67.85,68.84,29.09,148.5,29.09,148.5.41.41,48.66-102.84,97.1-119.43,13.91-12.27,24.23-37.6,25-39.6-7.08,20.37-13.64,31.13-18.51,36.88C872.64,194.29,882.07,72.59,862.55,53.75Z" transform="translate(-37.39 -30.71)"/><path class="cls-16" d="M768.29,193.85a217,217,0,0,1,35.85,0,114.82,114.82,0,0,1,31.1,7.8c17,7.09,15.19,37.13-20.41,31.56S765.8,202.75,768.29,193.85Z" transform="translate(-37.39 -30.71)"/><path class="cls-16" d="M833.74,215.75c.21.11,5.08,25.83-18.23,24.8-15.3-.67-48.29-19.18-45.38-32.28,1.39-6.23,13-22.38,15.27-59.26l2.79.74L835,162.32s-2.08,14.86-3,28.92C831.15,203.06,831.12,214.31,833.74,215.75Z" transform="translate(-37.39 -30.71)"/><path class="cls-20" d="M835,162.32s-2.08,14.86-3,28.92c-26.5-2.51-38.93-27.67-43.78-41.49Z" transform="translate(-37.39 -30.71)"/><path class="cls-17" d="M783.78,141.57s-8-24.81-6.6-43.9c1-13.62,20.05-60.23,66.81-40.82a68.21,68.21,0,0,1,24.7,17.35c8.71,9.83,20,29.09-7.84,66.88l-8.07,13.11Z" transform="translate(-37.39 -30.71)"/><path class="cls-16" d="M836.27,183.88S775,169.24,784.72,131.24s8.33-65.49,47.85-57.75S876,97.66,875.8,111.13,852.45,186.71,836.27,183.88Z" transform="translate(-37.39 -30.71)"/><path class="cls-17" d="M860.59,79.68S832.46,120,805.14,120s-36.68-9.7-36.68-9.7S792.12,99.72,803.2,73.5C803.2,73.5,853.43,55.24,860.59,79.68Z" transform="translate(-37.39 -30.71)"/><path class="cls-17" d="M855.52,82.24s9.92,13.15,10.48,23.61-3.18,30.72,2.8,31.53c0,0,20.35-27.07,10.61-47.84C869.07,67.53,855.52,82.24,855.52,82.24Z" transform="translate(-37.39 -30.71)"/><path class="cls-21" d="M905.93,456.86c-5.09,6.09-21,7.95-38,10.75-13.36,2.21-27.41,5-37.39,10.84-22.67,13.31-96.75,58.3-118.46,56.25-8.42-.79-6.85-16.86-1.75-38.18,8-33.67,24.83-80.43,24.83-100.77,0-11.09,3.69-37.35,8.62-67.37q.6-3.63,1.22-7.33c9.75-58.37,23.26-127.2,23.26-127.2s15.06,32.87,44.42,32.87,22.53-25.06,22.53-25.06,26.79,3.15,33.11,10,22.38,36.28,25.57,44.32c0,0,.65,10.22-24.67,15.09,0,0,6.17,27.75,6.9,46.25.54,13.67-9.33,56.44-12.17,83.05-1,9.42-1.14,16.82.39,20.17,2,4.3,8.3,8.58,15.51,12.78C894.18,441.61,912,449.63,905.93,456.86Z" transform="translate(-37.39 -30.71)"/><path class="cls-21" d="M879.88,433.28c16.24,27.7-44.07,36-54,41.89-22.68,13.31-92,61.58-113.72,59.53-8.42-.79-6.85-16.86-1.75-38.18,8-33.67,24.83-80.43,24.83-100.77,0-11.09,3.69-37.35,8.62-67.37L770,303.28s28,72.38,54.69,84.24A223.75,223.75,0,0,0,864,400.33c-1,9.42-1.14,16.82.39,20.17C866.33,424.8,872.67,429.08,879.88,433.28Z" transform="translate(-37.39 -30.71)"/><path class="cls-16" d="M760.26,215.52s-22.35-13.57-44,12.17,15.35,209.76,47.37,219.21c35.56,10.5,142.25,10,142.25,10l-4.46-12.94S790.63,408.2,786.08,402.35,771.62,218.48,760.26,215.52Z" transform="translate(-37.39 -30.71)"/><path class="cls-21" d="M768.29,193.85S722.4,198,709.07,213.08s-17.22,56-17.22,56,40.41,32.63,89.1,20Z" transform="translate(-37.39 -30.71)"/><path class="cls-22" d="M1053.12,390.65l4.38-40.25-56.93,75s23.84,11.87,25.24,9.6S1053.12,390.65,1053.12,390.65Z" transform="translate(-37.39 -30.71)"/><polygon class="cls-17" points="930.55 359.94 877.97 440.24 966.28 440.24 1015.73 359.94 930.55 359.94"/><polygon class="cls-23" points="1015.73 359.94 1019.87 320.08 990.11 357.3 1015.73 359.94"/><polygon class="cls-24" points="880.67 436.11 876.63 433.23 928.89 355.58 930.55 359.94 880.67 436.11"/><polygon class="cls-24" points="928.89 355.58 1012.08 357.91 1015.73 359.94 930.55 359.94 928.89 355.58"/><path class="cls-16" d="M948.91,455a30.38,30.38,0,0,0-5.67-.05c6.35-3,12.75-6.16,12.75-6.16s-2.85-2.93-13.77.95a8.19,8.19,0,0,1-3.68.41l15.31-6.88c-2.72-2.46-10.06-.5-15.77,1.59A12.55,12.55,0,0,1,926,443l-.16-.13c.25,0,.48,0,.75-.08,8.93-1.31,11.21-6.42,8.72-5.84s-17.45,1.68-17.45,1.68c-6.77-.39-20.19,4.78-20.19,4.78l7.51,13.84s21.56,4,27.18,2.28c.45-.14,1-.33,1.6-.56h0l19.6-1.29S953.23,455.59,948.91,455Z" transform="translate(-37.39 -30.71)"/></svg>