<svg xmlns="http://www.w3.org/2000/svg" viewBox="0 0 194.55 349.46"><defs><style>.cls-1{fill:#96909d;}.cls-2{fill:#2c2a40;}.cls-3{fill:#fbccaa;}.cls-4{fill:#562562;}.cls-5{fill:#fff;}.cls-6{fill:#efb991;}</style></defs><g id="OBJECTS"><path class="cls-1" d="M26.23,283.14a6.43,6.43,0,0,0,4.3-2.22l.11-.12h0c2.09-2.26,3.6-5.69,5.09-8.27a16.3,16.3,0,0,1,1.31-2c1.41-1.77,3.86-6.43,6-10.72l.32-.65c2.07-4.19,3.77-7.87,3.77-7.87a36,36,0,0,0-2.05-4.66,20.16,20.16,0,0,0-1.28-2.14,6.94,6.94,0,0,0-3.17-2.82c-3.59-1.1-6.92,1.28-9.69,4.5s-10.15,16.44-11.37,22c0,.11-.05.23-.07.34C18.24,275.4,20.61,283.47,26.23,283.14Z" transform="translate(-19.17 -10.77)"/><path class="cls-2" d="M26.23,283.14a6.49,6.49,0,0,0,4.41-2.34c-3.91,1.88-6.29.74-7.66-.81-1.72-1.94-2.36-7.26-1.91-9.51,1.09-5.47,5.14-14.05,7.2-17.47s6.14-9,10.11-9.6a8.76,8.76,0,0,1,5.42,1.07,6.94,6.94,0,0,0-3.17-2.82c-3.59-1.1-6.92,1.28-9.69,4.5s-10.47,17-11.44,22.3C18.24,275.4,20.61,283.47,26.23,283.14Z" transform="translate(-19.17 -10.77)"/><path class="cls-1" d="M115.92,331.77c.06,3,2.42,22.88,8.9,26.9,3.27,2,5.15,1.95,6.09.43a7.63,7.63,0,0,0,.79-3.87,32.75,32.75,0,0,0-.27-4.08c-.89-7.29-1-24.16,5.41-27.82,0,0-1.17-8.71-4.17-14.07a8.92,8.92,0,0,0-3.22-3.61,72.21,72.21,0,0,0-7.29.4,30.82,30.82,0,0,0-4.39.53c-2,.55-3.86,1.91-4.34,5.65C112.59,318.81,115.86,328.76,115.92,331.77Z" transform="translate(-19.17 -10.77)"/><path class="cls-2" d="M115.92,331.77c.06,3,2.42,22.88,8.9,26.9,3.27,2,5.15,1.95,6.09.43a8.83,8.83,0,0,1-6-2.23c-2.81-2.42-6.35-16.07-6.15-20.47s-1.6-12.42-3.2-18.56c-1.21-4.66,1-9.28,2.2-11.26-2,.55-3.86,1.91-4.34,5.65C112.59,318.81,115.86,328.76,115.92,331.77Z" transform="translate(-19.17 -10.77)"/><path class="cls-2" d="M116.48,121.11s-39,1-46.46,19,16,69.43,28.65,75.61,30.46-1.36,36.5-7.74S131.17,126.53,116.48,121.11Z" transform="translate(-19.17 -10.77)"/><path class="cls-3" d="M92.12,169a49.14,49.14,0,0,1-3,15.15s-.87,5.27-2.23,11.8h0c-1.6,7.69-3.16,13.34-5.46,18a80.14,80.14,0,0,0-4.31,10.66c-.12.35-.22.7-.33,1h0c-.91,3-1.32,4.83-1.32,4.83l-8.56-2.85s-.53-9-.37-13.93c.19-6.08-.45-18,3.44-27.83h0a17.25,17.25,0,0,1,1-2.15,160,160,0,0,1,2.68-16.13,17.86,17.86,0,0,1,1.72-4.82S88,161.44,92.12,169Z" transform="translate(-19.17 -10.77)"/><path class="cls-3" d="M74.18,223.81l8.2,5.81a3.38,3.38,0,0,1,1.41,2.67l.13,7.9a1.69,1.69,0,0,1-1.68,1.73h0a1.7,1.7,0,0,1-1.67-1.28l-1.89-7.45-1.94-.7L78,236.93l1.49,4,3.74,4.68a1.52,1.52,0,0,1-.3,2.18h0a1.52,1.52,0,0,1-2-.17L76,242.53l-3.3-4.05,2.6,5.08,5,7.47a1.45,1.45,0,0,1,0,1.63h0a1.46,1.46,0,0,1-2.24.22l-5.42-5.39-3.08-4.8,2.71,8.47,2.4,5.42a1.32,1.32,0,0,1-.51,1.65h0a1.32,1.32,0,0,1-1.81-.42l-3.48-5.64-2.52-6.53,1.62,5.63.89,1.92a.79.79,0,0,1-.38,1.06h0a.81.81,0,0,1-1-.26l-1.33-1.84-2-4.65,2.76-20S68.07,224.8,74.18,223.81Z" transform="translate(-19.17 -10.77)"/><path class="cls-3" d="M154.89,105.93c8.73-17.21,5.18-39.81,4.56-45.53a8.29,8.29,0,0,0-.64-2h0c-3.31-7.86-18.29-29.06-21.7-33.84l-.53-.74-.16-.23-10.51,4.89s7.06,7.39,9.84,16.67,9.43,21.43,9.43,21.43C142.25,77.28,142,91.36,142,91.36,147.11,103.29,154.89,105.93,154.89,105.93Z" transform="translate(-19.17 -10.77)"/><path class="cls-3" d="M136.39,24.38a61,61,0,0,1-8.4,6c-.32.14-.74-.06-1.15-.37a12.37,12.37,0,0,1-4.55-.65c-.8-.39-.76-1.54-.52-2.74-1.93-.52-5.64-3.58-5.52-6.41.13-3.07,3.44-3.22,3.44-3.22a2.84,2.84,0,0,1,3.5-2.88c.21-1.53,3-2.14,3-2.14.31-1.31,2.14-1.49,3.21-.95s7.33,8.17,7.58,9.54A9.93,9.93,0,0,1,136.39,24.38Z" transform="translate(-19.17 -10.77)"/><path class="cls-2" d="M39.77,265.4c1.86,1.38,1,1.69,2.83,2.68a73.22,73.22,0,0,1,6.72,5h0C61.5,286,82,306.12,93.12,307.65c10.47,1.44,26.09-27.95,36.06-49.52h0c.11-.16,4.17-6.15,10.25-4.39s28.82,23.08,39.26,28.46c0,0-14,.72-18.56,6.58s-17.3,11.47-19.62,12.39-3.51-.11-5.66,1.31-5.4,3.17-5.4,3.17c-.09,6.53,2.34,12.18,7.11,17.85a23.53,23.53,0,0,1,3.89-1.64c2.65-.78,8.23-2.25,9.22-4.08s35.46-9.08,35.46-9.08,26.48-5.25,28.53-17.82-51.7-69-51.7-69l-4.17-18.11L138.39,207h0L103,209.62s-6,16.29-7.76,31c-1.15,9.83-7.65,33.19-7.65,33.19s-6-6.17-17.65-11.15c-3-1.28-6.05-2.67-9-4h0s-4.42-2.22-6-4.36-2.48-1.31-4.15-1.81-3.08-2.53-4.19-2.32a2.1,2.1,0,0,0-1.44.76c-2.84,2.67-4.12,4.43-6,11C39.18,261.82,37.92,264,39.77,265.4Z" transform="translate(-19.17 -10.77)"/><path class="cls-4" d="M165,220.57s-35.5,11.56-54.67,6.38c-1.43-.39-13.09-2.75-13.09-2.75s6.58-25,4.74-41.57c-.48-4.4-1.52-13.08-4.63-21-1.11-2.82-2.25-5.69-3.37-8.48-3.33-8.26-6.43-15.79-7.8-19.09a15.51,15.51,0,0,1,5.72-2.58H92a94.81,94.81,0,0,0,11.46-2.65h0a60.84,60.84,0,0,0,16.66-7.68l4.8-2.67,5-2.81s6.2,2.24,12.64,11.44a41.68,41.68,0,0,1-5.35,5.36,29.51,29.51,0,0,0,5.21,2.62,19.46,19.46,0,0,0,3.49-2.53c4.08,7.56,7.82,18.34,9.65,33.59,1.65,13.85,4.56,30,6.71,41.1C163.84,215.23,165,220.57,165,220.57Z" transform="translate(-19.17 -10.77)"/><path class="cls-2" d="M113,134.7c-6.58-.56-8.09-3.7-9.5-5.84a60.84,60.84,0,0,0,16.66-7.68l3.15-1.77c.9,0,3.13,1.66,3.13,5C126.4,128.87,121.71,135.45,113,134.7Z" transform="translate(-19.17 -10.77)"/><path class="cls-2" d="M121.68,88.43s4.85-3.67,2.86-11c0,0-1.62,2.79-3.1,3.07,0,0,3.75-10.14-7.71-15.79,0,0,1.34,5.58,0,7.44,0,0-3-6.46-7.51-7.79,0,0,.68,11.31-6.34,13.6-5,1.63-11.47,7.44-13.25,17,0,0-2.9-.83-4,.31,0,0,3.73.62,4.24,3a2.66,2.66,0,0,0-2.74.21s2.63.54,3,2.6,10.37,17.8,16.38,20.42S121.68,88.43,121.68,88.43Z" transform="translate(-19.17 -10.77)"/><path class="cls-3" d="M106.14,123.84l.8,4.61a3,3,0,0,0,2.22,2.43c9.94,2.59,14.32-3.59,14.82-6-1.28-.51-24-9.72-27.78-18.45C96.2,106.45,98.6,118.19,106.14,123.84Z" transform="translate(-19.17 -10.77)"/><path class="cls-3" d="M124.56,98.09a12.6,12.6,0,0,1,1.84,3.73,12.94,12.94,0,0,1,.53,3.56l0,8.08a7,7,0,0,1-4.73,6.65,23.6,23.6,0,0,1-12.5,1c-8.82-1.91-13-12.6-13-12.6S93,97.47,100.43,89.83c5.12-5.29,12-6.33,15.74-6.47a4.26,4.26,0,0,1,3.89,2.18l2.84,5.06q.33.6.6,1.23a12.65,12.65,0,0,1,1,4.47Z" transform="translate(-19.17 -10.77)"/><path class="cls-5" d="M125,105.16l-12.48,3.57s3.92,6,10.26,3.28C127.75,109.92,125,105.16,125,105.16Z" transform="translate(-19.17 -10.77)"/><path class="cls-6" d="M121.44,120.18s-7.82,2-15.9-6.83c0,0-.36,4.56,4,9.21S124,124.9,124,124.9Z" transform="translate(-19.17 -10.77)"/><path class="cls-3" d="M99.11,105.58s-4-3.44-6.5-.2,3.16,12.38,7.23,8.65S99.11,105.58,99.11,105.58Z" transform="translate(-19.17 -10.77)"/><path class="cls-2" d="M97.58,93.14s3,3.67.57,7.51l2.55,5.87-2.64.68-2.19-3.26-1.7-8.42S96.22,91.66,97.58,93.14Z" transform="translate(-19.17 -10.77)"/><path class="cls-4" d="M161.78,99s-.32,1.6-1,4.14c-2.15,8.2-7.92,26.19-18.34,32a29.51,29.51,0,0,1-5.21-2.62c-4.39-2.75-9.89-7.72-9.39-15.24,0,0,8.94-14.85,12.73-25.3.35-.95.65-1.87.9-2.74l16.62,8Z" transform="translate(-19.17 -10.77)"/><path class="cls-2" d="M161.78,99s-.32,1.6-1,4.14c-3.9-3-16.29-9.2-20.21-11.13.35-.95.65-1.87.9-2.74l16.62,8Z" transform="translate(-19.17 -10.77)"/><path class="cls-4" d="M99,147.11a31.27,31.27,0,0,1-.69,3.3l-1,11.26-1.12,10.84-.32,3.14c-1.89,2.65-8.29,2.89-14.34,2.45h0a109.42,109.42,0,0,1-12.32-1.68s.16-1.22.52-3.31a150.29,150.29,0,0,1,6.71-25.54c2.68-7.26,6.51-11.27,9.7-13.46a15.51,15.51,0,0,1,5.72-2.58H92C100.21,132.28,99.83,141.9,99,147.11Z" transform="translate(-19.17 -10.77)"/><path class="cls-2" d="M96.21,172.51l-.32,3.14c-1.89,2.65-8.29,2.89-14.34,2.45h0a109.42,109.42,0,0,1-12.32-1.68s.16-1.22.52-3.31a73.54,73.54,0,0,0,14.58,1.69A26.44,26.44,0,0,0,96.21,172.51Z" transform="translate(-19.17 -10.77)"/><path class="cls-2" d="M121.53,120.39s13-2,21.23,5.36,16.43,22.72,11.45,32l2,13.37s13.58-21.32-1-42c-9.8-13.9-22.32-14.24-28.65-13.3a6.79,6.79,0,0,1-4.31,4.18Z" transform="translate(-19.17 -10.77)"/><path class="cls-2" d="M90.23,132s3.72-8.49,10.65-7.51,27.66,29.16,23.27,49.88-22.31,22.93-22.31,22.93-3.47-5.26.43-10.16a22,22,0,0,0,15-16.38c3.18-13.49-12.85-40.86-18.74-41.7-2.12-.3-3.72,2-3.72,2S92.28,131.68,90.23,132Z" transform="translate(-19.17 -10.77)"/></g></svg>