<svg xmlns="http://www.w3.org/2000/svg" viewBox="0 0 177.62 300.59"><defs><style>.cls-1{fill:#dd4a26;}.cls-2{fill:#f26122;}.cls-3{fill:#00497b;}.cls-4{fill:#fbccaa;}.cls-5{fill:#210d28;}.cls-6{fill:#d80b65;}.cls-7{fill:#2c2a40;}.cls-8{fill:#3e86aa;}.cls-9{fill:#fff;}.cls-10{fill:#efb991;}.cls-11{fill:#461b51;}.cls-12{fill:#562562;}</style></defs><g id="OBJECTS"><path class="cls-1" d="M138.62,315.74s6.11-1.07,5.75-9.16-3.06-19.22-8.45-22.46-9.32,1.44-9.32,1.44Z" transform="translate(-15.91 -15.15)"/><path class="cls-2" d="M114.54,284.12c.18,2.7,2.7,6.65,8.09,9.53s8.26,13.11,10.69,17.6a9.65,9.65,0,0,0,3.3,3.79,4.29,4.29,0,0,0,2,.7s0-.7,0-1.93a91.93,91.93,0,0,0-1.16-14.95C136,290.05,130.81,287,130.81,287c-.95-1.62-3-2.78-5.34-3.51-3.82-1.2-8.4-1.25-10.17-.35C114.79,283.39,114.52,283.72,114.54,284.12Z" transform="translate(-15.91 -15.15)"/><path class="cls-1" d="M135.43,297.42c1.27,5.39,1.85,14.29,1.19,17.62a4.29,4.29,0,0,0,2,.7,90.39,90.39,0,0,0-1.12-16.88C136,290.05,130.81,287,130.81,287c-.95-1.62-3-2.78-5.34-3.51C128.56,286.58,134.35,292.85,135.43,297.42Z" transform="translate(-15.91 -15.15)"/><path class="cls-3" d="M119.33,188.81a10.75,10.75,0,0,0,7.16-7.45l-6.29-2.79S117.74,185,119.33,188.81Z" transform="translate(-15.91 -15.15)"/><path class="cls-4" d="M119.33,178c8.63,13.11,28.09,16.52,28.09,16.52,4-1.17,9.4-6.78,14.71-13.62h0c10.09-13,20-30.44,20-30.44L174,147.72s-14.19,15.67-20.3,19.08-7.91,6.65-7.91,6.65a21.06,21.06,0,0,0-2.16-2,56.86,56.86,0,0,0-10.32-6.38C126.4,163.12,119.33,178,119.33,178Z" transform="translate(-15.91 -15.15)"/><path class="cls-5" d="M36.59,212.36s-.46,26.51,3.27,43.25,19.62-27.4,19.62-27.4S45.23,215.69,36.59,212.36Z" transform="translate(-15.91 -15.15)"/><path class="cls-5" d="M92.16,227.89s-.34,15.63-10.58,26.68a75.29,75.29,0,0,0-14.64,24s15.33-7,25.22-5.12c0,0,5.18.27,7.07-1.88s2.42-4.72,5.39-3.91,7.14-.13,8.22-.27,8,10.78,6.6,17.92c0,0-5.39,1.48-6.06,2.43s-4.58,5-7,4.85-8.89,3.64-8.89,3.64S64.15,308.89,61.1,311c-5.14,3.6-29.38,7.54-31.53-6.07s19-78.28,22-85.29S88.6,219.4,92.16,227.89Z" transform="translate(-15.91 -15.15)"/><path class="cls-4" d="M35.36,34.93l4.06,17.32,0,.11a67.57,67.57,0,0,0,1.14,7.45c1,4.71,2.71,10.71,5.67,15a17.67,17.67,0,0,0,1.45,1.83S50.28,86.5,53.06,95h0c1.63,5,3.33,9.6,4.62,11.4,0,0,16.42-3.09,12.49-12.91,0,0-5.59-12.8-10-22.24h0c-.85-1.82-1.66-3.52-2.37-5l-5-11.49L50.36,49.3,43,32.6Z" transform="translate(-15.91 -15.15)"/><path class="cls-6" d="M53.16,107.08a43.79,43.79,0,0,0,6.59,20.71c2,2.16,4.62,2.16,7.24,1,6.68-2.87,13.74-13,13.74-13L71.11,95.52l-.94-2C64.74,95,59.23,98.88,56,101.41c-1.73,1.37-2.78,2.35-2.78,2.35A24.11,24.11,0,0,0,53.16,107.08Z" transform="translate(-15.91 -15.15)"/><path class="cls-7" d="M53.16,107.08c4.5-4.47,14.79-9.93,18-11.56l-.94-2c-8.37,2.29-16.91,10.23-16.91,10.23A24.11,24.11,0,0,0,53.16,107.08Z" transform="translate(-15.91 -15.15)"/><path class="cls-6" d="M31.32,215.76C43.83,232,96.1,233,96.1,233s-1.85-21.45,0-32.07c2-11.68,3.8-28.83,3.8-28.83,4.78,3.49,12.09,10,16.24,13.77,1.94,1.76,3.19,2.93,3.19,2.93a52,52,0,0,1,5-14c4.29-7.78,9-9.75,9-9.75l-2.19-2.86-15.87-20.72-17-14.12-2.94-2.43-13.41-8.6-5.5-3.52s-14.2,6-18.24,12.12S44.8,159.68,42,173.72c-3.68,18.21-8.1,33.62-9.86,39.5h0C31.6,214.87,31.32,215.76,31.32,215.76Z" transform="translate(-15.91 -15.15)"/><path class="cls-7" d="M89.87,130.51c3.1-.61,4.68-2.34,7-4.25l-1.62-1.34L81,113.56c-1.9,1.2-4.27,2.39-4.6,7.21C75.88,128,83.55,131.75,89.87,130.51Z" transform="translate(-15.91 -15.15)"/><path class="cls-7" d="M116.14,185.88c1.94,1.76,3.19,2.93,3.19,2.93,4.29-19.67,14-23.76,14-23.76l-2.19-2.86A38.19,38.19,0,0,0,116.14,185.88Z" transform="translate(-15.91 -15.15)"/><path class="cls-7" d="M106,108.27s.28,7.81-8.72,9.41C97.31,117.68,99.56,107.47,106,108.27Z" transform="translate(-15.91 -15.15)"/><path class="cls-6" d="M91.28,91.54c5.44,8.74,14.22,16.09,14.22,16.09s18.75-9.06,12.59-23.93a26,26,0,0,0-5.89-9h0c-9.38-9-21.88-3.16-21.88-3.16C84.87,77.17,87.07,84.77,91.28,91.54Z" transform="translate(-15.91 -15.15)"/><polygon class="cls-8" points="96.29 59.53 96.29 59.53 96.29 59.53 96.29 59.53"/><path class="cls-7" d="M105.4,87.57s-4.9-25.36-20.59-24.2c-14.69,1.07-3.24,20.51-3.24,20.51S102.77,89.94,105.4,87.57Z" transform="translate(-15.91 -15.15)"/><path class="cls-7" d="M86,78.6s-6.73,1.34-6.1,7.54C79.91,86.14,85.61,82.76,86,78.6Z" transform="translate(-15.91 -15.15)"/><path class="cls-4" d="M97.75,116.14l-2.47,8.78a3.12,3.12,0,0,1-2.37,2.4c-10.3,2.26-15.21-5.29-14.17-7.93,1.33-.48,24.25-7.81,28.42-16.62A23,23,0,0,1,97.75,116.14Z" transform="translate(-15.91 -15.15)"/><path class="cls-4" d="M79.92,115.76a24.27,24.27,0,0,0,12.77,1.56c9.12-1.62,13.87-12.41,13.87-12.41A32.57,32.57,0,0,0,106,90.8a16.82,16.82,0,0,0-2.55-5.23c-4.29-5.8-11.42-6.84-15.35-7.21a5.11,5.11,0,0,0-4.86,2.42l-1.72,2.81L80.4,85.47a13.4,13.4,0,0,0-.67,1.24,12.93,12.93,0,0,0-1.19,4.54l-.14,1.84a12.87,12.87,0,0,0-2,3.75,13.11,13.11,0,0,0-.69,3.63l-.35,8.28A7.18,7.18,0,0,0,79.92,115.76Z" transform="translate(-15.91 -15.15)"/><path class="cls-9" d="M77.67,100.32l12.65,4.15s-4.26,6-10.65,3C74.66,105.09,77.67,100.32,77.67,100.32Z" transform="translate(-15.91 -15.15)"/><path class="cls-10" d="M80.73,115.86s8,2.35,16.58-6.37c0,0,.19,4.69-4.44,9.28-3.37,3.35-9.74,2.79-13,2.24a1.4,1.4,0,0,1-1-2.09Z" transform="translate(-15.91 -15.15)"/><path class="cls-4" d="M104.21,101.77s4.19-3.37,6.68,0-3.73,12.57-7.77,8.59S104.21,101.77,104.21,101.77Z" transform="translate(-15.91 -15.15)"/><path class="cls-7" d="M102,102.31l2.37,1.08,3.45-3.1c.55-3-1.87-10.93-2.43-12.72-.31-.29-.81-.58-1.16-.86,0,0-2.38,8.22.2,11.27Z" transform="translate(-15.91 -15.15)"/><rect class="cls-7" x="19.77" y="23.96" width="45.81" height="30.33" transform="translate(80.43 45.71) rotate(159.53)"/><polygon class="cls-11" points="0 17.78 10.61 46.2 53.53 30.18 51.91 29.72 1.22 15.32 0.4 16.98 0.4 16.98 0 17.78"/><path class="cls-9" d="M16.31,32.13,26.44,59.38l1.3-.49L43.15,37.07l-26-6.6Z" transform="translate(-15.91 -15.15)"/><rect class="cls-12" x="21.05" y="21.86" width="43.81" height="30.33" transform="translate(80.24 41.53) rotate(159.53)"/><path class="cls-4" d="M31,22.94h0A2.75,2.75,0,0,1,33,22a1.81,1.81,0,0,1,1.53-1.13,1.94,1.94,0,0,1,1.27.19c.33-.65,1.19-1,1.65-.78l.3.14a1.53,1.53,0,0,1,.53-.74h0a2.36,2.36,0,0,1,2.36-.74s4.55,1.83,5,5.34,1.07,7.58-.55,7a3.12,3.12,0,0,1-1.33-1.54c.18,2.1.08,3.68-1,3.3a3.89,3.89,0,0,1-1.63-2.18c.1,1.79-.08,3-1,2.69s-1.68-2-2.2-3.82c.16,2,0,3.52-1,3.15-1.26-.45-1.62-3.27-2.49-5.55-1-2.67-1.27-1.28-2.79-2.25l-1.35.5A3.05,3.05,0,0,1,31,22.94Z" transform="translate(-15.91 -15.15)"/><path class="cls-4" d="M171.68,152.25a8.94,8.94,0,0,1-3.89-5.22c-.17-.63-.37-1.29-.6-1.93-.9-2.52-.18-7.91,0-10.07a20.81,20.81,0,0,1,2.15-6.73c.45-.45,3.15,1.46,2.07,4.23a8.86,8.86,0,0,0,.25,6.74c.56.88,3.07-.73,3.7-2.35s6.11-13.83,7.19-14.19,2-.09,1.25,3-4.13,8.63-3.68,10.15,1.26.27,1.53-.54S186.32,123,187,122.6s2.78-1.13,1.7,3.76-4.42,10.87-4.22,12,4.79-10.84,6.07-11.52,2.22.54,1.21,3.51-3.71,8.71-3.94,9.36-.08,1,.39.74,3.32-7.27,4-7.68,2.27.34.52,5.12-2.92,9-7.68,13.42c-2.94,2.72-4.38,4.37-7.14,4C176.27,155,173.75,153.53,171.68,152.25Z" transform="translate(-15.91 -15.15)"/><path class="cls-2" d="M112.84,268c2.23,2.1,4,7,5.21,11h0c1,3.24,1.48,5.86,1.48,5.86,2,2.16,6.51,1.54,13.79,2.33,6.54.71,11.13,5.26,16,7.22h0A12.5,12.5,0,0,0,151,295c2.9.76,4.95.29,6.06-1.12s1.25-3.3.68-5.86c-1.21-5.4-14.82-17.26-18.73-18.84a34,34,0,0,1-11-6.32c-4.64-3.82-9.37-4.09-10.31-2.66-.16.24-.4.62-.69,1.09C115.55,263.59,112.84,268,112.84,268Z" transform="translate(-15.91 -15.15)"/><path class="cls-1" d="M117,261.29c1.53-.17,4.14-.25,6,.83,2.78,1.61,6.74,5.39,11,7.36A84,84,0,0,1,150.48,281c4.22,3.95,6.7,10.17,5.48,12.22s-3.46,2-6.62,1.25A12.5,12.5,0,0,0,151,295c5.53,1.45,7.95-1.58,6.74-7S142.89,270.76,139,269.18a34,34,0,0,1-11-6.32c-4.64-3.82-9.37-4.09-10.31-2.66C117.53,260.44,117.29,260.82,117,261.29Z" transform="translate(-15.91 -15.15)"/></g></svg>